<?xml version="1.0" encoding="UTF-8" standalone="no"?>
<!-- Created with Inkscape (http://www.inkscape.org/) -->

<svg
   xmlns:dc="http://purl.org/dc/elements/1.1/"
   xmlns:cc="http://creativecommons.org/ns#"
   xmlns:rdf="http://www.w3.org/1999/02/22-rdf-syntax-ns#"
   xmlns:svg="http://www.w3.org/2000/svg"
   xmlns="http://www.w3.org/2000/svg"
   xmlns:sodipodi="http://sodipodi.sourceforge.net/DTD/sodipodi-0.dtd"
   xmlns:inkscape="http://www.inkscape.org/namespaces/inkscape"
   width="238.48242"
   height="408.91071"
   id="svg6765"
   sodipodi:version="0.32"
   inkscape:version="0.48.1 "
   version="1.0"
   sodipodi:docname="Pint_Glass_(Mixing).svg">
  <defs
     id="defs6767" />
  <sodipodi:namedview
     id="base"
     pagecolor="#ffffff"
     bordercolor="#666666"
     borderopacity="1.0"
     gridtolerance="10000"
     guidetolerance="10"
     objecttolerance="10"
     inkscape:pageopacity="0.0"
     inkscape:pageshadow="2"
     inkscape:zoom="0.98994949"
     inkscape:cx="83.015295"
     inkscape:cy="218.17774"
     inkscape:document-units="px"
     inkscape:current-layer="layer1"
     inkscape:window-width="1600"
     inkscape:window-height="848"
     inkscape:window-x="-8"
     inkscape:window-y="-8"
     showgrid="false"
     fit-margin-top="0"
     fit-margin-left="0"
     fit-margin-right="0"
     fit-margin-bottom="0"
     inkscape:window-maximized="1" />
  <metadata
     id="metadata6770">
    <rdf:RDF>
      <cc:Work
         rdf:about="">
        <dc:format>image/svg+xml</dc:format>
        <dc:type
           rdf:resource="http://purl.org/dc/dcmitype/StillImage" />
      </cc:Work>
    </rdf:RDF>
  </metadata>
  <g
     inkscape:label="Layer 1"
     inkscape:groupmode="layer"
     id="layer1"
     transform="translate(-4.0178646,-1.8948326)">
    <rect
       style="fill:#f2f2f2;fill-opacity:1;fill-rule:nonzero;stroke:none"
       id="rect3843"
       width="164.65486"
       height="379.81735"
       x="40.406101"
       y="5.8983717" />
    <path
       inkscape:connector-curvature="0"
       id="path6761"
       d="m 133.20835,410.45831 c 0.38334,-0.38333 10.28078,-0.87854 21.99431,-1.10047 23.66721,-0.44841 34.98249,-1.53595 41.76039,-4.01369 6.68154,-2.44251 8.28511,-4.38622 9.11653,-11.05029 0.39756,-3.18662 1.43104,-11.41886 2.29662,-18.29386 2.56105,-20.34159 5.50618,-49.46837 6.57244,-65 0.54748,-7.975 1.49887,-21.925 2.1142,-31 0.61533,-9.075 1.98048,-22.8 3.03367,-30.5 1.05319,-7.7 2.57616,-23 3.38437,-34 2.29172,-31.19077 3.47563,-45.7799 5.0313,-62 0.79126,-8.25 2.3647,-25.575 3.49654,-38.5 3.25854,-37.210829 5.99183,-64.676657 7.51344,-75.5 0.77322,-5.5 1.42206,-14.1625 1.44185,-19.25 0.0198,-5.0875 0.38835,-9.25 0.81901,-9.25 1.39668,0 0.60589,-5.0649057 -1.10227,-7.0598906 C 239.0731,2.0625074 237.14253,1.9980339 180.75979,1.9389749 36.44802,1.7878133 6.71934,1.9880357 5.35502,3.1203241 3.84706,4.3718183 3.51755,10.071804 4.86771,11.55 c 0.47725,0.5225 1.39284,7.7 2.03465,15.95 0.64181,8.25 1.81552,21.525 2.60823,29.5 0.79272,7.975 2.37252,27.55 3.51068,43.5 1.13816,15.95 3.15384,41.375 4.47929,56.5 1.32546,15.125 3.34013,39.425 4.47705,54 1.13693,14.575 2.73915,33.7 3.56048,42.5 2.4093,25.81383 4.42275,52.6388 5.47927,73 0.54225,10.45 1.64134,23.725 2.44244,29.5 0.8011,5.775 1.95605,16.35 2.56656,23.5 1.99177,23.32689 2.02278,23.38545 13.674,25.81697 10.04987,2.09733 24.53848,3.50135 30.3854,2.94451 4.72262,-0.44978 44.06215,1.43701 49.41993,2.37026 1.65313,0.28795 3.31933,0.20991 3.70266,-0.17343 z M 85.01531,352.19098 C 85.00677,350.90341 85.44237,350.15537 86,350.5 c 0.55,0.33992 0.99311,2.05398 0.98469,3.80902 C 86.97304,356.73709 86.73761,357.14137 86,356 c -0.53316,-0.825 -0.97627,-2.53906 -0.98469,-3.80902 z m 0.30158,-9.37848 c 0.31922,-0.79773 0.55618,-0.56078 0.60416,0.60417 0.04342,1.05416 -0.19292,1.64479 -0.52522,1.3125 -0.33229,-0.33229 -0.36781,-1.19479 -0.07894,-1.91667 z m -4.03447,-98.54875 c 0.22985,-1.52006 0.42406,-0.51375 0.43157,2.23625 0.0075,2.75 -0.18056,3.99369 -0.41792,2.76375 -0.23736,-1.22994 -0.24351,-3.47994 -0.01365,-5 z M 79.58084,225.78064 C 79.19073,220.12629 78.6516,211.9 78.38278,207.5 78.11396,203.1 77.49237,194.325 77.00146,188 76.51056,181.675 75.61299,169.975 75.00688,162 74.40077,154.025 73.48651,143.225 72.97519,138 72.46388,132.775 71.55954,120.85 70.96556,111.5 69.43602,87.423257 67.15673,60.621298 65.99061,53 63.39146,36.012994 61.866,26.893178 60.48132,20.063189 c -1.56944,-7.741338 -1.13647,-9.52331 2.16246,-8.900068 1.55302,0.2934 2.14036,2.228024 3.59574,11.84378 C 67.19626,29.328106 68.47401,37.65 69.07897,41.5 71.07451,54.199865 71.89488,62.809264 73.44234,87.291506 74.28393,100.60618 75.43913,117.8 76.00946,125.5 c 1.12655,15.20958 4.48353,74.26272 5.53519,97.37041 0.75818,16.65908 -0.85074,19.04338 -1.96381,2.91023 z m 87.61166,-21.60836 c -0.26857,-3.64411 -0.047,-4.17228 1.75,-4.17228 1.71884,0 2.0575,0.63096 2.0575,3.83333 0,6.75723 -3.31273,7.05213 -3.8075,0.33895 z M 169.72835,185.85 c -0.47101,-3.01531 -0.14003,-4.05407 1.90342,-5.97379 2.09052,-1.96394 2.6179,-2.09557 3.40559,-0.85001 1.4141,2.23613 1.16447,4.34442 -1.14154,9.64089 -2.29808,5.27827 -2.97433,4.82115 -4.16747,-2.81709 z m 0.42592,-17.53618 c -1.29914,-3.57548 -1.3603,-6.2014 -0.41918,-18 1.85218,-23.22052 2.21001,-28.23814 3.17578,-44.5319 0.5124,-8.64495 1.16269,-16.091927 1.44508,-16.548841 0.28239,-0.456915 0.76303,-8.683777 1.06809,-18.281917 C 175.7291,61.353023 176.71207,47.875 177.60842,41 c 0.89634,-6.875 1.82954,-16.325 2.07377,-21 0.73557,-14.0801052 0.36702,-13 4.43586,-13 l 3.61806,0 -0.29973,9.75 c -0.6055,19.696607 -2.38147,47.142099 -3.99578,61.75 -1.59736,14.454555 -1.8364,17.45209 -2.79109,35 -0.63612,11.69236 -2.55227,32.7805 -3.83033,42.15468 -0.61149,4.48507 -0.88117,9.66007 -0.59929,11.5 0.68371,4.4628 -0.001,6.02053 -2.48429,5.6515 -1.38789,-0.20626 -2.5567,-1.67238 -3.58133,-4.49236 z"
       style="fill:#f3f3f3" />
    <path
       inkscape:connector-curvature="0"
       id="path6759"
       d="m 135.6842,409.0374 c 1.75131,-0.41684 9.85131,-0.68325 18,-0.59204 27.35349,0.3062 45.20562,-2.35117 49.78435,-7.41061 0.93552,-1.03373 1.90741,-3.82695 2.15976,-6.20713 0.25234,-2.38019 0.88927,-7.70262 1.41538,-11.82762 0.52612,-4.125 1.38787,-11.55 1.915,-16.5 0.52713,-4.95 1.66263,-15.3 2.52334,-23 0.8607,-7.7 2.20978,-26.6 2.99796,-42 0.78818,-15.4 2.12893,-33.175 2.97946,-39.5 0.85052,-6.325 2.23056,-16.69245 3.06676,-23.03879 0.83619,-6.34633 1.93604,-20.74633 2.44409,-32 0.50806,-11.25366 2.27737,-34.63621 3.9318,-51.96121 3.92984,-41.15283 4.73203,-49.93247 7.12685,-78 1.10281,-12.925 2.22625,-24.625 2.49653,-26 1.29623,-6.594257 3.37705,-25.647994 4.74665,-43.464237 C 241.44758,5.2534801 240.92485,4.2791142 239,3.3005048 237.02177,2.2947558 212.67003,2.0264069 122.32143,2.0147418 19.84338,2.0015107 7.98182,2.1610332 6.57143,3.5714286 4.85568,5.2871755 4.46092,10.036115 5.90821,11.55 c 1.056,1.104602 5.20664,44.610903 8.1045,84.95 1.1063,15.4 2.89366,37 3.97192,48 1.07826,11 2.42617,25.85 2.99536,33 0.56918,7.15 1.92557,23.8 3.01419,37 3.23776,39.25948 4.90383,60.1483 6.02179,75.5 0.58077,7.975 1.27169,16.075 1.53539,18 0.2637,1.925 0.7305,12.05 1.03732,22.5 0.30683,10.45 1.18064,23.5 1.9418,29 0.76115,5.5 1.90344,15.85 2.53842,23 1.28034,14.41706 2.23597,17.99842 5.34638,20.03645 4.56427,2.99062 19.79285,4.52509 49.22955,4.9605 15.87034,0.23474 30.65517,0.88322 32.85517,1.44107 4.55387,1.15471 6.67122,1.17352 11.1842,0.0994 z M 83.93567,356.87979 c -0.68897,-1.28735 -1.46616,-12.18805 -1.97848,-27.75 C 80.79725,293.89635 79.11543,260.17208 78.01101,250 76.50592,236.13757 75.79084,226.01407 75.89749,220.07865 76.03323,212.52413 74.19973,183.41704 72.9507,173.29805 71.95644,165.243 70.75603,150.27207 69.03794,124.5 66.05035,79.684822 64.80591,63.868906 63.88423,59 63.3116,55.975 62.39222,50.35 61.84117,46.5 61.29012,42.65 60.4408,36.8 59.9538,33.5 56.54973,10.433335 56.57235,10.785875 58.41051,9.4417813 60.04242,8.2484944 60.03733,8.1180259 58.31977,7.1191462 57.01999,6.363229 66.7868,6.1194646 92.5,6.2660611 l 36,0.2052437 L 96.03586,6.749788 C 76.42819,6.9179862 63.18131,7.4186937 62.58586,8.0141356 61.93805,8.6619548 62.12977,9 63.14501,9 c 3.44025,0 6.39305,7.390243 7.39174,18.5 0.19777,2.2 0.79786,7.15 1.33355,11 2.01986,14.516848 4.12863,36.219034 4.08109,42 -0.02714,3.3 0.23262,8.7 0.57725,12 0.34463,3.3 0.76077,9.15 0.92475,13 0.28244,6.63105 1.25157,22.06328 3.51677,56 2.29511,34.38473 4.60965,89.42479 5.55086,132 0.26749,12.1 0.69666,24.025 0.9537,26.5 0.25704,2.475 0.7671,12.2625 1.13347,21.75 0.65932,17.07356 0.64463,17.25 -1.43585,17.25 -1.15608,0 -2.61259,-0.95409 -3.23667,-2.12021 z M 157.61595,310.25 c 0.11667,-25.7125 0.46925,-50.8 0.7835,-55.75 0.92517,-14.5732 4.52004,-63.99884 5.60044,-77 0.54845,-6.6 1.43819,-19.875 1.9772,-29.5 0.539,-9.625 1.44767,-22.32589 2.01926,-28.2242 0.57159,-5.89831 1.2075,-15.57331 1.41313,-21.500001 C 169.61511,92.34911 170.48481,80.3 171.34214,71.5 c 0.85734,-8.8 1.79838,-19.825 2.09121,-24.5 0.97107,-15.50302 2.66368,-32.462553 3.51225,-35.192065 1.01847,-3.2759921 0.59242,-3.7738136 -3.36227,-3.9286752 -1.8875,-0.073913 -0.75631,-0.4950137 2.91667,-1.0857684 6.35023,-1.0213579 20.4762,-0.075575 17.10953,1.1455426 -1.63508,0.5930524 -1.92315,1.8931559 -2.13235,9.623327 -0.29056,10.736646 -1.95403,33.426784 -3.9543,53.937639 -0.80456,8.25 -1.93472,24 -2.51146,35 -0.57675,11 -1.27763,21.02763 -1.55752,22.28362 -0.27988,1.256 -1.179,11.606 -1.99802,23 -1.82346,25.36722 -5.26626,75.48285 -6.02586,87.71638 -0.30736,4.95 -0.76362,9.62215 -1.01391,10.38256 -0.38699,1.17572 -2.17845,23.86038 -3.91841,49.61744 -0.26008,3.85 -0.71715,9.25 -1.01571,12 -0.29856,2.75 -0.94306,10.625 -1.43221,17.5 -0.99305,13.95724 -1.397,15.59603 -4.01284,16.28009 -1.08962,0.28494 -2.12021,1.83534 -2.55823,3.84854 -1.05446,4.84651 -2.30418,7.87137 -3.25206,7.87137 -0.45256,0 -0.72738,-21.0375 -0.6107,-46.75 z M 164,341 c 0,-1.1 -0.45,-2 -1,-2 -0.55,0 -1,0.9 -1,2 0,1.1 0.45,2 1,2 0.55,0 1,-0.9 1,-2 z M 200.27083,7.3958333 c 0.3323,-0.3322916 1.19479,-0.3678179 1.91667,-0.078947 0.79773,0.3192263 0.56078,0.5561827 -0.60417,0.6041666 -1.05416,0.043421 -1.64479,-0.1929276 -1.3125,-0.5252193 z M 158.25,7.2837456 c 1.5125,-0.2291247 3.9875,-0.2291247 5.5,0 1.5125,0.2291246 0.275,0.4165902 -2.75,0.4165902 -3.025,0 -4.2625,-0.1874656 -2.75,-0.4165902 z m -28.5,-0.9460263 c 0.6875,-0.2774123 1.8125,-0.2774123 2.5,0 0.6875,0.2774123 0.125,0.504386 -1.25,0.504386 -1.375,0 -1.9375,-0.2269737 -1.25,-0.504386 z"
       style="fill:#eaeaea" />
    <path
       inkscape:connector-curvature="0"
       id="path6757"
       d="m 154.49558,408.17108 c 0.25598,-0.25597 5.56986,-0.40156 11.80864,-0.32353 6.23878,0.078 14.46006,-0.25914 18.26951,-0.74926 8.4001,-1.08077 18.08579,-4.59358 19.39123,-7.03283 0.52624,-0.98327 1.20149,-4.43775 1.50057,-7.67662 0.29908,-3.23886 0.76647,-7.01384 1.03866,-8.38884 0.71143,-3.59389 5.27353,-45.11191 5.93365,-54 0.30636,-4.125 0.7974,-14.475 1.0912,-23 0.69543,-20.17928 2.14176,-38.16895 4.01989,-50 2.72585,-17.17111 4.41099,-35.30134 4.43119,-47.67477 0.0109,-6.69612 0.89446,-20.42112 1.96339,-30.5 1.06894,-10.07888 3.31419,-33.85023 4.98945,-52.82523 1.67526,-18.975 3.76199,-42.6 4.63718,-52.5 0.87518,-9.9 2.45387,-24.075 3.50819,-31.5 1.05432,-7.425 1.91801,-15.615351 1.91931,-18.200779 0.001,-2.585428 0.5335,-7.085428 1.18267,-10 C 242.04154,5.4429355 241.87397,4.6456933 237.9749,3.3064422 233.64916,1.8206398 12.56409,1.4548355 8.69181,2.9270736 5.66783,4.0767877 4.31947,8.5536774 6.30026,10.867594 7.71499,12.52025 11.16858,47.521758 14.55224,94.5 c 1.42076,19.72563 2.23775,28.95721 5.84094,66 0.80248,8.25 1.73779,18.6 2.07846,23 0.34067,4.4 1.27514,15.2 2.07661,24 1.33188,14.62387 2.90446,34.20131 5.42203,67.5 0.51978,6.875 1.47614,18.8 2.12524,26.5 0.6491,7.7 1.26676,22.55 1.37259,33 0.10582,10.45 0.69072,21.925 1.29977,25.5 0.60905,3.575 1.60834,12.575 2.22066,20 C 38.3307,396.27515 39.59711,401.05042 43,402.66743 48.85036,405.44745 66.61281,407 92.56814,407 c 16.18215,0 27.97904,0.4477 31.62166,1.20008 4.44199,0.91747 7.16424,0.92841 11.5602,0.0464 3.59294,-0.72086 8.10029,-0.8641 12.01509,-0.38184 3.4458,0.42449 6.47452,0.56237 6.73049,0.30639 z m -0.37947,-55.03726 c -2.23642,-6.56905 -2.26338,-6.97942 -0.62301,-9.48294 1.49012,-2.27422 1.5584,-3.26774 0.52158,-7.58968 -0.65614,-2.7351 -0.90152,-6.29994 -0.54529,-7.92186 0.37472,-1.70606 0.20156,-3.22467 -0.41084,-3.60316 C 152.47635,324.17636 152,322.99739 152,321.91623 c 0,-1.17665 -1.00355,-2.34728 -2.5,-2.91623 -2.70553,-1.02864 -3.44837,-4 -1,-4 0.825,0 1.5,0.675 1.5,1.5 0,0.825 0.3375,1.49311 0.75,1.48469 2.3613,-0.0482 3.06551,-2.24425 3.39284,-10.58042 C 154.50821,298.09937 153.56741,295 150.37756,295 c -1.65402,0 -1.82039,-1.60828 -0.26576,-2.5691 0.6115,-0.37792 1.48703,-0.08 1.94563,0.66202 1.08992,1.76353 1.54265,1.15341 2.31282,-3.11688 0.54078,-2.99843 0.1864,-4.01572 -2.37636,-6.82158 -3.46711,-3.79601 -6.68346,-3.94174 -6.164,-0.2793 0.19771,1.39399 -0.57588,3.29001 -1.93082,4.73228 -1.83613,1.95447 -2.28052,3.62327 -2.3662,8.88579 -0.0587,3.60692 -0.64354,7.01744 -1.31918,7.69308 -2.03803,2.03803 -1.45718,4.80114 1.03631,4.92969 1.46056,0.0753 1.68488,0.26705 0.63933,0.54649 -1.7939,0.47947 -3.88933,4.42052 -3.88933,7.31501 0,1.1742 -0.82499,2.00373 -2.19089,2.20295 -2.92397,0.42647 -4.59751,6.26462 -2.48764,8.67813 1.76245,2.01608 2.7647,8.11172 1.23738,7.52563 -1.64553,-0.63145 -3.65352,7.17155 -2.9606,11.50482 0.34896,2.18231 0.18591,4.12633 -0.37519,4.47311 -1.93848,1.19805 -14.21293,2.46786 -16.94601,1.7531 -1.52738,-0.39944 -3.22126,-1.71378 -3.76418,-2.92075 -1.15429,-2.56611 -2.07127,-2.78766 -2.8745,-0.69449 -0.31658,0.825 -1.01974,1.5 -1.56258,1.5 -0.54283,0 -2.64475,1.125 -4.67093,2.5 -2.02617,1.375 -5.08791,2.5 -6.80386,2.5 -2.0369,0 -3.55348,0.69426 -4.36893,2 -1.74078,2.78743 -4.12771,2.50438 -9.6333,-1.14237 -3.98515,-2.63966 -4.64945,-3.51955 -4.15239,-5.5 C 76.94791,349.35935 76.66315,349 74.57807,349 c -3.07943,0 -4.02269,-1.38611 -2.05473,-3.01937 0.97486,-0.80906 1.17246,-1.64224 0.5635,-2.37599 -0.5158,-0.6215 -1.08384,-2.90652 -1.26233,-5.07783 -0.26451,-3.21784 -0.76928,-4.05178 -2.72987,-4.51006 -3.62026,-0.84621 -4.8939,-3.47609 -2.8026,-5.78695 2.1085,-2.32988 2.20185,-5.57502 0.20796,-7.2298 -0.825,-0.68469 -1.5,-1.83823 -1.5,-2.56343 0,-2.12426 2.18192,-2.86289 3.18137,-1.07697 1.52574,2.72635 2.96518,1.84606 2.63199,-1.6096 -0.21486,-2.22844 -0.8351,-3.25423 -1.97324,-3.26345 C 67.06193,312.47214 63,309.24386 63,307.84501 63,307.38026 63.64844,307 64.44098,307 c 2.34734,0 2.74135,-1.74673 1.10696,-4.90729 -0.84358,-1.63131 -1.31108,-3.55702 -1.03888,-4.27936 0.27219,-0.72234 -0.50757,-2.88835 -1.73281,-4.81335 -1.22524,-1.925 -2.33473,-5.075 -2.46553,-7 -0.1308,-1.925 -0.51762,-5.55053 -0.85959,-8.05674 -0.47668,-3.49339 -0.25183,-4.86378 0.96355,-5.87245 2.97611,-2.46995 0.91752,-10.61066 -2.49292,-9.85827 -0.71664,0.1581 -1.48785,-0.5657 -1.71379,-1.60845 -0.28506,-1.31555 0.02172,-1.72993 1.0022,-1.35368 1.86535,0.7158 1.16681,-4.69266 -0.81895,-6.34069 -1.90948,-1.58473 -1.74716,-4.92896 0.31232,-6.4349 1.60096,-1.17064 1.59417,-1.48821 -0.1127,-5.27337 -0.99894,-2.21525 -1.52529,-4.4985 -1.16967,-5.07391 0.35562,-0.5754 0.06884,-2.02328 -0.63729,-3.21752 -1.02149,-1.72757 -1.02842,-2.26384 -0.03388,-2.62401 1.47465,-0.53403 1.67468,-3.90551 0.28275,-4.76577 -0.53198,-0.32878 -0.72394,-1.81784 -0.42657,-3.30901 C 55.11535,219.65791 53.2571,214.5056 49.4807,208 c -1.78696,-3.07838 -1.88993,-7.37186 -0.24015,-10.01357 0.98739,-1.58107 0.98739,-2.39179 0,-3.97286 -0.6823,-1.09254 -1.25486,-3.45504 -1.27235,-5.25 -0.0175,-1.79496 -0.6925,-4.13708 -1.5,-5.2047 -1.87817,-2.48316 -1.86887,-5.54182 0.02508,-8.24581 1.80243,-2.57333 1.00532,-10.90775 -1.12127,-11.7238 C 44.6174,163.29969 44,162.34709 44,161.47237 c 0,-0.87472 -0.38499,-1.35246 -0.85554,-1.06165 -0.47055,0.29082 -0.63353,-0.63264 -0.36218,-2.05211 0.42499,-2.22322 0.21344,-2.49203 -1.52656,-1.93977 -1.66008,0.52689 -2.0958,0.12413 -2.44583,-2.2608 -0.23425,-1.59605 -0.11981,-3.74703 0.25431,-4.77997 0.37413,-1.03294 0.11928,-3.00307 -0.56632,-4.37807 -2.21806,-4.44838 -3.84876,-24.67024 -2.16328,-26.82622 0.7158,-0.91561 0.71556,-1.53482 -7.9e-4,-2 C 35.27236,115.48451 33.00484,100.86974 32.42802,91 31.95536,82.912492 30.80899,64.959662 30.5443,61.5 30.41807,59.85 29.8141,54.9 29.20216,50.5 27.3679,37.311332 25.83517,18.075722 26.52906,16.952977 c 0.43689,-0.706898 1.16525,-0.625694 2.22862,0.248465 1.39636,1.147896 1.50742,0.933853 0.95729,-1.844844 -0.61369,-3.099782 -0.55706,-3.153171 4.08135,-3.847372 2.58702,-0.387183 5.08922,-0.941402 5.56044,-1.231598 C 41.19751,9.1440246 37.19422,8.0265988 31,7.9450275 26.4315,7.8848652 25.09431,7.6040473 26.5,7 c 2.3846,-1.0246981 149.03846,-1.2901014 172,-0.3112728 14.86397,0.6336366 18.34482,1.972459 5.75,2.2115928 -6.93428,0.131659 -6.71246,1.686511 0.3668,2.571006 l 5.61679,0.701772 -0.70812,3.663451 c -0.38946,2.014898 -0.85953,6.691352 -1.04459,10.392121 -0.18507,3.700768 -0.60756,7.167286 -0.93888,7.703373 -0.58338,0.943923 -1.39312,11.620134 -2.05298,27.067957 -0.1762,4.125 -0.78872,9.525 -1.36114,12 -0.57243,2.475 -1.08927,6.975 -1.14853,10 -0.11351,5.793293 -1.93697,15.646727 -3.28165,17.73299 -0.43709,0.67814 -0.50635,2.77004 -0.15392,4.64867 0.49067,2.6155 0.24771,3.63565 -1.03712,4.35467 -1.40459,0.78605 -1.54422,1.73914 -0.85725,5.85134 0.45135,2.70178 0.6952,5.58733 0.54189,6.41233 -0.1533,0.825 -0.69716,4.2 -1.20856,7.5 -1.98633,12.81762 -2.3155,14.04046 -4.12029,15.3067 -1.02435,0.71869 -1.86245,2.03326 -1.86245,2.92126 0,0.88801 -0.63028,2.32499 -1.40061,3.1933 -1.99742,2.25145 -3.39763,8.09335 -2.84399,11.86556 0.32,2.18024 -0.37347,5.01309 -2.14106,8.74627 -3.0183,6.37475 -3.0915,7.02867 -1.19404,10.66572 1.16415,2.23144 1.17917,2.88871 0.0868,3.79532 -1.23109,1.02172 -2.42579,7.98849 -2.99604,17.47112 -0.4024,6.69142 -1.53581,19.75774 -2.11264,24.35523 -0.29814,2.37626 -0.71612,6.87626 -0.92885,10 -1.52988,22.46547 -3.85572,51.82436 -5.48048,69.17952 -1.05554,11.275 -2.44214,26.575 -3.08135,34 -1.16163,13.49352 -2.9992,20.42956 -4.43759,16.75 -0.90762,-2.3218 -2.69788,-2.2162 -4.23805,0.25 -2.15632,3.45282 -3.70263,2.2225 -6.11596,-4.86618 z M 145,237.16512 C 145,235.30923 143.79328,233 142.82346,233 c -1.39049,0 -0.55929,4.26568 0.92654,4.75501 0.6875,0.22641 1.25,-0.039 1.25,-0.58989 z M 41,130.44098 c 0,-0.85746 -0.45734,-1.27636 -1.01631,-0.9309 -0.55897,0.34546 -0.75742,1.04702 -0.44098,1.55902 C 40.39994,132.45614 41,132.19751 41,130.44098 z M 36.29287,76.988083 C 36.93781,74.521822 36.23008,72 34.89301,72 c -1.12825,0 -1.1397,4.062521 -0.01643,5.834535 0.63827,1.006921 0.98596,0.799126 1.41629,-0.846452 z M 33,42.440983 C 33,41.583524 32.55,41.160081 32,41.5 31.45,41.839919 31,42.541476 31,43.059017 31,43.576558 31.45,44 32,44 c 0.55,0 1,-0.701558 1,-1.559017 z M 138.48932,10.017284 c 0.29882,-0.4834979 0.17477,-1.1068565 -0.27567,-1.385241 -1.32564,-0.8192884 -29.09908,-0.3228772 -30.4651,0.5445207 -1.50026,0.9526403 -2.54245,0.8646743 15.97446,1.3483173 7.82265,0.20432 14.46749,-0.0241 14.76631,-0.507597 z M 103,9 C 103,8.45 101.425,8 99.5,8 97.575,8 96,8.45 96,9 c 0,0.55 1.575,1 3.5,1 1.925,0 3.5,-0.45 3.5,-1 z M 85.1875,9.316886 c -0.72188,-0.2888706 -1.58437,-0.2533443 -1.91667,0.078947 -0.33229,0.3322917 0.25834,0.5686404 1.3125,0.5252193 1.16495,-0.047984 1.4019,-0.2849403 0.60417,-0.6041666 z M 141.18045,333.75 c 0.17575,-1.2375 0.76955,-2.25 1.31955,-2.25 0.55,0 1.1438,1.0125 1.31955,2.25 0.21988,1.54817 -0.19173,2.25 -1.31955,2.25 -1.12782,0 -1.53943,-0.70183 -1.31955,-2.25 z M 148,325.44098 C 148,324.64844 148.45,324 149,324 c 0.55,0 1,0.92656 1,2.05902 0,1.13246 -0.45,1.7809 -1,1.44098 -0.55,-0.33992 -1,-1.26648 -1,-2.05902 z M 144,292 c 0,-0.55 0.19844,-1 0.44098,-1 0.24254,0 0.7191,0.45 1.05902,1 0.33992,0.55 0.14148,1 -0.44098,1 C 144.47656,293 144,292.55 144,292 z m 39.67885,-115.28939 c 0.30596,-0.49505 0.98743,-0.44433 1.54688,0.11513 0.55001,0.55 0.66796,1.53725 0.26214,2.19389 -0.56061,0.90708 -0.93223,0.87942 -1.54689,-0.11512 -0.44496,-0.71996 -0.56292,-1.70721 -0.26213,-2.1939 z M 42,169 c 0,-0.55 0.45,-1 1,-1 0.55,0 1,0.45 1,1 0,0.55 -0.45,1 -1,1 -0.55,0 -1,-0.45 -1,-1 z"
       style="fill:#e4e4e4" />
    <path
       inkscape:connector-curvature="0"
       id="path6755"
       d="m 184.90923,406.81166 c 7.6236,-0.86275 15.53484,-3.53988 17.77469,-6.01489 1.67486,-1.8507 2.63475,-7.86191 6.27501,-39.29677 3.55429,-30.69238 4.72272,-52.07105 3.0333,-55.5 -0.40647,-0.825 -0.36762,-4.50266 0.0863,-8.17257 0.45395,-3.66992 1.05325,-11.1487 1.33176,-16.61951 0.27852,-5.47082 1.19144,-13.04316 2.02872,-16.82743 3.43746,-15.53634 5.55014,-34.91859 5.55554,-50.96789 0.003,-9.15351 0.84836,-23.80799 1.96114,-34 2.22709,-20.39804 6.46237,-66.1209 8.05066,-86.9126 1.27643,-16.709292 4.64551,-48.794922 5.93265,-56.5 0.50533,-3.025 1.22357,-9.52627 1.59608,-14.447267 0.37251,-4.920997 1.28654,-9.8771 2.03118,-11.013563 1.09241,-1.6672266 1.11547,-2.5445267 0.11938,-4.542474 C 239.69522,4.0100494 238.38328,3.3668345 234.04953,2.7431476 231.07863,2.315594 179.29617,2.0859775 118.97739,2.2328887 27.78369,2.4549983 9.02832,2.7312235 7.65344,3.8724447 5.90761,5.3215789 5.3382,11 6.93873,11 c 0.5163,0 1.17318,1.9125 1.45973,4.25 1.06986,8.72708 4.69312,50.141653 6.62718,75.75 1.87013,24.76184 2.67337,33.50674 6.38375,69.5 0.79376,7.7 1.72848,17.6 2.07716,22 0.34868,4.4 1.69903,19.475 3.00077,33.5 1.30174,14.025 3.08511,34.725 3.96304,46 3.3741,43.3327 5.42147,68.19312 6.13541,74.5 0.40179,3.54931 0.27051,4.57463 -0.45246,3.53388 -0.83517,-1.20223 -1.20212,-0.98309 -2.03882,1.21759 -0.75309,1.98079 -0.38652,7.73413 1.39955,21.96612 1.33094,10.60532 2.6286,22.56947 2.88368,26.58699 0.50839,8.00705 2.25539,11.72523 6.2168,13.23136 1.36946,0.52067 7.701,1.62978 14.07008,2.46469 11.08583,1.45323 34.27587,1.4409 54.60688,-0.029 5.21692,-0.37718 7.34732,-0.11227 9.27978,1.15392 2.02586,1.3274 3.80083,1.50378 9.22852,0.91704 3.69612,-0.39956 7.84522,-0.70467 9.22022,-0.67804 28.98271,0.5615 38.58247,0.54994 43.90923,-0.0529 z m -22.3472,-15.11182 c -0.0387,-4.16732 0.37083,-6.84149 1.0902,-7.11844 1.78051,-0.68547 1.87065,-0.24555 1.51355,7.38628 -0.43418,9.27895 -2.51702,9.06469 -2.60375,-0.26784 z M 128,398.13867 c 0,-0.47373 1.125,-0.64627 2.5,-0.38342 1.375,0.26285 2.5,0.65044 2.5,0.86133 0,0.21088 -1.125,0.38342 -2.5,0.38342 -1.375,0 -2.5,-0.3876 -2.5,-0.86133 z M 122,398 c 0,-0.55 0.45,-1 1,-1 0.55,0 1,0.45 1,1 0,0.55 -0.45,1 -1,1 -0.55,0 -1,-0.45 -1,-1 z m -11.91667,-8.36318 c 0.22917,-0.19974 7.84167,-0.56774 16.91667,-0.81777 9.075,-0.25002 14.25,-0.15729 11.5,0.20608 -5.34968,0.70687 -29.11272,1.21839 -28.41667,0.61169 z m 44.72337,-29.48513 c -1.77733,-2.514 -11.58926,-3.53498 -21.54878,-2.24224 -17.97108,2.33262 -56.31559,2.89003 -65.25792,0.94864 -2.475,-0.53732 -5.44851,-0.96054 -6.6078,-0.94049 -1.75581,0.0304 -2.37425,-1.0034 -3.70345,-6.19057 -2.36037,-9.21127 -2.68258,-11.28826 -3.69237,-23.80081 C 51.22377,293.56988 50.04335,280.85713 49.08199,275 c -0.58679,-3.575 -1.07028,-8.12888 -1.07444,-10.11973 -0.0042,-1.99085 -0.92979,-6.49085 -2.05698,-10 -1.36645,-4.25405 -2.21361,-10.21263 -2.5421,-17.88027 -0.27098,-6.325 -0.73878,-12.85 -1.03956,-14.5 -0.30077,-1.65 -0.74911,-5.925 -0.9963,-9.5 -0.24719,-3.575 -1.04727,-10.325 -1.77796,-15 -0.73068,-4.675 -1.32096,-9.625 -1.31172,-11 0.0357,-5.31097 -1.32524,-14.34606 -2.34622,-15.57626 -1.03738,-1.24997 -2.15093,-8.85551 -1.89221,-12.92374 0.21508,-3.38195 0.15637,-4.7442 -0.53876,-12.5 -0.36971,-4.125 -0.93961,-8.175 -1.26644,-9 -0.6334,-1.59883 -1.25601,-7.75604 -1.23206,-12.18426 0.008,-1.47635 -0.37094,-2.92249 -0.84206,-3.21365 -0.47111,-0.29116 -0.73433,-2.90825 -0.58494,-5.81574 0.18875,-3.67331 -0.2001,-5.80855 -1.27435,-6.99774 -1.1983,-1.32651 -1.39306,-2.93539 -0.86598,-7.15393 0.38496,-3.081146 0.27712,-5.691533 -0.24856,-6.016419 -0.51071,-0.315634 -1.24557,-3.791063 -1.63303,-7.723176 -0.38746,-3.932114 -1.10854,-8.212079 -1.6024,-9.511034 C 23.46205,77.085095 22.7578,73.092293 22.3909,69.511157 21.81342,63.874682 21.94387,63 23.36191,63 c 2.33807,0 2.02943,-2.084901 -0.4028,-2.720944 -2.33514,-0.610652 -2.05797,-2.920486 0.30079,-2.506769 2.1196,0.371768 2.82123,-9.841598 1.04062,-15.148014 C 23.58524,40.492624 23,37.592247 23,36.178992 23,34.75598 21.8067,32.3639 20.32565,30.818022 17.41841,27.783514 15.009,21.934553 15.54385,19.209989 16.92343,12.182426 16.97957,12.094458 20.50806,11.43251 24.11991,10.754922 25.33476,9.0305376 22.25,8.9599624 20.93182,8.9298043 21.11689,8.5881019 23,7.5751835 24.92159,6.5415668 35.33296,6.0771801 68,5.5680129 c 46.00941,-0.7171292 149.31619,0.8231772 155,2.3110534 3.14436,0.8231123 2.81411,0.9266119 -3.25,1.0185722 -7.65213,0.116042 -8.81209,1.3793315 -2.5,2.7227085 l 4.25,0.90451 -0.35094,4.487572 c -0.19302,2.468164 -0.6958,4.937571 -1.11729,5.487571 -2.7559,3.596135 -8.24266,28.622448 -6.62896,30.236143 0.28975,0.289753 0.0829,1.356245 -0.45961,2.369983 -0.54253,1.013738 -1.20942,6.358407 -1.48198,11.877042 -0.27255,5.518635 -1.10003,12.917598 -1.83883,16.44214 -0.73881,3.524542 -0.99571,6.970643 -0.5709,7.658002 0.42481,0.687358 0.32063,2.412306 -0.23152,3.833216 -0.9769,2.513996 -2.37072,15.141024 -3.29296,29.831964 -0.25027,3.98668 -0.8688,8.03668 -1.37453,9 -0.50572,0.96333 -1.18101,5.80151 -1.50064,10.75151 -0.31963,4.95 -1.0424,12.53799 -1.60617,16.86219 -0.56376,4.32421 -0.77484,8.267 -0.46906,8.76176 0.48015,0.77691 -1.26863,7.54173 -4.75044,18.37605 -0.53025,1.65 -1.2095,6.6 -1.50942,11 -0.29993,4.4 -0.9125,8.69925 -1.36126,9.55388 -0.44877,0.85464 -0.42308,2.18954 0.0571,2.96646 0.53067,0.85864 0.42945,1.94706 -0.25812,2.77553 -1.78608,2.1521 -3.78292,20.04755 -2.54109,22.77305 0.8235,1.8074 0.61329,2.97752 -1.00738,5.60754 -1.22481,1.98762 -2.0733,5.13235 -2.11089,7.82354 -0.0799,5.72073 -1.28446,13.0081 -4.13236,25 -1.24086,5.225 -2.35487,12.2 -2.47559,15.5 -0.32307,8.83198 -3.38769,31.20216 -5.10426,37.25848 -0.81974,2.89217 -1.21719,5.70059 -0.88323,6.24095 C 175.26377,336.23581 172.8177,347 171.77262,347 171.34768,347 171,348.14969 171,349.55486 171,352.98384 167.27038,361 165.67501,361 c -0.70126,0 -1.77709,-0.50208 -2.39074,-1.11573 -0.82097,-0.82097 -1.72514,-0.68888 -3.42251,0.5 -2.92889,2.05148 -3.45748,2.02716 -5.05506,-0.23258 z M 20,16.940983 C 20,16.358524 19.55,16.160081 19,16.5 18.45,16.839919 18,17.316476 18,17.559017 18,17.801558 18.45,18 19,18 c 0.55,0 1,-0.476558 1,-1.059017 z m 0.11831,31.686572 C 20.02011,47.073379 20.25496,46.966711 21.5,48 c 1.56371,1.297767 2.05016,6.11207 0.75,7.422721 -0.72667,0.732539 -1.89044,-2.977186 -2.13169,-6.795166 z M 18.43628,35.96875 17.83506,32.5 l 1.9497,2.399712 c 1.0825,1.332354 1.7268,3.252089 1.44856,4.316087 -0.6784,2.594199 -2.06325,0.986538 -2.79704,-3.247049 z"
       style="fill:#dbdbdb" />
    <path
       inkscape:connector-curvature="0"
       id="path6753"
       d="m 180.5,406.96416 c 11.14702,-0.82405 20.56938,-3.79743 22.99136,-7.25528 0.82975,-1.18464 1.50549,-3.74126 1.50164,-5.68139 -0.004,-1.94012 0.66214,-8.47749 1.47997,-14.52749 3.40921,-25.21975 4.61601,-37.35027 5.10165,-51.28104 0.48908,-14.02956 0.44105,-14.53161 -1.02556,-10.71896 -0.84627,2.2 -2.20172,9.57322 -3.01212,16.38493 -0.81041,6.81171 -1.71274,12.62421 -2.0052,12.91666 -0.83921,0.83921 -0.64145,-2.3836 1.00068,-16.30772 2.59538,-22.00692 5.25894,-50.38822 5.94643,-63.36162 0.67878,-12.80887 3.04428,-31.03031 4.16066,-32.04959 0.35099,-0.32046 0.33801,2.78253 -0.0289,6.89553 -0.46661,5.23131 -0.35099,7.16215 0.38484,6.42632 C 219.15884,246.24116 221.05952,219 219.04711,219 c -0.53768,0 -0.74308,-2.06971 -0.47139,-4.75 6.70131,-66.10968 7.88911,-78.61959 9.94585,-104.75 1.79839,-22.848141 6.07447,-64.332993 7.47298,-72.5 0.518,-3.025 1.37764,-9.891151 1.91032,-15.258113 0.60995,-6.145606 1.51429,-10.303905 2.44279,-11.232409 1.87594,-1.8759362 1.02939,-5.2134215 -1.72257,-6.7911454 C 235.69081,2.0360845 17.27215,1.3110867 11.13656,2.9632292 7.96839,3.8163278 6.86865,4.6751654 6.3626,6.691427 5.92075,8.4518942 6.18572,9.670152 7.17043,10.405591 8.82173,11.638882 11.3972,35.997362 15.53325,89.5 c 0.85036,11 2.45244,28.775 3.56018,39.5 1.10774,10.725 2.43234,23.55 2.94355,28.5 0.51122,4.95 1.39756,14.4 1.96964,21 0.57209,6.6 2.35271,25.725 3.95693,42.5 2.76526,28.91565 4.01377,43.34221 7.57246,87.5 0.84216,10.45 1.96609,22.58819 2.4976,26.97377 0.53151,4.38557 0.92221,9.78557 0.86821,12 l -0.09817,4.02623 -1.1818,-4.42666 c -0.64999,-2.43466 -1.73081,-4.60966 -2.40182,-4.83333 -1.66525,-0.55508 -1.56541,6.75498 0.25568,18.72042 0.79191,5.20323 1.98952,15.73444 2.66135,23.40267 1.55468,17.74489 1.70707,17.95178 14.86279,20.17774 10.7274,1.81509 33.28424,2.07454 45.00015,0.5176 10.29696,-1.36838 46.7286,-1.37265 47.1843,-0.006 0.61559,1.84677 7.94053,2.89922 12.85008,1.84631 3.11453,-0.66795 5.49195,-0.6496 7.34975,0.0567 1.51034,0.57423 3.27927,0.97732 3.93097,0.89576 0.65169,-0.0816 5.6849,-0.48096 11.1849,-0.88755 z M 162.30902,398.75 c -0.44496,-0.6875 -0.80902,-4.06544 -0.80902,-7.50654 0,-5.17678 0.31502,-6.35747 1.82536,-6.84131 1.00395,-0.32162 2.09147,-0.31865 2.41673,0.007 0.67933,0.67933 0.34868,13.63537 -0.378,14.81115 -0.71853,1.16262 -2.13999,0.94398 -3.05507,-0.4699 z M 100.812,398.38381 c -0.63375,-0.39168 -0.5977,-0.99811 0.10087,-1.69668 1.47038,-1.47038 1.37573,-5.55377 -0.16287,-7.02635 -0.6875,-0.658 -2.375,-1.76261 -3.75,-2.45469 l -2.5,-1.25833 2.5,0.77074 c 4.0157,1.23803 47.18982,0.95333 49.5,-0.32642 1.25789,-0.69682 3.85528,-0.83916 7,-0.38361 4.25462,0.61633 4.47824,0.74651 1.5,0.87323 -4.82274,0.20521 -6.57801,1.39371 -4.54733,3.07902 0.85103,0.70629 1.54733,2.57907 1.54733,4.16172 0,1.58266 0.54,2.87756 1.2,2.87756 0.76605,0 0.8531,0.3469 0.24071,0.95929 -1.59926,1.59926 -50.09499,1.99044 -52.62871,0.42452 z m 54.10229,-36.42968 c -1.26721,-0.67819 -13.63627,-0.98437 -35.18426,-0.87094 -61.20987,0.32223 -58.90765,0.41163 -61.30966,-2.38087 C 55.81486,355.67324 53.6425,344.75515 51.51568,324 50.64211,315.475 49.68885,306.7 49.39732,304.5 47.69631,291.66326 46.98755,287.01783 46.09342,282.84517 44.25757,274.27776 40.53087,244.33658 37.52446,214 c -3.48312,-35.14679 -5.06081,-47.26151 -6.57658,-50.5 -0.51485,-1.1 -1.61183,-8.75 -2.43773,-17 -0.82589,-8.25 -2.15749,-19.05 -2.9591,-24 -0.80161,-4.95 -2.40891,-18.45 -3.57179,-30 C 20.81638,80.95 19.26501,67.9 18.53177,63.5 17.79853,59.1 16.15941,45.986402 14.88927,34.358671 12.23008,10.014434 12.42529,8.6349212 18.67471,7.6075099 32.85234,5.2766921 51.59226,4.8926299 126,5.4079489 200.35433,5.922898 217.27188,6.3013795 225.99839,7.645125 l 3.49839,0.538697 -2.83392,1.4848396 c -2.60966,1.3673364 -2.70969,1.6221094 -1.2641,3.2194694 1.18105,1.305048 1.35418,2.486512 0.69909,4.770682 -0.4789,1.669829 -0.85824,6.367207 -0.84298,10.438619 0.017,4.535522 -0.57803,8.830676 -1.53633,11.08987 -0.86025,2.028016 -1.30151,4.691417 -0.98058,5.91867 0.46454,1.776395 0.24801,2.10262 -1.06197,1.599937 -2.17656,-0.835226 -3.74698,2.18202 -3.65689,7.025978 0.0385,2.072462 -0.11964,5.343113 -0.35153,7.268113 -0.23188,1.925 -0.7368,6.425 -1.12203,10 -0.38523,3.575 -1.38313,11.45 -2.21754,17.5 -0.83442,6.05 -1.6368,12.8 -1.78307,15 -0.31993,4.81208 -1.99611,18.2018 -4.56922,36.5 -2.64092,18.78039 -3.02482,21.26723 -3.5776,23.1751 -0.26694,0.9213 -0.89194,5.8713 -1.3889,11 -0.49695,5.12869 -1.35226,12.6999 -1.90067,16.8249 -0.54841,4.125 -1.50102,12.225 -2.1169,18 -1.85424,17.38694 -5.62247,40.76794 -8.13889,50.5 -1.408,5.44535 -3.66066,19.63031 -5.32,33.5 -4.61483,38.57331 -7.19992,54.68102 -9.5571,59.55029 -2.54656,5.26051 -8.91157,9.61253 -12.89386,8.81607 -1.60129,-0.32026 -3.13585,-0.0879 -3.51953,0.5329 -0.85162,1.37795 -2.14719,1.39325 -4.64797,0.0549 z M 132.5,407 c 0.35191,-0.5694 -0.50929,-1 -2,-1 -1.49071,0 -2.35191,0.4306 -2,1 0.33992,0.55 1.23992,1 2,1 0.76008,0 1.66008,-0.45 2,-1 z"
       style="fill:#d3d3d3" />
    <path
       inkscape:connector-curvature="0"
       id="path6751"
       d="m 187.5,406.33659 c 1.1,-0.25511 4.82146,-1.37487 8.26991,-2.48837 6.93424,-2.23904 9.23009,-4.9972 9.23009,-11.08872 0,-1.8369 0.6477,-8.27175 1.43934,-14.29966 4.54225,-34.58703 6.63894,-60.76126 4.72291,-58.95894 -0.58523,0.55049 -1.9751,6.85049 -3.08862,14 -1.11351,7.1495 -2.70319,15.9241 -3.53262,19.4991 l -1.50806,6.5 0.45843,-5.5 c 0.25213,-3.025 1.78705,-19 3.41093,-35.5 1.62389,-16.5 3.69534,-38.775 4.60322,-49.5 0.90789,-10.725 2.48484,-25.575 3.50432,-33 1.01949,-7.425 2.79914,-23.625 3.95477,-36 1.15564,-12.375 2.97103,-31.05 4.0342,-41.5 1.06317,-10.45 2.43286,-25.75 3.04375,-34 1.2973,-17.51997 8.57771,-86.181113 9.88207,-93.197354 0.49107,-2.641455 1.20907,-8.26125 1.59557,-12.488432 0.46793,-5.117706 1.16669,-7.863823 2.09126,-8.218616 2.30369,-0.8840071 1.56412,-4.4344232 -1.31702,-6.322545 -2.54101,-1.6652253 -9.36746,-1.7919761 -112.25,-2.0842131 C 65.795,2.0177018 14.70362,2.2620917 12.50805,2.7319287 7.44934,3.8144574 4.97545,7.6289579 7.79436,10 c 1.54088,1.296066 2.22477,6.802296 5.03025,40.5 4.4432,53.36904 5.07862,60.64268 6.20253,71 2.7677,25.50554 5.98896,57.45479 6.95689,69 0.59944,7.15 1.73764,18.85 2.52933,26 1.51363,13.67007 3.26173,33.20982 6.53084,73 1.0845,13.2 2.82657,34.125 3.87126,46.5 1.0447,12.375 1.77273,22.63087 1.61784,22.79082 -0.15488,0.15995 -1.21925,-3.15856 -2.36527,-7.37448 -1.14601,-4.21591 -2.32764,-7.90928 -2.62584,-8.20749 -1.82538,-1.82537 -1.65168,3.30457 0.78144,23.07918 1.50316,12.21658 2.72027,23.92182 2.7047,26.01163 -0.04269,5.72659 2.31617,9.44954 6.72835,10.6192 11.8411,3.13905 34.08597,3.85875 45.6591,1.47722 3.25368,-0.66955 8.30776,-0.97048 11.23129,-0.66875 3.16477,0.32664 5.84242,0.11132 6.61776,-0.53216 0.71624,-0.59442 1.876,-0.72617 2.57724,-0.29277 0.70125,0.43339 10.88743,0.6962 22.63596,0.58402 11.74853,-0.11218 21.95969,0.17559 22.69147,0.6395 0.83981,0.53238 -0.29838,0.8491 -3.08617,0.85877 -2.42916,0.008 -4.11396,0.31801 -3.74399,0.68799 0.77058,0.77058 34.13079,1.36659 37.16066,0.66391 z m -24.5,-4.7869 c 0,-2.48462 -2.78717,-3.17656 -9.76832,-2.42506 -11.04177,1.1886 -59.40431,1.03607 -60.63161,-0.19122 -0.25685,-0.25686 -0.63726,-2.93445 -0.84535,-5.95021 -0.36872,-5.34381 -0.46574,-5.50105 -3.81653,-6.18549 -1.891,-0.38627 1.73681,-0.38627 8.06181,0 17.11645,1.04528 44.98571,0.73689 49,-0.54223 1.925,-0.61338 7.74237,-1.25929 12.92749,-1.43536 l 9.4275,-0.32012 -0.23378,6.5 c -0.22678,6.30554 -1.82375,12 -3.36532,12 C 163.34015,403 163,402.34736 163,401.54969 z M 85.73625,373.29607 c 1.22994,-0.23736 3.47994,-0.24351 5,-0.0136 1.52006,0.22985 0.51375,0.42406 -2.23625,0.43157 -2.75,0.007 -3.99369,-0.18056 -2.76375,-0.41792 z M 106.77829,362.5 c -46.39686,0 -47.77652,-0.0555 -49.69621,-2 -3.86849,-3.91844 -8.59183,-27.91958 -9.54462,-48.5 -0.28782,-6.21704 -1.55635,-16.16057 -3.57205,-28 -0.51501,-3.025 -1.81549,-13.15 -2.88995,-22.5 -1.07446,-9.35 -2.87519,-24.65 -4.00162,-34 -1.12644,-9.35 -2.95525,-25.1 -4.06404,-35 -1.10879,-9.9 -2.89027,-24.75 -3.95884,-33 C 26.6735,141.14465 24.91891,126.40187 21.01753,92 19.36463,77.425 17.80523,64.6 17.55218,63.5 16.65867,59.615871 12.00044,18.866388 12.0318,15.20865 12.07545,10.119489 14.10369,7.8698426 19.72319,6.677673 31.32584,4.2161866 225.03663,5.0505001 229.12877,7.579584 c 0.49712,0.3072369 0.56962,1.0900184 0.16112,1.7395143 C 228.88139,9.9685942 228.51282,11.85 228.47086,13.5 c -0.1507,5.925067 -3.58798,41.094504 -4.44693,45.5 -0.48256,2.475 -1.54494,6.525 -2.36085,9 -1.80117,5.463738 -2.53682,10.034188 -7.16259,44.5 -0.88581,6.6 -2.2608,15.38528 -3.05553,19.52285 -0.79473,4.13756 -1.44794,9.53756 -1.45159,12 -0.004,2.46243 -0.85305,9.42715 -1.88757,15.47715 -1.03452,6.05 -2.41513,15.95 -3.06804,22 -0.65291,6.05 -2.04971,16.4 -3.10402,23 -4.51837,28.28529 -8.32699,54.19143 -9.92357,67.5 -0.49486,4.125 -1.38164,9.75 -1.97062,12.5 -1.07711,5.02912 -4.40407,27.29314 -7.54632,50.5 -1.73712,12.82932 -4.50127,22.75262 -6.73229,24.16891 -0.69352,0.44026 -2.17331,0.80736 -3.28843,0.81578 -1.11513,0.008 -3.00982,0.70335 -4.21043,1.54429 -1.33147,0.93261 -3.14524,1.28746 -4.65007,0.90978 -1.35693,-0.34057 -3.28723,-0.14072 -4.28957,0.44411 C 158.3201,363.46771 156.825,363.62081 156,363.2231 155.175,362.8254 133.02523,362.5 106.77829,362.5 z"
       style="fill:#cbcbcb" />
    <path
       inkscape:connector-curvature="0"
       id="path6749"
       d="m 186.5,405.95513 c 3.3,-0.43519 8.25,-1.6275 11,-2.64958 4.39515,-1.63354 5.1445,-2.33903 6.19452,-5.83194 2.79989,-9.31392 8.94891,-76.23878 6.82385,-74.26959 -0.41786,0.38721 -1.33717,5.11221 -2.04292,10.5 -0.70575,5.38779 -2.05203,13.39598 -2.99173,17.79598 -1.92605,9.0184 -3.98498,12.68931 -3.08481,5.5 0.30989,-2.475 1.02764,-9.45 1.595,-15.5 0.56737,-6.05 1.71157,-17.75 2.54267,-26 0.8311,-8.25 2.1896,-23.325 3.01889,-33.5 0.82928,-10.175 2.39346,-25.925 3.47595,-35 3.28673,-27.55429 7.64063,-72.00766 11.99802,-122.5 2.89245,-33.51711 5.10913,-53.736032 11.31526,-103.209763 0.86784,-6.918181 1.61779,-9.547248 3.01404,-10.566098 2.56546,-1.8720318 1.70893,-4.925113 -1.86186,-6.6365495 C 234.9744,2.8786002 217.44015,2.6477032 123.0091,2.5799759 3.38216,2.4941778 7,2.341747 7,7.4677961 7,10.831717 10.50907,11.794343 13.33508,9.2056676 14.52578,8.1149563 17.3,6.9226493 19.5,6.5560966 30.15578,4.7806849 100.37149,3.9873808 157,5.0026078 c 32.725,0.5866886 62.58844,1.3418095 66.3632,1.6780464 l 6.8632,0.6113398 -0.53588,4.604003 C 229.39579,14.428199 228.68676,20.325 228.11491,25 c -0.57186,4.675 -1.75287,16.772013 -2.62447,26.882251 -0.8716,10.110238 -2.24537,21.585238 -3.05282,25.5 -1.54067,7.469571 -2.31486,12.783427 -4.97071,34.117749 -0.89009,7.15 -2.22829,15.25 -2.97379,18 -0.7455,2.75 -1.36918,6.35 -1.38595,8 -0.0447,4.39604 -0.68479,9.70526 -1.45591,12.07542 -0.70509,2.16726 -4.01294,26.42438 -5.71708,41.92458 -0.54422,4.95 -1.63026,12.375 -2.41342,16.5 -2.38704,12.57274 -4.38932,24.23889 -5.06312,29.5 -0.3522,2.75 -1.05419,6.64141 -1.55997,8.64758 -0.50578,2.00616 -1.33231,11.98779 -1.83673,22.18139 -0.50443,10.1936 -1.38617,19.41022 -1.95944,20.48137 -0.57327,1.07116 -1.27239,4.81454 -1.5536,8.31861 -0.53717,6.6935 -2.35057,17.96013 -5.04928,31.37105 -0.88542,4.4 -2.21752,11.375 -2.96022,15.5 -2.25698,12.53536 -4.89861,17 -10.05853,17 -1.76558,0 -4.29622,0.8543 -5.62364,1.89845 -2.06996,1.62823 -2.67523,1.70707 -4.25229,0.55389 -1.56002,-1.14071 -2.21489,-1.09813 -4.31947,0.28084 -1.97919,1.29681 -2.86239,1.387 -4.369,0.4461 -2.03798,-1.27274 -66.43855,-1.52768 -78.91547,-0.3124 -5.87926,0.57266 -16.06184,-0.13232 -20.05436,-1.38844 -0.8549,-0.26896 -2.31076,-2.62415 -3.23525,-5.23373 C 51.09855,352.69493 47.86628,329.30966 46.52584,312.5 46.17498,308.1 44.79621,296.175 43.46191,286 39.96641,259.34432 37.23967,236.60664 34.52775,211.5 33.22076,199.4 30.80476,178.7 29.15886,165.5 25.94955,139.76157 24.06086,124.13575 21.00015,98 19.14983,82.199913 16.52746,62.563947 14.99043,53 13.74758,45.266569 13.92739,52.768142 15.49687,74.128168 17.12645,96.306203 17.08484,95.84597 19.96115,123.5 c 10.08496,96.96098 17.46575,177.08559 20.04674,217.62385 0.51315,8.05988 1.19982,16.61674 1.52592,19.01524 0.87876,6.46326 -0.82707,2.86533 -3.54226,-7.47132 -1.44109,-5.48623 -2.60839,-8.31693 -3.08122,-7.47202 -0.41867,0.74811 0.32825,10.34762 1.65981,21.33223 1.33157,10.98461 2.42302,22.13187 2.42544,24.77168 0.005,5.39735 2.0941,10.27664 4.76272,11.12363 9.17255,2.91125 38.76964,3.97009 43.2938,1.54883 0.99903,-0.53467 3.0835,-0.97901 4.63216,-0.98743 3.09861,-0.0168 6.02385,-1.43158 4.6725,-2.25976 -0.47122,-0.28879 -3.36847,-0.83742 -6.43833,-1.21918 l -5.58156,-0.69411 -0.11689,-5.13154 C 84.1431,390.30507 83.572,388.16021 82.55155,387.41403 81.6982,386.79005 81,385.99162 81,385.63976 c 0,-1.09703 17.02074,-0.69903 19.16421,0.44812 3.10212,1.66021 27.1545,2.28366 36.33579,0.94185 4.4,-0.64305 12.05,-1.52182 17,-1.95284 4.95,-0.43101 9.45,-0.93536 10,-1.12077 0.55,-0.18542 2.53803,0.026 4.41784,0.4697 2.80381,0.66187 3.11821,0.9745 1.75,1.74019 -1.22972,0.68818 -1.66784,2.32474 -1.66784,6.23004 0,5.48154 -2.26593,11.58015 -4.32324,11.63575 -0.64722,0.0175 -0.30325,0.6925 0.76437,1.5 2.13555,1.61525 11.6379,1.79761 22.05887,0.42333 z M 84.01008,374.10761 c -1.57603,-0.43866 -2.06146,-0.95782 -1.32258,-1.41447 1.26265,-0.78037 17.04856,0.70958 18.04184,1.70287 0.82418,0.82418 -13.61695,0.57508 -16.71926,-0.2884 z m 64.22201,-0.82214 c 1.50265,-0.22817 4.20265,-0.23276 6,-0.0102 1.79735,0.22256 0.56791,0.40925 -2.73209,0.41486 -3.3,0.006 -4.77056,-0.17648 -3.26791,-0.40466 z M 163.5,372 c 0.33992,-0.55 1.04148,-1 1.55902,-1 0.51754,0 0.94098,0.45 0.94098,1 0,0.55 -0.70156,1 -1.55902,1 -0.85746,0 -1.2809,-0.45 -0.94098,-1 z m -46.62188,31.09649 c 1.941,-1.22941 0.47149,-3.09649 -2.43714,-3.09649 -2.73984,0 -3.35638,2.43475 -0.85919,3.39301 1.91495,0.73484 1.62714,0.76073 3.29633,-0.29652 z m 44.42976,-1.29212 c 2.71369,-1.66435 -1.33729,-2.15751 -16.07456,-1.9569 -17.74232,0.24153 -24.49773,0.91568 -23.60762,2.35592 0.6838,1.1064 37.83675,0.73282 39.68218,-0.39902 z m -51.80351,0.18857 c 0.34231,-0.55389 -0.0845,-1.27833 -0.94852,-1.60988 -2.19963,-0.84408 -8.73726,0.5144 -8.02462,1.66747 0.78329,1.26738 8.18361,1.21989 8.97314,-0.0576 z M 13.92105,44.416667 c -0.04798,-1.164943 -0.28494,-1.4019 -0.60416,-0.604167 -0.28887,0.721875 -0.25335,1.584375 0.07894,1.916667 0.3323,0.332291 0.56864,-0.258334 0.52522,-1.3125 z"
       style="fill:#c3c3c3" />
    <path
       inkscape:connector-curvature="0"
       id="path6747"
       d="m 185.02223,405.90893 c 7.07106,-0.7643 15.2914,-3.49302 17.33906,-5.75565 0.87807,-0.97027 1.78431,-3.98918 2.01385,-6.7087 0.22955,-2.71952 1.55809,-13.94458 2.95233,-24.94458 3.88306,-30.63588 4.46921,-53.81897 0.74587,-29.5 -1.34057,8.75591 -4.20792,21.36492 -5.23032,23 -1.44366,2.3088 0.60613,-28.83342 3.68595,-56 0.77941,-6.875 1.9151,-18.575 2.52376,-26 0.60867,-7.425 1.96278,-20.925 3.00914,-30 1.04637,-9.075 2.8224,-26.4 3.94673,-38.5 1.12434,-12.1 3.37024,-35.95 4.99091,-53 1.62066,-17.05 3.42918,-36.625 4.01894,-43.5 0.58975,-6.875 2.3954,-24.65 4.01255,-39.5 1.61715,-14.85 3.21323,-29.7 3.54685,-33 0.33361,-3.3 1.43177,-11.577857 2.44034,-18.395237 1.71094,-11.564948 2.38377,-13.338393 5.47005,-14.4179203 0.62432,-0.2183769 0.55679,-1.2925962 -0.18338,-2.9171034 C 239.43768,4.8664916 238.14148,4.049107 235.31662,3.6241348 228.86857,2.6540929 37.39043,1.9736947 22.6489,2.8684415 8.55535,3.7238585 6.63386,4.3646572 7.26147,8 7.60206,9.9728417 11.38001,10.467451 13.12535,8.7677015 17.01845,4.9763124 25.68873,4.6065626 110,4.6364194 c 78.3587,0.027749 118.13707,1.1006519 120.28063,3.244212 0.54422,0.5442133 0.26306,4.6574346 -0.70157,10.2637646 C 228.69371,23.289978 227.28483,36.275 226.44822,47 c -0.8366,10.725 -2.40503,24.9 -3.48539,31.5 -2.2233,13.582306 -6.18145,43.39109 -8.43182,63.5 -0.83092,7.425 -2.18664,17.775 -3.0127,23 -0.82606,5.225 -2.40912,18.5 -3.51791,29.5 -3.27223,32.46288 -4.52478,40.91199 -5.93575,40.03996 -0.48219,-0.29802 -1.17846,1.82108 -1.54726,4.7091 -0.3688,2.88802 -1.09309,6.82594 -1.60953,8.75094 -0.51645,1.925 -1.38636,10.7 -1.93314,19.5 -2.08694,33.58792 -7.82098,72.78481 -12.18994,83.32838 C 181.13136,359.64514 178.8652,362 174.03394,362 c -1.97391,0 -4.62946,0.72882 -5.90123,1.6196 -1.7455,1.22259 -2.85527,1.37221 -4.52734,0.61036 -1.58638,-0.7228 -2.90433,-0.64033 -4.64376,0.29059 -1.74132,0.93192 -2.97308,1.00849 -4.35197,0.27054 -2.12495,-1.13724 -63.20367,-1.33088 -75.15696,-0.23827 C 73.52293,365.09484 54.3121,363.64544 53.24196,362.5753 52.28901,361.62234 49.06179,341.4716 47.54444,327 46.59293,317.925 44.91812,303.3 43.82264,294.5 41.67295,277.23143 38.14008,247.22684 35.52166,224 34.62262,216.025 32.29259,196.675 30.34382,181 28.39505,165.325 26.38709,148.225 25.8817,143 24.79612,131.77682 23.85843,124.37852 21.1288,105.5 20.01547,97.8 18.65772,87.675 18.11158,83 c -0.94708,-8.107036 -0.97063,-7.898996 -0.50943,4.5 0.26595,7.15 1.16072,19.525 1.98838,27.5 0.82766,7.975 1.90053,18.55 2.38415,23.5 0.48363,4.95 2.47887,24.525 4.43388,43.5 9.07447,88.07539 8.64681,83.29881 14.54911,162.5 0.57383,7.7 1.28849,15.4625 1.58814,17.25 0.75828,4.52339 -1.22452,4.12633 -2.49683,-0.5 -4.08368,-14.84893 -4.5033,-15.91983 -4.85597,-12.39298 -0.18463,1.84637 0.40689,9.04637 1.3145,16 0.9076,6.95364 1.99005,17.28082 2.40544,22.9493 1.09914,14.99911 2.24931,15.75388 25.69552,16.86189 11.0216,0.52086 13.63306,0.35778 16.40364,-1.02436 C 82.82445,402.73973 85.8397,402 87.71266,402 c 2.0156,0 3.15315,-0.40811 2.78734,-1 -0.33992,-0.55 -1.9203,-1 -3.51196,-1 -1.59167,0 -4.0055,-0.50646 -5.36407,-1.12547 -2.60244,-1.18575 -4.57092,-6.05888 -2.69945,-6.6827 2.36799,-0.78933 1.02498,-4.31033 -2.17452,-5.70096 -3.03838,-1.32061 -2.46862,-1.41476 8.75,-1.44594 6.6,-0.0183 14.7,0.46824 18,1.08128 8.10313,1.50534 35.84836,1.06092 41,-0.65673 4.6361,-1.54575 20.09691,-2.18583 26.15355,-1.08275 4.13049,0.75228 4.1458,0.77134 2.75715,3.43487 -0.84796,1.62646 -1.1582,3.95971 -0.78993,5.94081 0.55523,2.98676 0.33563,3.35683 -2.59891,4.37982 -2.62839,0.91626 -3.12382,1.54405 -2.75229,3.48758 0.2492,1.30361 0.028,2.37019 -0.49157,2.37019 -0.51957,0 -0.75717,0.5625 -0.52802,1.25 0.45753,1.37264 9.29821,1.68296 18.77225,0.65893 z M 141.37262,373.85128 C 144.04863,372.29664 160,371.41093 160,372.81698 c 0,0.67468 -2.9918,1.23046 -7.75,1.43971 -4.2625,0.18745 -8.875,0.4177 -10.25,0.51166 -2.26073,0.15448 -2.32078,0.0667 -0.62738,-0.91707 z M 83.75,374.35815 C 81.6875,374.01724 80,373.28176 80,372.72374 c 0,-1.21902 17.97337,-0.30523 22.5,1.14393 2.41343,0.77264 1.24029,0.97508 -6,1.03537 -4.95,0.0412 -10.6875,-0.20398 -12.75,-0.54489 z m 78.40498,-1.24121 c -0.98755,-0.62587 -0.62397,-1.0334 1.368,-1.53335 2.9879,-0.74992 4.0283,-0.28459 3.01814,1.34988 -0.78932,1.27714 -2.54463,1.35056 -4.38614,0.18347 z m -16.72809,28.96119 c 1.62545,-0.61445 1.68176,-0.82246 0.35997,-1.32968 -2.31672,-0.88901 -21.15031,0.40889 -19.62376,1.35235 1.60156,0.98982 16.63217,0.97213 19.26379,-0.0227 z m -28.64884,-0.24398 c -0.51655,-1.54965 -3.659,-1.81033 -4.02805,-0.33415 -0.1375,0.55 0.81262,1.15037 2.11138,1.33415 1.61892,0.22908 2.22156,-0.0853 1.91667,-1 z m -8.32076,0.23495 c 0.31644,-0.512 0.11397,-1.21604 -0.44993,-1.56455 -1.42561,-0.88108 -5.16454,0.43211 -4.46286,1.56745 0.74349,1.203 4.16876,1.20098 4.91279,-0.003 z M 160.5,401 c 0.33992,-0.55 -0.0835,-1 -0.94098,-1 -0.85746,0 -1.55902,0.45 -1.55902,1 0,0.55 0.42344,1 0.94098,1 0.51754,0 1.2191,-0.45 1.55902,-1 z"
       style="fill:#bbbbbb" />
    <path
       inkscape:connector-curvature="0"
       id="path6745"
       d="m 193.85045,404.04259 c 3.49275,-0.99821 7.06099,-2.52546 7.92943,-3.39389 0.86843,-0.86844 1.90925,-4.18217 2.31294,-7.36384 0.40368,-3.18167 1.89794,-14.97282 3.32057,-26.20255 1.42264,-11.22974 2.52648,-23.37974 2.453,-27 -0.13222,-6.51353 -0.14193,-6.53529 -0.92961,-2.08231 -1.7246,9.74967 -5.72117,25.18439 -6.80059,26.26381 -0.85315,0.85315 -1.0305,-0.23147 -0.7051,-4.31197 0.23912,-2.99851 0.71702,-10.40184 1.06199,-16.45184 0.34498,-6.05 1.29367,-17.75 2.1082,-26 0.81453,-8.25 2.36544,-24.225 3.44646,-35.5 1.08102,-11.275 2.84597,-28.6 3.9221,-38.5 1.07614,-9.9 2.67406,-27.45 3.55095,-39 0.87688,-11.55 1.79787,-22.575 2.04664,-24.5 0.8838,-6.83877 2.5451,-22.77766 4.45268,-42.72001 2.57482,-26.91799 4.77751,-48.009312 6.03428,-57.77999 0.56596,-4.4 2.12588,-19.925 3.46648,-34.5 2.92397,-31.789127 3.17646,-33.076367 6.83307,-34.83574 2.56317,-1.2332681 2.66689,-1.5002908 1.35196,-3.4806807 C 238.9226,5.5038621 237.20583,4.2373012 235.89086,3.8689995 234.57589,3.5006978 222.25,3.2005667 208.5,3.2020415 c -26.71997,0.00287 -28.36413,1.1136288 -3.26116,2.2031742 23.12393,1.0036493 25.48513,1.3705049 25.99521,4.0388285 0.23529,1.2307908 0.0186,3.3218868 -0.48159,4.6468788 -1.14177,3.024719 -3.39995,22.937267 -4.74924,41.878658 -0.56691,7.958269 -1.91415,19.658269 -2.99386,26 -2.40621,14.132908 -4.42835,29.089459 -7.03456,52.030419 -1.09345,9.625 -2.87006,23.8 -3.94802,31.5 -1.07796,7.7 -2.87739,22.775 -3.99872,33.5 -1.12133,10.725 -2.70399,24.9 -3.51702,31.5 -1.53647,12.4728 -3.94692,34.90016 -5.05146,47 -1.89247,20.73136 -4.74725,41.08953 -6.94126,49.5 -1.36303,5.225 -2.48725,10.48471 -2.49828,11.68825 -0.0261,2.85259 -4.94927,18.19486 -6.72004,20.94203 -2.53044,3.92573 -13.99849,5.66293 -34.8,5.27155 -5.5,-0.10348 -28.225,-0.27132 -50.5,-0.37297 -22.275,-0.10166 -41.62084,-0.41173 -42.99075,-0.68905 -2.21288,-0.44796 -2.62313,-1.27596 -3.67735,-7.42201 -2.13348,-12.43804 -4.21915,-28.6239 -5.81227,-45.10609 -0.8606,-8.90356 -2.00512,-18.57856 -2.54338,-21.5 C 42.01715,284.60625 40.10819,268.66358 33.9585,214.5 32.27244,199.65 29.7683,179.175 28.39375,169 27.0192,158.825 25.44712,145.775 24.90023,140 c -1.77457,-18.73897 -4.93332,-37.42905 -4.88711,-28.91667 0.0072,1.32917 1.81015,19.96667 4.00653,41.41667 2.19638,21.45 4.89329,48.45 5.99313,60 1.09985,11.55 2.68228,26.72794 3.5165,33.72876 0.83423,7.00082 1.93806,18.02582 2.45296,24.5 4.87195,61.25822 6.13898,76.96941 6.82158,84.58775 0.46175,5.15352 0.41242,9.04985 -0.11874,9.37812 -1.10777,0.68464 -2.50925,-1.33156 -3.26327,-4.69463 -0.98037,-4.3726 -3.61493,-11.14021 -4.13451,-10.62063 -0.27549,0.27548 0.45205,8.06532 1.61675,17.31076 1.1647,9.24543 2.2608,19.80891 2.43578,23.47439 0.19085,3.99805 0.97217,7.6627 1.9528,9.15934 2.17017,3.3121 8.91351,4.76592 23.95737,5.16505 10.78108,0.28603 13.56372,-0.24994 10.64926,-2.05117 -0.6209,-0.38374 -0.85315,-1.91831 -0.53276,-3.52025 0.3124,-1.56197 0.13438,-3.10793 -0.39559,-3.43547 C 74.38818,395.12187 74.5973,393.74564 75.5,392 c 1.61478,-3.12265 1.4243,-3.42845 -3.49537,-5.6113 -5.84485,-2.59335 18.72874,-3.02064 31.99537,-0.55634 8.54524,1.58729 33.75035,1.42374 39.5685,-0.25676 4.73036,-1.36631 14.89595,-1.98204 28.1565,-1.70544 L 177.95,384 l -0.71373,3.25 c -0.39254,1.7875 -0.7188,4.71812 -0.72499,6.51249 -0.0103,2.9866 -0.37702,3.36713 -4.33639,4.5 -4.76531,1.36346 -5.92212,3.06038 -2.42489,3.55706 2.75197,0.39084 3.0056,2.18045 0.30902,2.18045 -1.06754,0 -2.2191,0.45 -2.55902,1 -1.11063,1.79704 19.30853,1.05513 26.35045,-0.95741 z M 118,375 c 0,-0.55 2.1375,-0.99311 4.75,-0.98469 3.43547,0.0111 4.33489,0.28358 3.25,0.98469 -1.97706,1.27768 -8,1.27768 -8,0 z m -34.33952,-0.63551 c -9.82655,-0.84114 -6.95726,-2.65822 3.96251,-2.50941 10.05737,0.13707 20.6229,1.93804 19.74099,3.365 -0.56264,0.91038 -4.90303,0.75371 -23.7035,-0.85559 z m 55.11369,-0.53866 c 0.70098,-0.70098 5.7183,-1.34946 12.45,-1.60913 6.20171,-0.23923 11.70333,-0.83586 12.22583,-1.32583 1.62268,-1.52168 3.71499,-0.98727 3.36367,0.85913 -0.27275,1.43346 -1.77828,1.85249 -8.32332,2.31662 -15.49342,1.09869 -20.98855,1.03158 -19.71618,-0.24079 z M 142.5,402 c 1.66649,-0.71611 1.4482,-0.87115 -1.30902,-0.92971 -1.96611,-0.0418 -3.0582,0.33554 -2.69098,0.92971 0.72049,1.16578 1.28709,1.16578 4,0 z m -10.5,0 c 0,-0.55 -1.0125,-0.99311 -2.25,-0.98469 -1.81944,0.0124 -1.96296,0.20082 -0.75,0.98469 1.93876,1.25292 3,1.25292 3,0 z m -16.19167,-0.075 c -0.19708,-0.59125 -0.78583,-1.075 -1.30833,-1.075 -0.5225,0 -1.11125,0.48375 -1.30833,1.075 -0.19709,0.59125 0.39166,1.075 1.30833,1.075 0.91667,0 1.50542,-0.48375 1.30833,-1.075 z m -8,0 c -0.19708,-0.59125 -0.78583,-1.075 -1.30833,-1.075 -0.5225,0 -1.11125,0.48375 -1.30833,1.075 -0.19709,0.59125 0.39166,1.075 1.30833,1.075 0.91667,0 1.50542,-0.48375 1.30833,-1.075 z M 81.77805,400.83415 C 81.2615,399.2845 78.11905,399.02382 77.75,400.5 c -0.1375,0.55 0.81262,1.15037 2.11138,1.33415 1.61892,0.22908 2.22156,-0.0853 1.91667,-1 z M 13.5,8.1057317 C 16.12708,5.5288708 33.14617,4.0503675 62.30447,3.8659304 80.82673,3.7487703 82.56952,3.6088624 76.1225,2.7566444 67.11184,1.565544 10.53496,3.0487871 9.12037,4.5132002 8.5961,5.0559401 8.01704,6.4 7.83357,7.5 7.37382,10.256561 10.92071,10.635719 13.5,8.1057317 z M 167.75,3.2837456 c -1.5125,-0.2291247 -3.9875,-0.2291247 -5.5,0 -1.5125,0.2291246 -0.275,0.4165902 2.75,0.4165902 3.025,0 4.2625,-0.1874656 2.75,-0.4165902 z m -17,-0.018785 c -2.6125,-0.2059987 -6.8875,-0.2059987 -9.5,0 -2.6125,0.2059986 -0.475,0.3745429 4.75,0.3745429 5.225,0 7.3625,-0.1685443 4.75,-0.3745429 z m -16.5625,0.051925 c -0.72188,-0.2888706 -1.58437,-0.2533443 -1.91667,0.078947 -0.33229,0.3322917 0.25834,0.5686404 1.3125,0.5252193 1.16495,-0.047984 1.4019,-0.2849403 0.60417,-0.6041666 z m -8.4375,-0.03314 c -1.5125,-0.2291247 -3.9875,-0.2291247 -5.5,0 -1.5125,0.2291246 -0.275,0.4165902 2.75,0.4165902 3.025,0 4.2625,-0.1874656 2.75,-0.4165902 z"
       style="fill:#b3b3b3" />
    <path
       inkscape:connector-curvature="0"
       id="path6743"
       d="m 194.48121,403.66476 c 8.45174,-2.70511 8.94051,-3.50506 10.4876,-17.16476 0.62293,-5.5 2.00239,-17.18489 3.06548,-25.96642 2.39347,-19.77105 0.77189,-23.95161 -2.53429,-6.53358 -2.34837,12.37199 -4.51206,14.66636 -4.47945,4.75 0.0382,-11.62731 3.31054,-49.1261 9.44635,-108.25 1.3128,-12.65 2.68444,-29.75 3.0481,-38 0.36365,-8.25 1.29799,-19.95 2.07632,-26 0.77832,-6.05 2.53375,-21.575 3.90095,-34.5 2.81711,-26.63181 4.7945,-44.36082 7.52857,-67.5 1.03979,-8.8 2.59923,-25 3.46543,-36 1.9184,-24.362076 3.33997,-35.585702 4.71746,-37.245482 C 235.77637,10.564533 237.08979,10 238.12244,10 239.29252,10 240,9.2925184 240,8.1224447 240,4.0592852 237.84286,3.6486561 214.31537,3.2331679 188.08274,2.769908 184.2298,4.3613348 209.2169,5.3390453 c 8.95571,0.3504241 17.55709,0.926929 19.11418,1.2811219 3.55384,0.8083909 4.77448,3.8722568 3.12921,7.8543978 -1.53577,3.717098 -2.99249,15.315126 -4.96442,39.525435 -0.82875,10.175 -1.96297,21.2 -2.5205,24.5 -2.57467,15.239691 -6.08325,40.99572 -8.44587,62 -1.4229,12.65 -3.01931,25.475 -3.54759,28.5 -0.84223,4.82284 -7.05507,60.0795 -8.4327,75 -0.79617,8.62302 -4.50656,43.82605 -6.53477,62 -2.78908,24.9917 -10.05456,53.88074 -14.09457,56.04288 -4.30972,2.30649 -17.71511,2.91898 -66.11713,3.02088 -47.25603,0.0995 -63.2663,-0.38212 -64.21917,-1.93175 C 51.5785,361.4975 47.89841,336.48984 46.01559,318.5 c -1.15126,-11 -2.73971,-24.05 -3.52989,-29 -0.79017,-4.95 -3.48077,-26.93832 -5.9791,-48.86293 -5.27731,-46.31211 -10.39779,-86.86159 -11.05116,-87.51496 -0.77058,-0.77059 -0.53321,2.50737 2.09121,28.87789 1.39577,14.025 3.17835,32.25 3.96127,40.5 0.78292,8.25 2.30347,22.875 3.379,32.5 1.07553,9.625 2.67449,26.275 3.55325,37 0.87875,10.725 2.33487,27.375 3.23581,37 2.01871,21.56656 2.65959,33.68313 1.88797,35.69395 -0.93774,2.44371 -3.37714,-0.24385 -4.59317,-5.06044 -2.04403,-8.09619 -3.04625,-8.55109 -2.49732,-1.13351 1.30362,17.61566 4.25346,40.46603 5.40266,41.85073 1.54221,1.85826 3.8673,2.37465 16.44061,3.65138 C 68.91354,405.07815 72,404.40636 72,401.02383 c 0,-1.04819 -0.39859,-2.15214 -0.88575,-2.45322 -0.48716,-0.30108 -0.81099,-3.02764 -0.71962,-6.05902 C 70.5357,387.83109 70.29229,387 68.78038,387 c -2.96209,0 -1.99569,-1.70694 1.34462,-2.375 5.29374,-1.05875 27.8602,-0.70329 30.05901,0.47348 1.17644,0.62961 9.57832,1.26481 19.68426,1.48816 14.13391,0.31237 18.72283,0.0703 23.13173,-1.22046 4.58606,-1.34259 10.24875,-1.93296 21,-2.18938 0.825,-0.0197 4.98715,0.19303 9.24923,0.47269 l 7.74923,0.50846 -0.74923,2.67103 c -0.41208,1.46906 -0.72681,4.37256 -0.69942,6.45221 0.0429,3.25842 -0.30271,3.85843 -2.5,4.33981 -1.40239,0.30724 -4.12481,1.04993 -6.04981,1.65041 l -3.5,1.09178 4.5,1.23095 c 3.98621,1.0904 4.23345,1.31386 2.16546,1.95714 -3.88435,1.20829 -0.40318,2.42208 6.83454,2.38301 3.88668,-0.021 9.30679,-0.93344 13.48121,-2.26953 z M 87.42368,374.90599 C 76.1712,373.77905 75.13554,373.52908 76.41957,372.25 c 1.18983,-1.18524 22.65232,-0.73924 27.08043,0.56274 5.21621,1.5337 32.43774,1.5661 36.1849,0.0431 1.54831,-0.62931 7.3151,-1.26579 12.8151,-1.41441 5.5,-0.14862 10.96171,-0.57294 12.13714,-0.94292 2.28535,-0.71936 4.20495,1.064 2.72573,2.53228 -2.27078,2.25398 -62.13532,3.6583 -79.93919,1.87524 z m 82.76382,30.4109 c -0.72188,-0.28887 -1.58437,-0.25335 -1.91667,0.0789 -0.33229,0.33229 0.25834,0.56864 1.3125,0.52522 1.16495,-0.048 1.4019,-0.28494 0.60417,-0.60416 z M 115.5,402 c 0.33992,-0.55 -0.11008,-1 -1,-1 -0.88992,0 -1.33992,0.45 -1,1 0.33992,0.55 0.78992,1 1,1 0.21008,0 0.66008,-0.45 1,-1 z M 14,7.5 C 14.68469,6.675 16.50298,6 18.04066,6 21.57138,6 24,5.0855388 24,3.7561009 24,2.3335302 11.40325,3.4204406 9.49027,5.0080728 8.67062,5.6883219 8,6.8647893 8,7.6224447 8,9.4806783 12.43123,9.3902481 14,7.5 z M 62.25,3.2534929 c -6.1875,-0.1754473 -16.3125,-0.1754473 -22.5,0 C 33.5625,3.4289402 38.625,3.572488 51,3.572488 c 12.375,0 17.4375,-0.1435478 11.25,-0.3189951 z"
       style="fill:#ababab" />
    <path
       inkscape:connector-curvature="0"
       id="path6741"
       d="m 191.25861,404.43791 c 7.7536,-1.87889 11.62825,-4.02148 12.12728,-6.7061 1.09245,-5.877 5.64791,-46.71285 5.60363,-50.23181 -0.0697,-5.53993 -1.38325,-2.8904 -3.3661,6.78978 -1.63371,7.97567 -3.32601,12.34096 -4.37686,11.29011 -0.93999,-0.93998 -0.28138,-22.51367 1.26936,-41.57989 1.41738,-17.42668 2.72174,-30.9084 6.57899,-68 1.11532,-10.725 2.45945,-26.925 2.98695,-36 0.52751,-9.075 2.07119,-25.725 3.43041,-37 1.35922,-11.275 3.39706,-29.5 4.52854,-40.5 1.13147,-11 3.35895,-31.025 4.94994,-44.5 2.71659,-23.008394 3.49257,-31.15973 6.04501,-63.5 0.56431,-7.15 1.25606,-14.8 1.53721,-17 0.42379,-3.316053 0.31336,-3.680837 -0.64583,-2.133403 -1.55711,2.512058 -3.53229,17.588211 -4.93047,37.633403 -0.63299,9.075 -2.19921,23.025 -3.48048,31 -5.25851,32.73053 -15.45691,117.00134 -20.93634,173 -2.86882,29.31865 -6.45895,62.83303 -7.1468,66.7164 -2.49322,14.07583 -8.86994,36.60264 -10.79055,38.11941 -2.58315,2.04 -17.26885,4.23957 -28.6425,4.28996 -47.38184,0.20994 -86.39774,-0.30612 -94.164,-1.24549 l -9.664,-1.16891 -1.15893,-6.60569 C 50.37566,353.47256 49.42825,348.25 48.90772,345.5 c -0.52053,-2.75 -1.84824,-13.55 -2.95046,-24 -1.10223,-10.45 -3.31409,-28.45 -4.91524,-40 -1.60116,-11.55 -3.86272,-29.775 -5.0257,-40.5 -2.51774,-23.21872 -7.16208,-58.25144 -6.496,-49 1.71866,23.87103 3.71755,45.60099 4.95472,53.86281 0.79372,5.30046 1.92242,15.71219 2.50821,23.13719 0.58579,7.425 1.48368,17.1 1.9953,21.5 0.51162,4.4 1.42087,14.975 2.02054,23.5 0.59968,8.525 1.52735,19.55 2.0615,24.5 2.53632,23.50434 2.19582,29.61754 -1.47977,26.56707 -0.86439,-0.71738 -2.09955,-3.16344 -2.7448,-5.4357 -1.72471,-6.07362 -3.20931,-7.04456 -2.49441,-1.63137 0.32687,2.475 1.31497,11.475 2.19578,20 2.38177,23.05221 2.11128,21.95526 5.79328,23.49369 1.76636,0.73804 7.92706,1.6474 13.69044,2.02082 9.96505,0.64565 10.54102,0.57546 11.74591,-1.43147 1.1293,-1.88102 0.98619,-2.23836 -1.31671,-3.28763 -1.64891,-0.7513 -2.42742,-1.77494 -2.15171,-2.82924 0.2376,-0.90861 0.11694,-3.72807 -0.26814,-6.26548 -0.5176,-3.41057 -0.35623,-4.74544 0.61891,-5.11963 2.67671,-1.02715 32.0535,-0.81045 34.03698,0.25108 2.43096,1.30101 1.83662,1.27231 23.1291,1.117 9.52349,-0.0695 18.74849,-0.60674 20.5,-1.19396 2.94604,-0.9877 13.10006,-1.82463 20.18455,-1.66368 1.65,0.0375 6.21067,0.0355 10.13481,-0.004 8.10733,-0.0825 8.30976,0.1609 7.56495,9.09492 l -0.39033,4.68201 -4.90472,1.25704 c -5.65362,1.44898 -6.25105,2.65967 -1.75607,3.55867 2.77862,0.55572 2.95144,0.77392 1.47061,1.85673 -1.52776,1.11712 -1.53374,1.28237 -0.0668,1.84527 2.50871,0.96268 8.3986,0.58468 14.70621,-0.94382 z M 86.21059,374.9612 C 80.86976,374.38986 75.825,373.65292 75,373.32355 c -5.14538,-2.0542 20.04034,-3.11595 28,-1.18039 5.66617,1.37786 32.21852,1.26455 38.5961,-0.1647 2.63392,-0.59027 8.21734,-0.99059 12.4076,-0.8896 4.19025,0.101 8.51536,-0.29628 9.61135,-0.88284 2.40031,-1.28461 4.90651,-0.008 4.10161,2.08997 -0.44404,1.15716 -3.26348,1.65121 -12.39572,2.17212 -6.50152,0.37085 -12.27094,0.83171 -12.82094,1.02414 -2.39261,0.83707 -47.47631,0.41174 -56.28941,-0.53105 z m -22.93976,-4.56537 c 0.3323,-0.33229 1.19479,-0.36781 1.91667,-0.0789 0.79773,0.31922 0.56078,0.55618 -0.60417,0.60416 -1.05416,0.0434 -1.64479,-0.19293 -1.3125,-0.52522 z M 235.54213,9.9318263 c 0.3631,-0.5874955 1.27524,-0.8321488 2.027,-0.5436739 2.25716,0.8661556 2.80939,-1.4600247 0.80223,-3.3792568 C 236.75912,4.4672912 233.76529,4.1242433 216.75,3.5314088 204.84606,3.1166603 197,3.210115 197,3.7666518 c 0,0.507847 6.8625,1.2104516 15.25,1.5613436 17.33526,0.7252224 19.36893,1.1067865 20.06393,3.7644587 0.54683,2.0911089 2.19046,2.5184719 3.2282,0.8393722 z M 13,7.5 C 13.68469,6.675 15.65229,5.9931093 17.37244,5.9846872 19.0926,5.9762652 21.175,5.5331559 22,5 23.11586,4.278879 22.47561,3.9983564 19.5,3.9046218 11.09289,3.6397901 8,4.639688 8,7.6224447 8,9.4651355 11.43898,9.3809186 13,7.5 z M 60.71983,3.2637283 c -2.6291,-0.2066764 -6.6791,-0.204183 -9,0.00554 C 49.39892,3.4789932 51.55,3.6480921 56.5,3.6450445 61.45,3.641997 63.34892,3.4704047 60.71983,3.2637283 z"
       style="fill:#a3a3a3" />
    <path
       inkscape:connector-curvature="0"
       id="path6739"
       d="m 185.5,405.0327 c 13.73959,-1.58842 18.47735,-4.74318 18.51655,-12.32975 0.009,-1.76162 1.12958,-11.75295 2.48996,-22.20295 2.60829,-20.0361 3.03912,-26.52022 1.65775,-24.95 -0.45966,0.5225 -1.62779,4.775 -2.59584,9.45 -1.74815,8.44227 -2.87304,11 -4.83782,11 -2.03945,0 0.93046,-46.60014 6.182,-97 3.06457,-29.41115 3.95801,-39.0797 5.12857,-55.5 0.58812,-8.25 2.15465,-23.775 3.48117,-34.5 1.32652,-10.725 3.34711,-28.725 4.4902,-40 1.14308,-11.275 2.96407,-27.925 4.04664,-37 2.8231,-23.665548 3.76294,-33.081336 5.43996,-54.5 1.64736,-21.039884 1.73633,-23.068808 0.97842,-22.310891 -0.28735,0.287343 -1.39229,10.66121 -2.45544,23.053038 -1.06314,12.391828 -3.04945,29.444229 -4.414,37.894224 -3.52815,21.847989 -5.31318,34.802139 -7.62891,55.363629 -1.11498,9.9 -2.68346,22.5 -3.4855,28 -2.05459,14.08929 -4.97815,40.00467 -7.50197,66.5 -0.60249,6.325 -1.76876,18.025 -2.5917,26 -0.82295,7.975 -2.37194,23.275 -3.44222,34 -3.02234,30.28622 -4.37359,37.77286 -10.16637,56.32735 -2.59845,8.32293 -3.46794,9.97952 -5.67979,10.82136 C 177.14937,365.418 162.06516,366.0833 118,366.02054 71.23521,365.95392 54.18676,365.4365 52.69116,364.03842 51.43391,362.86315 49.19049,349.42037 46.50993,327 c -2.40937,-20.15212 -3.3239,-27.07743 -5.54637,-42 -0.61435,-4.125 -1.3365,-9.00848 -1.60476,-10.85218 -0.26827,-1.8437 -0.74197,-3.09798 -1.05267,-2.78728 -0.3107,0.3107 0.14699,8.34418 1.01709,17.85218 0.87009,9.508 2.08316,24.03728 2.69571,32.28728 0.61254,8.25 1.7399,20.53311 2.50523,27.29581 0.93226,8.23779 1.07443,13.12979 0.43076,14.82276 -1.50276,3.95256 -4.21198,2.64988 -5.95492,-2.86332 -0.825,-2.60961 -1.74157,-4.74711 -2.03683,-4.75 -0.29525,-0.003 -0.22447,2.80725 0.1573,6.24475 0.38178,3.4375 1.23611,12.325 1.89853,19.75 0.66241,7.425 1.65749,14.73452 2.21128,16.24339 1.18457,3.22752 4.40436,4.26257 15.99259,5.14106 7.11558,0.53942 7.81042,0.42186 8.83626,-1.49493 0.90752,-1.69572 0.7715,-2.31985 -0.73563,-3.37548 -1.43952,-1.00828 -1.836,-2.5374 -1.79027,-6.90457 C 63.56567,388.51223 63.14592,386 62.59599,386 c -0.62494,0 -0.60352,-0.39247 0.05748,-1.05347 1.57813,-1.57813 35.64873,-1.61915 41.84653,-0.0504 2.75,0.69607 6.35,1.19876 8,1.1171 1.65,-0.0817 8.40504,-0.0833 15.0112,-0.004 8.62756,0.10413 13.27572,-0.29528 16.5,-1.41782 2.46884,-0.85954 7.6613,-1.56935 11.5388,-1.57736 3.8775,-0.008 7.53921,-0.50376 8.13713,-1.10168 0.78284,-0.78285 1.2752,-0.78285 1.75902,0 0.40213,0.65065 4.2337,1.08713 9.54332,1.08713 8.4295,0 8.88889,0.11208 9.22186,2.25 0.19274,1.2375 0.0543,3.67773 -0.30771,5.42274 -0.37156,1.79119 -0.20524,3.62564 0.38196,4.21284 1.09449,1.09449 -2.14205,2.7291 -7.55639,3.81634 -3.88825,0.7808 -4.44762,2.29808 -0.84722,2.29808 3.36335,0 4.93499,1.47252 2.5489,2.38815 -1.46082,0.56057 -1.12292,2.77226 0.37815,2.47503 0.38004,-0.0753 3.39098,-0.44897 6.69098,-0.83048 z M 82.69155,374.94403 c -9.78465,-1.43674 -10.70114,-1.79255 -8.21334,-3.18868 2.34681,-1.31701 28.14095,-1.22832 31.67781,0.10892 4.04988,1.53119 53.99258,-0.28632 57.62349,-2.09704 1.84669,-0.92093 2.59806,-0.81823 3.95714,0.54085 2.83949,2.83948 0.17906,3.86112 -11.38238,4.37098 -5.96471,0.26305 -11.03453,0.66787 -11.26627,0.8996 -0.91355,0.91356 -55.64377,0.3569 -62.39645,-0.63463 z M 62.75,370.33772 c 0.6875,-0.27741 1.8125,-0.27741 2.5,0 0.6875,0.27741 0.125,0.50439 -1.25,0.50439 -1.375,0 -1.9375,-0.22698 -1.25,-0.50439 z M 35.39052,241 c -0.27921,-3.025 -0.90965,-8.425 -1.40098,-12 -0.86112,-6.26572 -0.87512,-6.19364 -0.38828,2 0.27778,4.675 0.90821,10.075 1.40098,12 0.74184,2.89804 0.80862,2.55407 0.38828,-2 z m -2.58547,-22.5 c -0.02038,-1.65 -0.2445,-2.20394 -0.49804,-1.23097 -0.25354,0.97297 -0.23687,2.32297 0.03705,3 0.27393,0.67703 0.48137,-0.11903 0.46099,-1.76903 z M 235,8.980948 c 0,-0.5876449 1.05835,-0.7534221 2.5,-0.391592 3.13111,0.7858596 3.2876,-0.9242939 0.27749,-3.032652 -1.63526,-1.1453802 -4.60781,-1.5381327 -11.25,-1.4864187 C 220.55347,4.1167972 218.17648,4.4312644 219.5,5 c 1.1,0.4726862 3.9169,0.8910578 6.25979,0.9297147 C 228.72025,5.9785614 230.54191,6.6100441 231.73203,8 233.59245,10.172809 235,10.595315 235,8.980948 z M 13.02427,7.2704437 C 14.31689,6.3650606 16.97773,5.3105763 18.93724,4.9271453 22.25658,4.2776294 22.14689,4.2221411 17.33179,4.1149991 11.3538,3.9819815 9,4.6693161 9,6.5479718 9,8.7430223 10.52977,9.0176603 13.02427,7.2704437 z M 214.5,4 C 211.68932,2.7922101 202,2.7922101 202,4 c 0,0.5811757 3.03648,0.9705628 7.25,0.9297147 C 214.22877,4.881448 215.87345,4.5901934 214.5,4 z"
       style="fill:#9b9b9b" />
    <path
       inkscape:connector-curvature="0"
       id="path6737"
       d="m 194,403.33172 c 7.40237,-2.00072 8.7583,-3.45063 9.52304,-10.18304 0.3529,-3.10678 1.72862,-14.19868 3.05716,-24.64868 1.32854,-10.45 2.4028,-19.9 2.38725,-21 -0.0485,-3.43459 -1.62413,0.34811 -2.91567,7 -1.64728,8.48409 -3.03321,11.64934 -4.94227,11.28732 -2.16154,-0.40989 -2.80064,-6.74508 -1.89527,-18.78732 2.42224,-32.21799 4.16236,-52.09191 6.2604,-71.5 2.36418,-21.87012 3.57443,-34.59318 5.56463,-58.5 0.57234,-6.875 2.57634,-26.225 4.45335,-43 4.40358,-39.35531 7.52418,-69.12308 7.44399,-71.00913 -0.12278,-2.88789 -1.71442,2.56964 -2.78534,9.55056 -0.58712,3.82721 -2.44704,18.65857 -4.13315,32.95857 -1.68611,14.3 -3.26423,26.675 -3.50693,27.5 -0.89667,3.04807 -6.77752,57.02728 -8.00757,73.5 -0.32855,4.4 -1.47413,15.875 -2.54572,25.5 -1.07159,9.625 -2.87514,26.275 -4.00788,37 -1.13275,10.725 -3.12232,23.775 -4.42127,29 -3.08262,12.39975 -8.76281,28.24469 -10.31024,28.7605 -0.71743,0.23914 -0.99551,-0.17804 -0.67516,-1.01286 0.44232,-1.15268 -0.54435,-1.34166 -5.24932,-1.00544 -3.18672,0.22773 -7.36903,0.90887 -9.29403,1.51364 -1.96636,0.61777 -9.41546,1.01972 -17,0.91733 -91.0188,-1.22884 -97.53929,-1.38432 -98.507,-2.34898 -1.10595,-1.10245 -5.15931,-24.9903 -7.52106,-44.32419 -1.20935,-9.9 -2.43517,-18.225 -2.72406,-18.5 -0.62574,-0.59565 0.42832,21.20352 1.74071,36 2.26873,25.57875 2.2643,25.41113 0.72546,27.44445 -1.42591,1.88409 -1.56847,1.83838 -4.59282,-1.47286 -3.51337,-3.84665 -3.49866,-3.88275 -2.04791,5.02841 0.58201,3.575 1.40105,11.58494 1.82009,17.79986 0.99244,14.71945 1.79135,15.69642 12.69994,15.53036 8.69788,-0.1324 10.70333,-1.23992 7.88476,-4.3544 -1.3819,-1.52699 -1.79975,-3.28907 -1.58975,-6.70399 0.23713,-3.85604 -0.10679,-4.94171 -2.05174,-6.47696 -2.32692,-1.83676 -2.30756,-1.84378 4.66338,-1.69102 3.85,0.0844 14.08764,0.069 22.75031,-0.0341 8.66268,-0.10309 16.2998,0.15216 16.97139,0.56723 0.67158,0.41506 2.44186,0.66164 3.93394,0.54794 1.49209,-0.11369 2.99402,0.24818 3.33764,0.80416 0.84772,1.37165 5.2202,1.2835 6.08931,-0.12275 0.47218,-0.76401 3.09978,-0.95218 8.05901,-0.57711 4.23104,0.31999 7.3584,0.16428 7.3584,-0.36637 0,-0.50759 1.0125,-0.88736 2.25,-0.84394 1.2375,0.0434 1.6847,0.30685 0.99377,0.58541 -2.0995,0.84644 -0.31134,2.33564 2.80452,2.33564 1.61164,0 5.27989,-0.89279 8.15166,-1.98398 3.94369,-1.49848 6.50855,-1.83269 10.48138,-1.36576 3.94254,0.46337 5.87054,0.21816 7.69762,-0.97899 2.16775,-1.42036 2.57615,-1.4303 3.68868,-0.0898 0.98834,1.19088 2.90978,1.40829 9.1502,1.03537 9.56323,-0.57149 14.14192,0.6743 13.21476,3.59553 -0.34807,1.09666 -0.72704,3.82642 -0.84216,6.06613 -0.21878,4.25657 -0.93494,4.89968 -6.88133,6.17946 -3.28722,0.70747 -2.67385,2.54202 0.84992,2.54202 3.25211,0 3.0971,1.35465 -0.30902,2.70058 -2.54437,1.0054 -2.37613,1.08782 2.25,1.10217 2.75,0.009 7.475,-0.65343 10.5,-1.47103 z M 92.10108,375.91697 c -9.0194,-0.59384 -17.4569,-1.48195 -18.75,-1.97359 -7.3578,-2.79743 3.03741,-4.23683 28.14892,-3.89771 39.50918,0.53356 60.50809,0.19251 61.95243,-1.00619 1.07084,-0.88872 1.94362,-0.89789 3.55162,-0.0373 1.17254,0.62752 4.01381,1.00507 6.31392,0.839 2.40308,-0.17351 4.05607,0.11509 3.88591,0.67844 -0.16286,0.53921 -1.40086,0.83562 -2.75111,0.65868 -1.35047,-0.17697 -3.57083,0.55602 -4.93517,1.62921 -1.84225,1.44911 -4.22122,1.99096 -9.2489,2.10659 -3.72278,0.0856 -11.7187,0.52202 -17.7687,0.96979 -16.5239,1.22294 -32.17095,1.23322 -50.39892,0.0331 z m -29.98321,-4.82296 c -1.09752,-0.69511 -0.97209,-1.0055 0.60912,-1.50736 2.37409,-0.75351 5.49105,0.25153 4.70825,1.51813 -0.70167,1.13533 -3.51678,1.12962 -5.31737,-0.0108 z M 13,6.5 C 14.04007,5.2467977 13.89568,5 12.12244,5 10.90249,5 10,5.6378215 10,6.5 10,7.325 10.3949,8 10.87756,8 11.36021,8 12.31531,7.325 13,6.5 z M 237,6.1885877 c 0,-1.3850722 -3.70984,-2.168423 -10,-2.1115467 -3.79016,0.034271 -4.87824,0.2985661 -3.5,0.8501507 3.39022,1.356797 13.5,2.3014222 13.5,1.261396 z"
       style="fill:#878787" />
    <path
       inkscape:connector-curvature="0"
       id="path6735"
       d="m 195.43466,402.54021 c 5.7592,-1.54617 7.56346,-3.56756 7.57028,-8.48134 0.003,-1.95738 1.12772,-11.37548 2.5,-20.92912 2.92206,-20.34297 3.07071,-25.47309 0.45288,-15.62975 -1.14516,4.30596 -2.69251,7.67351 -4.02051,8.75 -2.52636,2.04788 -9.33614,2.44 -8.68339,0.5 0.23602,-0.70147 1.58907,-1.10889 3.08333,-0.92843 2.811,0.33946 3.41561,-0.66871 1.53117,-2.55315 -0.84212,-0.84212 -0.83104,-4.53859 0.0433,-14.45 0.64619,-7.32513 1.84913,-21.19342 2.6732,-30.81842 1.99626,-23.31583 4.24228,-45.90805 5.41814,-54.5 0.5269,-3.85 1.87774,-18.025 3.00187,-31.5 1.12414,-13.475 2.48885,-28.325 3.03269,-33 0.54385,-4.675 1.2167,-12.325 1.49522,-17 0.70386,-11.81432 -1.02872,-7.30591 -2.53406,6.59397 -0.64961,5.99832 -1.79689,16.53103 -2.54951,23.40603 -0.75262,6.875 -1.86053,18.125 -2.46202,25 -0.60149,6.875 -1.76856,19.025 -2.59348,27 -0.82492,7.975 -1.908,18.55 -2.40684,23.5 -4.09803,40.66484 -4.99065,46.009 -10.65529,63.79322 C 185.90164,365.20129 184.50163,368 181.97432,368 180.88844,368 180,367.52853 180,366.95228 c 0,-0.65029 -2.37079,-0.93478 -6.25,-0.75 -7.71369,0.36744 -7.85037,2.18529 -0.19546,2.59959 3.78313,0.20476 5.45067,0.68734 5.18317,1.5 -0.2169,0.65897 -1.48412,1.33674 -2.81604,1.50616 -1.33192,0.16942 -3.97419,1.02074 -5.87171,1.89184 -1.90266,0.87346 -6.612,1.67367 -10.5,1.78417 C 155.67248,375.59424 141.7,376.047 128.5,376.49017 95.76777,377.58911 70.57102,375.58788 60.7375,371.1082 53.90316,367.99479 51.24759,364.93878 50.53861,359.37141 50.19742,356.69213 48.92415,350.225 47.70913,345 c -1.9707,-8.47467 -2.2471,-9.06828 -2.56092,-5.5 -0.19349,2.2 0.21707,8.38944 0.91234,13.75432 0.69528,5.36488 0.97308,10.04538 0.61734,10.40112 -0.35574,0.35574 0.13299,1.21701 1.08608,1.91392 0.95309,0.69692 1.42827,1.57173 1.05596,1.94404 -1.17505,1.17506 -6.82701,-0.60463 -8.86402,-2.7911 C 38.88016,363.56762 38,362.95217 38,363.35463 c 0,0.40247 0.69409,7.0244 1.54242,14.71541 0.84834,7.69101 1.30372,14.36989 1.01198,14.84194 -0.88552,1.4328 1.5353,7.06566 3.48504,8.10913 2.38764,1.27782 9.66685,1.26314 10.46056,-0.0211 0.33992,-0.55 1.74303,-1 3.11803,-1 3.30491,0 2.22868,-1.58066 -1.59722,-2.34584 -3.23442,-0.64688 -3.01238,0.0988 -3.39581,-11.40416 -0.12399,-3.71956 -0.0905,-3.7525 4.125,-4.0575 2.89371,-0.20936 4.25,-0.76784 4.25,-1.75 0,-2.20814 7.82828,-1.32467 8.324,0.93942 0.0968,0.44211 15.476,0.96307 34.176,1.15768 23.13577,0.24077 33.92012,0.6904 33.75,1.40712 -0.34328,1.44627 1.17381,1.32087 5.40424,-0.44672 2.05611,-0.8591 6.64727,-1.5 10.74538,-1.5 5.04754,0 7.85331,-0.48886 9.52465,-1.65951 2.20725,-1.54602 2.45228,-1.54602 3.58275,0 1.25298,1.71355 8.08146,2.4207 7.03568,0.72861 -1.07716,-1.74289 1.57629,-2.27139 3.34905,-0.66706 0.97115,0.87888 3.36155,1.59796 5.31199,1.59796 1.95044,0 4.96814,0.28438 6.70599,0.63195 l 3.15973,0.63194 -0.66503,6.11806 c -0.77995,7.17518 -1.37131,8.12609 -5.67686,9.12834 -2.50738,0.58367 -2.7813,0.84676 -1.22757,1.17906 4.73981,1.01372 5.08562,1.4076 2.5,2.84753 l -2.5,1.39225 3,-0.0321 c 1.65,-0.0176 5.2206,-0.62822 7.93466,-1.35686 z M 188.24499,374.75 C 188.72168,373.30257 193,372.41522 193,373.76378 193,375.19184 191.82546,376 189.75,376 c -1.08622,0 -1.7383,-0.5416 -1.50501,-1.25 z m -38.79854,-5.65228 c 1.80187,-0.70514 1.76474,-0.80952 -0.5,-1.40537 -1.34555,-0.35401 -4.92145,-0.34609 -7.94645,0.0176 -4.45994,0.53622 -5.02725,0.79642 -3,1.37598 3.32498,0.95056 9.03252,0.95644 11.44645,0.0118 z M 80.5,369.03705 c 3.01727,-1.24067 0.57717,-1.78015 -11.35091,-2.50956 -8.27007,-0.50571 -10.2643,-0.37107 -9.92005,0.66978 0.72595,2.19491 16.98685,3.60136 21.27096,1.83978 z m 16.27809,-1.2331 c -2.4802,-0.65927 -4.64875,-0.65113 -6.5,0.0244 -2.36617,0.86343 -1.81431,1.01013 3.72191,0.98934 6.14714,-0.0231 6.29795,-0.0781 2.77809,-1.01375 z M 214.768,170 c 0,-1.925 -0.2058,-2.7125 -0.45733,-1.75 -0.25152,0.9625 -0.25152,2.5375 0,3.5 0.25153,0.9625 0.45733,0.175 0.45733,-1.75 z m 1.69376,-10.80923 c 0.41422,-4.02007 0.51938,-7.54296 0.2337,-7.82865 -0.69435,-0.69434 -2.03948,12.12311 -1.44957,13.81258 0.25451,0.72892 0.80166,-1.96385 1.21587,-5.98393 z M 217.80505,145.5 c -0.0204,-1.65 -0.2445,-2.20394 -0.49804,-1.23097 -0.25354,0.97297 -0.23687,2.32297 0.0371,3 0.27393,0.67703 0.48137,-0.11903 0.46099,-1.76903 z"
       style="fill:#777777" />
    <path
       inkscape:connector-curvature="0"
       id="path6733"
       d="m 198.9949,400.70827 c 1.96893,-0.99615 2.63994,-2.31063 3.1829,-6.23526 1.00656,-7.27558 3.82775,-29.86441 3.82476,-30.62422 -10e-4,-0.35817 -1.40015,0.65433 -3.10832,2.25 -2.41328,2.25435 -4.04835,2.90121 -7.33333,2.90121 -2.32517,0 -4.52856,-0.30098 -4.89643,-0.66885 -1.05469,-1.05469 2.43495,-4.33115 4.61295,-4.33115 1.52112,0 1.7177,-0.30094 0.86654,-1.32653 -0.80201,-0.96636 -0.78633,-3.67776 0.0578,-9.98645 0.63727,-4.76296 0.81385,-9.00352 0.39239,-9.42347 -1.19347,-1.1892 -4.45369,3.48244 -5.63962,8.08111 -2.27312,8.81454 -5.57052,16.15411 -7.74433,17.23788 -1.20803,0.60226 -3.00626,1.82793 -3.99609,2.72371 -0.98982,0.89577 -4.25542,2.25715 -7.25688,3.02528 -7.32087,1.87355 -7.41703,4.16847 -0.17466,4.16847 3.49062,0 5.58252,0.48321 6.16686,1.42449 0.62921,1.01358 2.53921,1.35754 6.62126,1.19239 3.15532,-0.12766 7.00565,0.29341 8.55629,0.93571 2.76609,1.14575 2.80788,1.28377 2.21237,7.30761 -0.33383,3.37689 -1.2326,6.86222 -1.99726,7.74518 -1.67998,1.93989 -0.76095,4.9003 1.51492,4.87988 0.90365,-0.008 2.76571,-0.58275 4.13791,-1.27699 z M 185.61275,376.3604 c -5.87389,-0.80511 -5.53287,-2.55254 0.73827,-3.78296 3.74513,-0.7348 5.4198,-0.58029 8.22882,0.75924 1.97753,0.94302 3.23876,2.14781 2.87114,2.74264 -1.02009,1.65054 -4.82948,2.78786 -6.05187,1.80682 -0.60549,-0.48594 -3.20935,-1.17252 -5.78636,-1.52574 z M 51.67903,400.49275 c 1.56994,-1.14797 1.57783,-1.37875 0.09772,-2.85886 -1.22104,-1.22103 -1.56981,-3.36479 -1.44342,-8.87199 L 50.5,381.5 l 4.75,0.24247 c 3.6046,0.184 4.75,-0.10894 4.75,-1.21482 0,-2.82597 -7.99819,-4.95763 -9.49773,-2.53132 -0.38619,0.62486 -1.75598,0.40671 -3.67392,-0.5851 -4.3014,-2.22434 -2.42478,-3.53738 5.56563,-3.89416 4.81932,-0.21518 6.60602,0.0476 6.60602,0.97154 0,3.32884 2.59066,4.03046 24,6.49983 7.85451,0.90595 39.80253,1.20165 55,0.50907 3.575,-0.16292 9.91101,-0.31994 14.08003,-0.34894 6.10152,-0.0424 8.05205,-0.44821 10,-2.08033 2.06952,-1.73398 2.20274,-2.17844 0.91997,-3.06912 -0.825,-0.57283 -2.85,-0.80901 -4.5,-0.52485 -9.50804,1.63744 -44.12137,2.49142 -61.33687,1.51328 C 65.43062,375.18461 65.61372,375.20978 60,371.87794 c -0.825,-0.48965 -2.95373,-1.64166 -4.73051,-2.56002 -3.69938,-1.9121 -4.76663,-4.49873 -6.26256,-15.17821 -1.31981,-9.42217 -3.40897,-13.28747 -2.50772,-4.63971 1.38,13.24148 1.80697,15.50922 3.12626,16.60413 0.75599,0.62742 1.37453,1.53566 1.37453,2.01831 0,1.49296 -6.42832,0.96628 -8.84216,-0.72444 -1.25795,-0.8811 -2.48048,-1.40869 -2.71674,-1.17243 -0.23626,0.23626 0.004,3.76966 0.53379,7.852 0.52985,4.08233 0.98389,10.57243 1.00898,14.42243 0.02509,3.85 0.60604,8.10748 1.291,9.46108 1.49845,2.96116 6.84748,4.40116 9.40416,2.53167 z M 176.75,367.31067 c -0.9625,-0.25152 -2.5375,-0.25152 -3.5,0 -0.9625,0.25153 -0.175,0.45733 1.75,0.45733 1.925,0 2.7125,-0.2058 1.75,-0.45733 z"
       style="fill:#505050" />
  </g>
</svg>
