<?xml version="1.0" encoding="UTF-8" standalone="no"?>
<!-- Created with Inkscape (http://www.inkscape.org/) -->

<svg
   xmlns:dc="http://purl.org/dc/elements/1.1/"
   xmlns:cc="http://creativecommons.org/ns#"
   xmlns:rdf="http://www.w3.org/1999/02/22-rdf-syntax-ns#"
   xmlns:svg="http://www.w3.org/2000/svg"
   xmlns="http://www.w3.org/2000/svg"
   xmlns:sodipodi="http://sodipodi.sourceforge.net/DTD/sodipodi-0.dtd"
   xmlns:inkscape="http://www.inkscape.org/namespaces/inkscape"
   width="144.00131"
   height="415.01202"
   id="svg10013"
   sodipodi:version="0.32"
   inkscape:version="0.48.1 "
   version="1.0"
   sodipodi:docname="Zombie_Glass.svg">
  <defs
     id="defs10015" />
  <sodipodi:namedview
     id="base"
     pagecolor="#ffffff"
     bordercolor="#666666"
     borderopacity="1.0"
     gridtolerance="10000"
     guidetolerance="10"
     objecttolerance="10"
     inkscape:pageopacity="0.0"
     inkscape:pageshadow="2"
     inkscape:zoom="1.4"
     inkscape:cx="212.72995"
     inkscape:cy="214.40188"
     inkscape:document-units="px"
     inkscape:current-layer="layer1"
     inkscape:window-width="1600"
     inkscape:window-height="848"
     inkscape:window-x="-8"
     inkscape:window-y="-8"
     showgrid="false"
     fit-margin-top="0"
     fit-margin-left="0"
     fit-margin-right="0"
     fit-margin-bottom="0"
     inkscape:window-maximized="1" />
  <metadata
     id="metadata10018">
    <rdf:RDF>
      <cc:Work
         rdf:about="">
        <dc:format>image/svg+xml</dc:format>
        <dc:type
           rdf:resource="http://purl.org/dc/dcmitype/StillImage" />
      </cc:Work>
    </rdf:RDF>
  </metadata>
  <g
     inkscape:label="Layer 1"
     inkscape:groupmode="layer"
     id="layer1"
     transform="translate(349.54133,9.542069)">
    <g
       id="g3046">
      <path
         id="path3044"
         d="m -249.03125,402.875 c -0.39887,0.15961 -0.54264,0.30111 -0.4375,0.40625 0.10514,0.10514 0.44878,0.19475 1.03125,0.21875 0.52708,0.0217 0.94961,-0.0298 1.1875,-0.125 0.23789,-0.0952 0.29115,-0.2401 0.125,-0.40625 -0.3323,-0.33225 -1.18437,-0.38262 -1.90625,-0.0937 z"
         style="fill:#fcfcfc"
         inkscape:connector-curvature="0" />
      <path
         id="path3042"
         d="m -249.03125,402.875 c 0.72188,-0.28887 1.57395,-0.2385 1.90625,0.0937 0.16615,0.16615 0.11289,0.31105 -0.125,0.40625 -0.23789,0.0952 -0.66042,0.14671 -1.1875,0.125 -0.58247,-0.024 -0.92611,-0.11361 -1.03125,-0.21875 -0.10514,-0.10514 0.0386,-0.24664 0.4375,-0.40625 z"
         style="fill:#fcfcfc"
         inkscape:connector-curvature="0" />
      <path
         id="path3040"
         d="m -241.09375,401.90625 c -0.34375,0.1387 -0.38281,0.25233 -0.15625,0.34375 0.22656,0.0914 0.71875,0.15625 1.40625,0.15625 0.6875,0 1.14844,-0.0648 1.375,-0.15625 0.22656,-0.0914 0.21875,-0.20505 -0.125,-0.34375 -0.6875,-0.27741 -1.8125,-0.27741 -2.5,0 z"
         style="fill:#fcfcfc"
         inkscape:connector-curvature="0" />
      <path
         id="path3038"
         d="m -241.09375,401.90625 c 0.6875,-0.27741 1.8125,-0.27741 2.5,0 0.34375,0.1387 0.35156,0.25233 0.125,0.34375 -0.22656,0.0914 -0.6875,0.15625 -1.375,0.15625 -0.6875,0 -1.17969,-0.0648 -1.40625,-0.15625 -0.22656,-0.0914 -0.1875,-0.20505 0.15625,-0.34375 z"
         style="fill:#fcfcfc"
         inkscape:connector-curvature="0" />
      <path
         id="path3036"
         d="m -243.96875,389.4375 c -2.08318,-0.25341 -5.89312,-0.18028 -11.375,0.21875 -6.05,0.44039 -18.2,0.8641 -27,0.9375 -5.31392,0.0444 -9.16242,0.13646 -11.5,0.3125 -1.16879,0.088 -1.95507,0.19192 -2.375,0.3125 -0.20996,0.0603 -0.3216,0.11911 -0.34375,0.1875 -0.0222,0.0684 0.0527,0.1423 0.21875,0.21875 0.61923,0.28509 4.12198,0.49337 9.09375,0.59375 4.97177,0.10038 11.41386,0.0891 17.8125,0.0312 6.39864,-0.0579 12.75639,-0.18533 17.65625,-0.375 4.89986,-0.18967 8.33709,-0.42376 8.8125,-0.71875 0.7181,-0.44558 0.98179,-0.80669 0.8125,-1.09375 -0.16929,-0.28706 -0.77091,-0.4983 -1.8125,-0.625 z"
         style="fill:#fcfcfc"
         inkscape:connector-curvature="0" />
      <path
         id="path3034"
         d="m -243.96875,389.4375 c 1.04159,0.1267 1.64321,0.33794 1.8125,0.625 0.16929,0.28706 -0.0944,0.64817 -0.8125,1.09375 -0.47541,0.29499 -3.91264,0.52908 -8.8125,0.71875 -4.89986,0.18967 -11.25761,0.31712 -17.65625,0.375 -6.39864,0.0579 -12.84073,0.0691 -17.8125,-0.0312 -4.97177,-0.10038 -8.47452,-0.30866 -9.09375,-0.59375 -0.16606,-0.0765 -0.2409,-0.15036 -0.21875,-0.21875 0.0222,-0.0684 0.13379,-0.12721 0.34375,-0.1875 0.41993,-0.12058 1.20621,-0.22448 2.375,-0.3125 2.33758,-0.17604 6.18608,-0.26815 11.5,-0.3125 8.8,-0.0734 20.95,-0.49711 27,-0.9375 5.48188,-0.39903 9.29182,-0.47216 11.375,-0.21875 z"
         style="fill:#fcfcfc"
         inkscape:connector-curvature="0" />
      <path
         id="path3032"
         d="m -340.5625,290.1875 c -0.0914,0.22656 -0.125,0.6875 -0.125,1.375 0,0.6875 0.0336,1.17969 0.125,1.40625 0.0914,0.22656 0.2363,0.1875 0.375,-0.15625 0.27741,-0.6875 0.27741,-1.8125 0,-2.5 -0.1387,-0.34375 -0.28358,-0.35156 -0.375,-0.125 z"
         style="fill:#fcfcfc"
         inkscape:connector-curvature="0" />
      <path
         id="path3030"
         d="m -340.5625,290.1875 c 0.0914,-0.22656 0.2363,-0.21875 0.375,0.125 0.27741,0.6875 0.27741,1.8125 0,2.5 -0.1387,0.34375 -0.28358,0.38281 -0.375,0.15625 -0.0914,-0.22656 -0.125,-0.71875 -0.125,-1.40625 0,-0.6875 0.0336,-1.14844 0.125,-1.375 z"
         style="fill:#fcfcfc"
         inkscape:connector-curvature="0" />
      <path
         id="path3028"
         d="m -209.34375,-1.4375 c -0.24525,-0.146827 -0.50316,-0.09713 -0.71875,0.0625 -0.21559,0.15963 -0.38125,0.45054303 -0.46875,0.84375 -0.0875,0.39320697 -0.10777,0.883596 0.0312,1.4375 0.16056,0.639733 0.154,8.0015625 0,19.375 -0.154,11.373437 -0.44953,26.758483 -0.84375,43.375 -0.95418,40.21983 -1.77009,72.81858 -2.53125,100.65625 -0.76116,27.83767 -1.47057,50.89036 -2.25,72.09375 -0.77943,21.20339 -1.61601,40.52676 -2.625,60.84375 -1.00899,20.31699 -2.17516,41.63403 -3.625,66.8125 -0.26869,4.66604 -0.58228,8.60503 -0.9375,11.75 -0.35522,3.14497 -0.75738,5.51038 -1.1875,7.03125 -0.12569,0.44442 -0.64444,1.00418 -1.375,1.625 -0.73056,0.62082 -1.67314,1.3007 -2.6875,1.90625 -1.01436,0.60555 -2.0854,1.16389 -3.0625,1.5625 -0.9771,0.39861 -1.84998,0.625 -2.46875,0.625 -0.3965,0 -0.74248,0.29882 -0.96875,0.78125 -0.22627,0.48243 -0.3555,1.14847 -0.34375,1.96875 0.01,0.66433 0.0194,1.16836 -0.0937,1.5625 -0.11319,0.39414 -0.33261,0.68696 -0.75,0.90625 -0.83478,0.43859 -2.45326,0.62618 -5.59375,0.9375 -3.575,0.35439 -18.3125,0.98485 -32.75,1.40625 -10.34659,0.30199 -16.9304,0.55896 -20.90625,0.875 -1.98793,0.15802 -3.31197,0.33403 -4.15625,0.53125 -0.84428,0.19722 -1.1875,0.42728 -1.1875,0.6875 0,0.29719 0.0561,0.54673 0.25,0.78125 0.19391,0.23452 0.50551,0.44863 0.96875,0.625 0.92648,0.35273 2.48127,0.60275 4.9375,0.75 4.91246,0.29451 13.47386,0.21666 28.125,-0.0937 12.43493,-0.26346 19.72694,-0.37523 24.0625,-0.25 2.16778,0.0626 3.59364,0.19136 4.5625,0.375 0.96886,0.18364 1.49193,0.42943 1.8125,0.75 0.41014,0.41015 0.96284,0.71946 1.53125,0.90625 0.56841,0.18679 1.14148,0.25175 1.59375,0.125 0.90455,-0.25349 3.47266,-0.74567 5.71875,-1.09375 1.57054,-0.24339 2.98014,-0.6028 4.21875,-1.0625 1.23861,-0.4597 2.32415,-1.02844 3.25,-1.71875 0.92585,-0.69031 1.68024,-1.50228 2.3125,-2.4375 0.63226,-0.93522 1.14214,-1.99307 1.5,-3.1875 0.38262,-1.27708 0.61284,-2.30935 0.71875,-3.125 0.10591,-0.81565 0.0657,-1.41696 -0.125,-1.8125 -0.19071,-0.39554 -0.524,-0.57702 -1.03125,-0.59375 -0.50725,-0.0167 -1.18755,0.14797 -2.03125,0.46875 -1.14706,0.43611 -2.11803,0.66431 -2.875,0.75 -0.75697,0.0857 -1.27703,0.0272 -1.53125,-0.15625 -0.25422,-0.18345 -0.23617,-0.5037 0.125,-0.875 0.36117,-0.3713 1.06705,-0.80339 2.15625,-1.28125 0.50905,-0.22333 0.89862,-0.46029 1.21875,-0.8125 0.32013,-0.35221 0.5552,-0.81702 0.75,-1.53125 0.3896,-1.42845 0.60519,-3.81834 0.875,-8.09375 0.18179,-2.88057 0.44588,-5.29112 0.75,-7 0.30412,-1.70888 0.64828,-2.72651 1,-2.84375 0.31727,-0.10576 0.60339,-0.31596 0.8125,-0.5625 0.20911,-0.24654 0.34375,-0.51293 0.34375,-0.78125 0,-0.26832 -0.13125,-0.46643 -0.3125,-0.53125 -0.18125,-0.0648 -0.4125,-0.0137 -0.6875,0.15625 -0.15616,0.0965 -0.31447,0.0401 -0.4375,-0.15625 -0.12303,-0.19632 -0.22654,-0.53229 -0.3125,-1 -0.17192,-0.93541 -0.25,-2.3889 -0.25,-4.28125 0,-1.85752 0.10873,-3.29081 0.28125,-4.28125 0.17252,-0.99044 0.4051,-1.5352 0.65625,-1.625 0.25115,-0.0898 0.5141,0.28059 0.75,1.125 0.2359,0.84441 0.43572,2.15656 0.5625,3.96875 0.16035,2.29211 0.26596,3.39839 0.34375,3.125 0.0778,-0.27339 0.13799,-1.92296 0.21875,-5.0625 0.0509,-1.97752 -0.001,-3.81822 -0.125,-5.21875 -0.12368,-1.40053 -0.32398,-2.35258 -0.5625,-2.5 -0.297,-0.18356 -0.57675,-0.83338 -0.8125,-1.78125 -0.23575,-0.94787 -0.42302,-2.19395 -0.5625,-3.5625 -0.27895,-2.73709 -0.34753,-5.98577 -0.0312,-8.34375 0.15328,-1.14284 0.38446,-2.02418 0.65625,-2.59375 0.27179,-0.56957 0.60348,-0.81212 0.90625,-0.625 0.17243,0.10657 0.30759,0.0165 0.40625,-0.25 0.0987,-0.26653 0.16243,-0.69937 0.1875,-1.34375 0.0501,-1.28877 -0.0694,-3.3588 -0.3125,-6.1875 -0.39722,-4.62212 -0.65825,-9.30625 -0.59375,-10.40625 0.0645,-1.1 0.24287,-11.45 0.40625,-23 0.16337,-11.55 0.7972,-26.4 1.40625,-33 0.44576,-4.83056 1.02368,-23.08821 1.625,-47.8125 0.60132,-24.72429 1.22884,-55.90248 1.75,-86.625 0.52116,-30.722523 0.95096,-60.987255 1.15625,-83.8125 0.10264,-11.412622 0.14552,-20.948355 0.125,-27.78125 -0.0205,-6.8328954 -0.1081,-10.95252012 -0.28125,-11.46875 -0.17649,-0.5261639 -0.411,-0.853173 -0.65625,-1 z"
         style="fill:#fcfcfc"
         inkscape:connector-curvature="0" />
      <path
         id="path3026"
         d="m -209.34375,-1.4375 c 0.24525,0.146827 0.47976,0.4738361 0.65625,1 0.17315,0.51622988 0.26073,4.6358546 0.28125,11.46875 0.0205,6.832895 -0.0224,16.368628 -0.125,27.78125 -0.20529,22.825245 -0.63509,53.089977 -1.15625,83.8125 -0.52116,30.72252 -1.14868,61.90071 -1.75,86.625 -0.60132,24.72429 -1.17924,42.98194 -1.625,47.8125 -0.60905,6.6 -1.24288,21.45 -1.40625,33 -0.16338,11.55 -0.34175,21.9 -0.40625,23 -0.0645,1.1 0.19653,5.78413 0.59375,10.40625 0.24309,2.8287 0.36264,4.89873 0.3125,6.1875 -0.0251,0.64438 -0.0888,1.07722 -0.1875,1.34375 -0.0987,0.26653 -0.23382,0.35657 -0.40625,0.25 -0.30277,-0.18712 -0.63446,0.0554 -0.90625,0.625 -0.27179,0.56957 -0.50297,1.45091 -0.65625,2.59375 -0.31628,2.35798 -0.2477,5.60666 0.0312,8.34375 0.13948,1.36855 0.32675,2.61463 0.5625,3.5625 0.23575,0.94787 0.5155,1.59769 0.8125,1.78125 0.23852,0.14742 0.43882,1.09947 0.5625,2.5 0.12368,1.40053 0.17587,3.24123 0.125,5.21875 -0.0808,3.13954 -0.14096,4.78911 -0.21875,5.0625 -0.0778,0.27339 -0.1834,-0.83289 -0.34375,-3.125 -0.12678,-1.81219 -0.3266,-3.12434 -0.5625,-3.96875 -0.2359,-0.84441 -0.49885,-1.2148 -0.75,-1.125 -0.25115,0.0898 -0.48373,0.63456 -0.65625,1.625 -0.17252,0.99044 -0.28125,2.42373 -0.28125,4.28125 0,1.89235 0.0781,3.34584 0.25,4.28125 0.086,0.46771 0.18947,0.80368 0.3125,1 0.12303,0.19632 0.28134,0.25276 0.4375,0.15625 0.275,-0.16996 0.50625,-0.22107 0.6875,-0.15625 0.18125,0.0648 0.3125,0.26293 0.3125,0.53125 0,0.26832 -0.13464,0.53471 -0.34375,0.78125 -0.20911,0.24654 -0.49523,0.45674 -0.8125,0.5625 -0.35172,0.11724 -0.69588,1.13487 -1,2.84375 -0.30412,1.70888 -0.56821,4.11943 -0.75,7 -0.26981,4.27541 -0.4854,6.6653 -0.875,8.09375 -0.1948,0.71423 -0.42987,1.17904 -0.75,1.53125 -0.32013,0.35221 -0.7097,0.58917 -1.21875,0.8125 -1.0892,0.47786 -1.79508,0.90995 -2.15625,1.28125 -0.36117,0.3713 -0.37922,0.69155 -0.125,0.875 0.25422,0.18345 0.77428,0.24194 1.53125,0.15625 0.75697,-0.0857 1.72794,-0.31389 2.875,-0.75 0.8437,-0.32078 1.524,-0.48548 2.03125,-0.46875 0.50725,0.0167 0.84054,0.19821 1.03125,0.59375 0.19071,0.39554 0.23091,0.99685 0.125,1.8125 -0.10591,0.81565 -0.33613,1.84792 -0.71875,3.125 -0.35786,1.19443 -0.86774,2.25228 -1.5,3.1875 -0.63226,0.93522 -1.38665,1.74719 -2.3125,2.4375 -0.92585,0.69031 -2.01139,1.25905 -3.25,1.71875 -1.23861,0.4597 -2.64821,0.81911 -4.21875,1.0625 -2.24609,0.34808 -4.8142,0.84026 -5.71875,1.09375 -0.45227,0.12675 -1.02534,0.0618 -1.59375,-0.125 -0.56841,-0.18679 -1.12111,-0.4961 -1.53125,-0.90625 -0.32057,-0.32057 -0.84364,-0.56636 -1.8125,-0.75 -0.96886,-0.18364 -2.39472,-0.31239 -4.5625,-0.375 -4.33556,-0.12523 -11.62757,-0.0135 -24.0625,0.25 -14.65114,0.31041 -23.21254,0.38826 -28.125,0.0937 -2.45623,-0.14725 -4.01102,-0.39727 -4.9375,-0.75 -0.46324,-0.17637 -0.77484,-0.39048 -0.96875,-0.625 -0.19391,-0.23452 -0.25,-0.48406 -0.25,-0.78125 0,-0.26022 0.34322,-0.49028 1.1875,-0.6875 0.84428,-0.19722 2.16832,-0.37323 4.15625,-0.53125 3.97585,-0.31604 10.55966,-0.57301 20.90625,-0.875 14.4375,-0.4214 29.175,-1.05186 32.75,-1.40625 3.14049,-0.31132 4.75897,-0.49891 5.59375,-0.9375 0.41739,-0.21929 0.63681,-0.51211 0.75,-0.90625 0.11319,-0.39414 0.10327,-0.89817 0.0937,-1.5625 -0.0118,-0.82028 0.11748,-1.48632 0.34375,-1.96875 0.22627,-0.48243 0.57225,-0.78125 0.96875,-0.78125 0.61877,0 1.49165,-0.22639 2.46875,-0.625 0.9771,-0.39861 2.04814,-0.95695 3.0625,-1.5625 1.01436,-0.60555 1.95694,-1.28543 2.6875,-1.90625 0.73056,-0.62082 1.24931,-1.18058 1.375,-1.625 0.43012,-1.52087 0.83228,-3.88628 1.1875,-7.03125 0.35522,-3.14497 0.66881,-7.08396 0.9375,-11.75 1.44984,-25.17847 2.61601,-46.49551 3.625,-66.8125 1.00899,-20.31699 1.84557,-39.64036 2.625,-60.84375 0.77943,-21.20339 1.48884,-44.25608 2.25,-72.09375 0.76116,-27.83767 1.57707,-60.43642 2.53125,-100.65625 0.39422,-16.616517 0.68975,-32.001563 0.84375,-43.375 0.154,-11.3734375 0.16056,-18.735267 0,-19.375 -0.13902,-0.553904 -0.11875,-1.04429303 -0.0312,-1.4375 0.0875,-0.39320697 0.25316,-0.68412 0.46875,-0.84375 0.21559,-0.15963 0.4735,-0.209327 0.71875,-0.0625 z"
         style="fill:#fcfcfc"
         inkscape:connector-curvature="0" />
      <path
         id="path3024"
         d="m -345.84375,-4.75 c -0.188,0.186069 -0.32503,3.4826493 -0.375,9.21875 -0.05,5.736101 -0.0339,13.905889 0.0312,23.78125 0.13023,19.750723 0.48462,46.375611 0.9375,74.21875 0.45288,27.84314 1.00178,56.91311 1.59375,81.5625 0.59197,24.64939 1.20253,44.86178 1.75,55.03125 0.22207,4.125 0.57331,8.40312 0.9375,11.9375 0.36419,3.53438 0.76325,6.325 1.09375,7.5625 0.4643,1.73841 0.68361,3.24528 0.6875,4.96875 0.004,1.72347 -0.20177,3.67999 -0.65625,6.28125 -0.49547,2.8358 -0.75868,4.56539 -0.71875,5.75 0.02,0.59231 0.12063,1.05582 0.28125,1.4375 0.16062,0.38168 0.38167,0.69417 0.6875,1 0.27885,0.27885 0.53958,0.77031 0.75,1.59375 0.21042,0.82344 0.36927,1.97072 0.53125,3.53125 0.32395,3.12106 0.59369,7.90051 0.84375,15.125 0.35817,10.34774 1.09092,28.7125 1.625,40.8125 0.72632,16.45539 1.15703,28.5826 1.3125,36.59375 0.0777,4.00558 0.0947,6.99303 0.0312,8.96875 -0.0634,1.97572 -0.20276,2.9375 -0.40625,2.9375 -0.39165,0 -0.71935,-0.25911 -1,-0.875 -0.28065,-0.61589 -0.52006,-1.58854 -0.71875,-3.03125 -0.39739,-2.88542 -0.66235,-7.63541 -0.90625,-15.09375 -0.13939,-4.2625 -0.37926,-8.22812 -0.65625,-11.21875 -0.27699,-2.99063 -0.59413,-5.00625 -0.875,-5.28125 -0.1971,-0.19298 -0.33462,0.27222 -0.4375,1.21875 -0.10288,0.94653 -0.16646,2.37085 -0.1875,4.15625 -0.0421,3.57081 0.0703,8.53381 0.28125,13.65625 0.21097,5.12244 0.51003,10.41858 0.875,14.6875 0.36497,4.26892 0.79883,7.52099 1.21875,8.53125 0.61567,1.48123 1.32238,2.67863 2.34375,3.6875 0.51069,0.50443 1.10035,0.9628 1.78125,1.375 0.6809,0.4122 1.47803,0.78778 2.375,1.125 1.79393,0.67443 4.06664,1.20958 7,1.6875 2.93336,0.47792 6.5291,0.89318 10.96875,1.3125 4.675,0.44155 12.1,0.8065 16.5,0.8125 3.99225,0.005 5.98207,0.004 5.5,-0.15625 -0.48207,-0.16033 -3.46195,-0.48066 -9.375,-1.125 -6.51699,-0.71015 -13.04199,-1.63134 -14.5,-2.03125 l -2.625,-0.71875 2.5,-0.65625 c 0.96531,-0.25157 1.61142,-0.57923 2,-0.96875 0.38858,-0.38952 0.50651,-0.82495 0.34375,-1.28125 -0.16276,-0.4563 -0.59254,-0.92309 -1.28125,-1.375 -0.68871,-0.45191 -1.62322,-0.90491 -2.8125,-1.28125 -1.39284,-0.44076 -2.44826,-0.90282 -3.15625,-1.375 -0.70799,-0.47218 -1.07494,-0.93455 -1.09375,-1.34375 -0.0188,-0.4092 0.29403,-0.77945 0.96875,-1.03125 0.67472,-0.2518 1.68992,-0.40625 3.0625,-0.40625 1.20981,0 2.0951,-0.082 2.65625,-0.25 0.56115,-0.16801 0.8187,-0.42371 0.75,-0.6875 -0.0687,-0.26379 -0.44526,-0.55643 -1.125,-0.84375 -0.67974,-0.28732 -1.66554,-0.57388 -2.9375,-0.8125 -0.97481,-0.18287 -1.91441,-0.49555 -2.65625,-0.875 -0.74184,-0.37945 -1.28675,-0.82591 -1.4375,-1.21875 -0.16492,-0.42978 -0.5709,-0.74109 -1.125,-0.9375 -0.5541,-0.19641 -1.27367,-0.24794 -2.0625,-0.15625 l -2.59375,0.28125 -1.1875,-15.5 c -1.6663,-21.91936 -2.99033,-40.14175 -3.96875,-54.53125 -0.97842,-14.3895 -1.60738,-24.94612 -1.875,-31.46875 -0.32721,-7.975 -1.01422,-20.125 -1.53125,-27 -1.12181,-14.91677 -2.31497,-38.20686 -3.4375,-64.84375 -1.12253,-26.63689 -2.1732,-56.60992 -3,-84.84375 -0.8268,-28.233826 -1.45287,-54.729908 -1.6875,-74.4375 -0.11731,-9.853796 -0.14881,-18.019608 -0.0625,-23.84375 0.0863,-5.8241422 0.298,-9.31465813 0.625,-9.84375 0.20047,-0.3243578 0.79263,-0.6177355 1.59375,-0.84375 0.80112,-0.2260145 1.79748,-0.387689 2.8125,-0.40625 1.82892,-0.033444 2.75885,-0.040717 2.59375,-0.21875 -0.1651,-0.1780329 -1.39745,-0.5214851 -3.875,-1.1875 -2.75,-0.7392534 -5.225,-1.1159207 -5.5,-0.84375 z"
         style="fill:#fcfcfc"
         inkscape:connector-curvature="0" />
      <path
         id="path3022"
         d="m -345.84375,-4.75 c 0.275,-0.2721707 2.75,0.1044966 5.5,0.84375 2.47755,0.6660149 3.7099,1.0094671 3.875,1.1875 0.1651,0.1780329 -0.76483,0.1853062 -2.59375,0.21875 -1.01502,0.018561 -2.01138,0.1802355 -2.8125,0.40625 -0.80112,0.2260145 -1.39328,0.5193922 -1.59375,0.84375 -0.327,0.52909187 -0.53869,4.0196078 -0.625,9.84375 -0.0863,5.824142 -0.0548,13.989954 0.0625,23.84375 0.23463,19.707592 0.8607,46.203674 1.6875,74.4375 0.8268,28.23383 1.87747,58.20686 3,84.84375 1.12253,26.63689 2.31569,49.92698 3.4375,64.84375 0.51703,6.875 1.20404,19.025 1.53125,27 0.26762,6.52263 0.89658,17.07925 1.875,31.46875 0.97842,14.3895 2.30245,32.61189 3.96875,54.53125 l 1.1875,15.5 2.59375,-0.28125 c 0.78883,-0.0917 1.5084,-0.0402 2.0625,0.15625 0.5541,0.19641 0.96008,0.50772 1.125,0.9375 0.15075,0.39284 0.69566,0.8393 1.4375,1.21875 0.74184,0.37945 1.68144,0.69213 2.65625,0.875 1.27196,0.23862 2.25776,0.52518 2.9375,0.8125 0.67974,0.28732 1.0563,0.57996 1.125,0.84375 0.0687,0.26379 -0.18885,0.51949 -0.75,0.6875 -0.56115,0.16801 -1.44644,0.25 -2.65625,0.25 -1.37258,0 -2.38778,0.15445 -3.0625,0.40625 -0.67472,0.2518 -0.98756,0.62205 -0.96875,1.03125 0.0188,0.4092 0.38576,0.87157 1.09375,1.34375 0.70799,0.47218 1.76341,0.93424 3.15625,1.375 1.18928,0.37634 2.12379,0.82934 2.8125,1.28125 0.68871,0.45191 1.11849,0.9187 1.28125,1.375 0.16276,0.4563 0.0448,0.89173 -0.34375,1.28125 -0.38858,0.38952 -1.03469,0.71718 -2,0.96875 l -2.5,0.65625 2.625,0.71875 c 1.45801,0.39991 7.98301,1.3211 14.5,2.03125 5.91305,0.64434 8.89293,0.96467 9.375,1.125 0.48207,0.16033 -1.50775,0.16174 -5.5,0.15625 -4.4,-0.006 -11.825,-0.37095 -16.5,-0.8125 -4.43965,-0.41932 -8.03539,-0.83458 -10.96875,-1.3125 -2.93336,-0.47792 -5.20607,-1.01307 -7,-1.6875 -0.89697,-0.33722 -1.6941,-0.7128 -2.375,-1.125 -0.6809,-0.4122 -1.27056,-0.87057 -1.78125,-1.375 -1.02137,-1.00887 -1.72808,-2.20627 -2.34375,-3.6875 -0.41992,-1.01026 -0.85378,-4.26233 -1.21875,-8.53125 -0.36497,-4.26892 -0.66403,-9.56506 -0.875,-14.6875 -0.21097,-5.12244 -0.32334,-10.08544 -0.28125,-13.65625 0.021,-1.7854 0.0846,-3.20972 0.1875,-4.15625 0.10288,-0.94653 0.2404,-1.41173 0.4375,-1.21875 0.28087,0.275 0.59801,2.29062 0.875,5.28125 0.27699,2.99063 0.51686,6.95625 0.65625,11.21875 0.2439,7.45834 0.50886,12.20833 0.90625,15.09375 0.19869,1.44271 0.4381,2.41536 0.71875,3.03125 0.28065,0.61589 0.60835,0.875 1,0.875 0.20349,0 0.34285,-0.96178 0.40625,-2.9375 0.0634,-1.97572 0.0465,-4.96317 -0.0312,-8.96875 -0.15547,-8.01115 -0.58618,-20.13836 -1.3125,-36.59375 -0.53408,-12.1 -1.26683,-30.46476 -1.625,-40.8125 -0.25006,-7.22449 -0.5198,-12.00394 -0.84375,-15.125 -0.16198,-1.56053 -0.32083,-2.70781 -0.53125,-3.53125 -0.21042,-0.82344 -0.47115,-1.3149 -0.75,-1.59375 -0.30583,-0.30583 -0.52688,-0.61832 -0.6875,-1 -0.16062,-0.38168 -0.26129,-0.84519 -0.28125,-1.4375 -0.0399,-1.18461 0.22328,-2.9142 0.71875,-5.75 0.45448,-2.60126 0.66014,-4.55778 0.65625,-6.28125 -0.004,-1.72347 -0.2232,-3.23034 -0.6875,-4.96875 -0.3305,-1.2375 -0.72956,-4.02812 -1.09375,-7.5625 -0.36419,-3.53438 -0.71543,-7.8125 -0.9375,-11.9375 -0.54747,-10.16947 -1.15803,-30.38186 -1.75,-55.03125 -0.59197,-24.64939 -1.14087,-53.71936 -1.59375,-81.5625 -0.45288,-27.843139 -0.80727,-54.468027 -0.9375,-74.21875 -0.0651,-9.875361 -0.0812,-18.045149 -0.0312,-23.78125 0.05,-5.7361007 0.187,-9.032681 0.375,-9.21875 z"
         style="fill:#fcfcfc"
         inkscape:connector-curvature="0" />
      <path
         id="path3020"
         d="m -211.03125,-5.125 c -0.20896,-0.047537 -0.73775,0.2506195 -1.6875,0.84375 -1.17975,0.7367613 -2.125,1.6760507 -2.125,2.09375 0,0.2088497 0.16563,0.3935991 0.4375,0.53125 0.27187,0.1376509 0.65,0.21875 1.0625,0.21875 0.825,0 1.5,-0.1762331 1.5,-0.40625 0,-0.2300169 0.27025,-1.1693063 0.625,-2.09375 0.28558,-0.7442244 0.39646,-1.1399633 0.1875,-1.1875 z"
         style="fill:#fcfcfc"
         inkscape:connector-curvature="0" />
      <path
         id="path3018"
         d="m -211.03125,-5.125 c 0.20896,0.047537 0.0981,0.4432756 -0.1875,1.1875 -0.35475,0.9244437 -0.625,1.8637331 -0.625,2.09375 0,0.2300169 -0.675,0.40625 -1.5,0.40625 -0.4125,0 -0.79063,-0.081099 -1.0625,-0.21875 -0.27187,-0.1376509 -0.4375,-0.3224003 -0.4375,-0.53125 0,-0.4176993 0.94525,-1.3569887 2.125,-2.09375 0.94975,-0.5931305 1.47854,-0.8912867 1.6875,-0.84375 z"
         style="fill:#fcfcfc"
         inkscape:connector-curvature="0" />
      <path
         inkscape:connector-curvature="0"
         id="path10011"
         d="m -326.41518,-5.0089286 0,200.9285686 0,200.92858 51.78571,0 51.78572,0 0,-200.92858 0,-200.9285686 -51.78572,0 -51.78571,0 z"
         style="fill:#fcfcfc" />
      <path
         style="fill:#f2f2f2"
         d="m -324.9986,404.55224 c -6.87764,-1.16166 -11.55388,-3.7518 -14.0421,-7.77782 -2.14132,-3.46472 -2.2395,-4.80167 -2.94819,-40.14354 -0.40321,-20.1077 -1.19899,-56.13445 -1.76841,-80.05945 -0.95141,-39.9747 -2.91203,-135.23468 -4.96022,-241.000001 -0.60539,-31.261372 -0.52369,-42.8317555 0.30896,-43.7545669 0.886,-0.9819525 15.52137,-1.2557954 67.35169,-1.2602201 36.42084,-0.00311 68.00672,0.2801011 70.19084,0.6293563 2.18412,0.3492552 4.38276,1.1413543 4.88586,1.7602201 0.544,0.6691855 0.58795,8.0149666 0.10844,18.1252106 -0.44346,9.35 -1.07604,48.95 -1.40575,88 -0.32971,39.050001 -0.8189,83.825001 -1.0871,99.500001 -2.79289,163.23472 -3.53343,189.8587 -5.45874,196.25426 -1.45928,4.84747 -5.93393,7.19493 -17.58904,9.22741 -6.90205,1.20362 -17.02248,1.49395 -48.82577,1.40071 -22.06546,-0.0647 -42.20767,-0.4704 -44.76047,-0.90157 z m 19.34467,-12.73081 2.29679,-4.75 -0.0551,-78 c -0.0303,-42.9 -0.37521,-111.3 -0.76643,-152 -0.39122,-40.7 -0.84487,-91.325001 -1.00811,-112.500001 -0.2915,-37.811766 -0.33787,-38.584912 -2.5937,-43.25 -2.53641,-5.2453118 -2.70805,-5.3430175 -5.57664,-3.1744689 -2.22134,1.6792499 -2.1795,-1.1494143 -1.19708,80.9244689 0.25883,21.623021 0.028,35.518281 -0.63418,38.170761 -0.78691,3.15225 -0.71118,5.1706 0.31008,8.26506 1.02812,3.11523 1.1016,5.18523 0.30729,8.65637 -0.77704,3.3957 -0.71953,5.64005 0.22498,8.77839 0.94309,3.13366 1.28521,16.27368 1.33235,51.17286 0.0656,48.58388 1.13107,128.51711 1.72661,129.53755 0.18649,0.31954 0.4038,16.06937 0.48292,34.99961 0.12582,30.1071 0.62758,37.9194 2.43542,37.9194 0.22991,0 1.45158,-2.1375 2.71482,-4.75 z m 53.18866,-27.5 c 0.30309,-3.4375 0.83172,-13.45 1.17475,-22.25 0.34302,-8.8 0.7969,-18.025 1.00861,-20.5 0.21171,-2.475 0.61617,-17.325 0.89881,-33 1.25347,-69.51779 1.96308,-82.39224 4.02404,-73.00873 0.74156,3.3763 1.93622,3.87825 2.99582,1.25873 0.38933,-0.9625 0.85637,-28.3 1.03787,-60.75 0.1815,-32.45 0.63407,-76.437501 1.00571,-97.750001 0.43232,-24.791778 0.32686,-38.75 -0.29278,-38.75 -1.66231,0 -2.21898,11.392166 -2.15004,44 0.10291,48.678971 -0.11229,64.030931 -1.17015,83.476721 -0.9743,17.90964 -2.08045,23.20323 -3.28044,15.69888 -0.52565,-3.28723 -1.08219,-48.11025 -0.86511,-69.675601 0.58478,-58.096792 0.45753,-66.060718 -1.11525,-69.793923 -1.37308,-3.259197 -1.39578,-3.87166 -0.16106,-4.345469 0.9349,-0.358754 1.37858,-1.828985 1.2693,-4.206077 -0.0924,-2.009992 -0.0256,-4.104531 0.14844,-4.654531 0.17405,-0.55 0.26316,-2.2375 0.19803,-3.75 -0.17571,-4.080508 -2.88648,-3.503287 -3.69115,0.785981 -0.36484,1.944789 -0.80233,51.332289 -0.97218,109.75 -0.16986,58.41771 -0.79167,122.18902 -1.38181,141.71402 -0.59014,19.525 -1.0982,51.925 -1.12901,72 -0.0669,43.57422 -0.15411,40 0.97614,40 0.50622,0 1.16838,-2.8125 1.47146,-6.25 z m 5.35024,-176 c -0.30413,-4.5375 -0.24355,-10.5 0.13461,-13.25 0.63572,-4.62298 0.74131,-4.24597 1.40025,5 0.93199,13.07727 0.90514,16.5 -0.12944,16.5 -0.46886,0 -1.1013,-3.7125 -1.40542,-8.25 z m 2.92017,93 c -0.27741,-0.6875 -0.50439,-0.125 -0.50439,1.25 0,1.375 0.22698,1.9375 0.50439,1.25 0.27741,-0.6875 0.27741,-1.8125 0,-2.5 z m 1.74908,-55.75 -0.71347,-3.5 -0.97427,3.18259 c -0.53585,1.75042 -0.6444,4.45042 -0.24123,6 l 0.73305,2.81741 0.9547,-2.5 c 0.52509,-1.375 0.63364,-4.075 0.24122,-6 z m 19.29437,-66.25 c -0.23835,-1.2375 -0.43337,-0.225 -0.43337,2.25 0,2.475 0.19502,3.4875 0.43337,2.25 0.23836,-1.2375 0.23836,-3.2625 0,-4.5 z"
         id="path10009"
         inkscape:connector-curvature="0" />
      <path
         style="fill:#ebebeb"
         d="m -322.71137,404.41515 c -7.65444,-1.09551 -13.20188,-3.75421 -15.65955,-7.5051 -2.53845,-3.87416 -3.18524,-18.19306 -4.43445,-98.17141 -0.56983,-36.48303 -1.21428,-66.63303 -1.43211,-67 -0.21782,-0.36696 -0.68665,-17.54221 -1.04185,-38.16721 -2.40091,-139.4116 -3.58655,-194.942688 -4.21038,-197.1988485 -0.25836,-0.9343661 0.47882,-2.6474032 1.63817,-3.806749 l 2.1079,-2.1079015 68.53216,0.306749 68.53215,0.306749 1.78316,2.2027917 c 1.45379,1.7959076 1.63767,3.0888977 0.99548,7.0000003 -0.43322,2.638464 -1.05544,33.822208 -1.3827,69.297208 -1.61627,175.201721 -4.60168,314.453591 -6.94425,323.908221 -2.49358,10.0641 -14.03055,12.14806 -66.25784,11.96835 -19.72941,-0.0679 -38.73106,-0.53267 -42.22589,-1.03285 z m 18.36153,-10.59201 c 0.55401,-2.2548 1.36316,-4.4555 1.7981,-4.89045 0.43495,-0.43494 8.30666,-0.75789 17.49271,-0.71766 l 16.70189,0.0731 -15.78839,-0.60837 c -16.37955,-0.63115 -17.65653,-1.00898 -17.6963,-5.23593 -0.0369,-3.92047 2.44944,-4.37332 23.88686,-4.35074 22.69293,0.0239 26.67409,0.36767 29.82604,2.57538 1.68073,1.17723 3.68059,1.33801 9.45179,0.75986 4.026,-0.40331 8.5575,-0.76111 10.07,-0.79512 1.5125,-0.034 2.75,-0.40225 2.75,-0.81834 0,-0.93874 -7.19926,-3.24348 -10.13158,-3.24348 -1.18969,0 -4.84201,-0.97679 -8.11627,-2.17064 l -5.95319,-2.17065 0.6475,-4.07935 c 0.35612,-2.24365 1.07635,-4.22936 1.60052,-4.41269 1.6276,-0.56928 1.13112,-6.16667 -0.54698,-6.16667 -1.72835,0 -1.93353,-4.28098 -0.74289,-15.5 l 0.74289,-7 0.5,6.76521 c 0.84684,11.45815 2.45934,7.76264 3.05623,-7.00425 0.38509,-9.52715 1.05149,-14.8378 2.16596,-17.26096 0.88536,-1.925 1.84529,-4.85 2.13318,-6.5 1.07084,-6.13735 1.93894,-9.04031 3.13991,-10.5 2.39911,-2.91592 3.35026,-11.60632 1.99989,-18.27262 -0.56507,-2.7896 -0.3713,-4.22273 0.74365,-5.5 0.82932,-0.95006 1.82125,-3.47356 2.20429,-5.60778 0.61386,-3.42026 0.34509,-4.25033 -2.26647,-7 -3.26913,-3.442 -3.89808,-6.09956 -4.8181,-20.35834 -0.45723,-7.08626 -0.21896,-10.39182 1.02267,-14.1879 0.89034,-2.72203 1.61879,-5.85054 1.61879,-6.95224 0,-1.1017 0.38634,-2.24186 0.85853,-2.53369 1.39438,-0.86177 2.03196,-12.20448 0.91647,-16.30428 -0.56613,-2.08073 -0.95399,-5.9777 -0.8619,-8.65992 0.11418,-3.32596 -0.35983,-5.45938 -1.49058,-6.70885 -1.51437,-1.67335 -1.63262,-7.402 -1.36495,-66.12323 0.16118,-35.360132 0.31832,-67.216151 0.34919,-70.791151 0.0309,-3.575 -0.048,-16.5125 -0.17531,-28.75 -0.22173,-21.315388 -0.31337,-22.25 -2.18179,-22.25 -1.64618,0 -2.0667,0.97473 -2.69641,6.25 -0.41034,3.4375 -0.85409,5.575 -0.98611,4.75 -0.13202,-0.825 -0.51392,-3.588918 -0.84867,-6.142041 -0.50777,-3.872758 -1.00475,-4.717764 -2.99891,-5.09897 -1.31465,-0.251311 -2.86477,-0.163672 -3.44471,0.194753 -2.05362,1.269204 -2.60258,21.327692 -2.40964,88.046258 0.2102,72.687711 -0.10317,84.711341 -2.16324,83.001641 -0.92791,-0.7701 -1.39627,-0.51385 -1.78621,0.97728 -0.43359,1.65808 -1.35356,2.02108 -5.12214,2.02108 l -4.59362,0 0,4 0,4 -5.38337,0 c -4.49069,0 -5.46767,0.32236 -5.89174,1.94402 -0.39297,1.50271 0.0684,2.01349 2.03251,2.25 1.39748,0.16829 3.01017,1.05576 3.58375,1.97216 1.62694,2.59932 -0.89868,4.83382 -5.4636,4.83382 -3.14741,0 -3.87755,-0.35897 -3.87755,-1.90638 0,-1.41405 -0.51651,-1.77131 -2,-1.38337 -1.10692,0.28947 -2,1.36402 -2,2.40638 0,1.61621 0.7802,1.88337 5.5,1.88337 l 5.5,0 0,3.67126 c 0,2.01919 0.66721,4.40851 1.48268,5.3096 1.23081,1.36004 1.35822,3.75168 0.75,14.07875 -0.69987,11.88336 -0.83343,12.4547 -2.98268,12.75994 -2.67577,0.38002 -3.2019,4.18045 -0.57874,4.18045 3.1884,0 5.32874,3.0747 5.32874,7.65499 0,3.67834 -0.30687,4.34501 -2,4.34501 -1.66667,0 -2,0.66667 -2,4 0,2.88889 -0.41667,4 -1.5,4 -0.83333,0 -1.5,0.88889 -1.5,2 0,1.11111 0.66667,2 1.5,2 1.06635,0 1.50052,1.08413 1.50179,3.75 10e-4,3.02402 0.51968,4.04039 2.67693,5.25 2.53322,1.42042 2.6621,1.8581 2.42929,8.25 l -0.24585,6.75 3.06892,0 c 2.28859,0 3.06892,0.45768 3.06892,1.8 0,0.99 -0.54,2.34 -1.2,3 -0.93333,0.93333 -0.93333,1.46667 0,2.4 0.66,0.66 1.2,2.235 1.2,3.5 0,1.265 0.45,2.3 1,2.3 0.55,0 1,0.675 1,1.5 0,0.825 0.86968,1.5 1.93261,1.5 1.12437,0 2.23348,0.94098 2.65201,2.25 0.97748,3.05719 1.0289,69.67665 0.056,72.5 -0.76988,2.23411 -0.91894,2.25 -21.10152,2.25 l -20.32616,0 -0.74793,-16.75 c -0.41136,-9.2125 -0.48835,-29.35 -0.17109,-44.75 0.31727,-15.4 0.18101,-42.4 -0.30279,-60 -0.48381,-17.6 -1.17188,-75.6902 -1.52907,-129.08933 -0.66023,-98.705287 -1.26068,-121.704869 -3.30816,-126.7156198 -1.05915,-2.5920287 -1.50701,-2.7818005 -5.90001,-2.5 l -4.75386,0.3049488 -0.60322,5.5 c -0.33177,3.025 -0.45871,23.725 -0.28208,46 0.19019,23.986852 -0.0987,43.76186 -0.70848,48.5 -0.56629,4.400001 -1.09548,9.350001 -1.17598,11.000001 -0.22555,4.62265 1.28159,45.6775 1.78045,48.5 0.79183,4.4801 1.71191,43.60121 2.03437,86.5 0.17364,23.1 0.81087,52.125 1.41607,64.5 1.89816,38.81323 2.31749,61.19645 1.25385,66.92983 -0.72408,3.90306 -0.6877,5.94162 0.1294,7.25 0.85491,1.36892 0.84083,2.29395 -0.0568,3.73124 -0.96435,1.54416 -0.90828,2.02052 0.29205,2.48112 0.98941,0.37968 1.40753,1.72828 1.25197,4.03813 -0.24192,3.59216 2.5109,7.94701 4.59537,7.26969 0.59015,-0.19176 1.52628,-2.1935 2.08029,-4.4483 z m 45.59506,-113.50171 c -0.10076,-3.69127 -0.165,-3.75 -4.10236,-3.75 -3.7721,0 -4,-0.16984 -4,-2.98095 0,-2.27923 0.52965,-3.0965 2.25,-3.47185 6.08798,-1.32827 6.17643,-1.28455 6.81907,3.37018 0.33542,2.42956 0.27817,5.80456 -0.12724,7.5 l -0.73711,3.08262 -0.10236,-3.75 z m -2.60236,-28.75 c -0.83704,-1.35436 0.29243,-3 2.05902,-3 0.79254,0 1.45466,-0.5625 1.47139,-1.25 0.0167,-0.6875 0.50438,-0.43517 1.08368,0.56074 0.5793,0.9959 0.80474,2.4584 0.50098,3.25 -0.62927,1.63984 -4.18438,1.94514 -5.11507,0.43926 z m 3.09777,-71.73557 c -0.32877,-0.32877 -0.59777,-1.47091 -0.59777,-2.53809 0,-1.35847 0.47433,-1.7583 1.58179,-1.33333 0.86998,0.33385 1.76998,0.60699 2,0.60699 0.23001,0 0.41821,0.62686 0.41821,1.39301 0,1.50843 -2.42909,2.84457 -3.40223,1.87142 z m 13.56012,-163.264431 c 0,-1.375 0.22698,-1.9375 0.50439,-1.25 0.27741,0.6875 0.27741,1.8125 0,2.5 -0.27741,0.6875 -0.50439,0.125 -0.50439,-1.25 z m -0.65789,370.038491 6,-0.74445 -5.66667,-0.14702 c -3.11666,-0.0809 -5.81666,-0.58376 -6,-1.11755 -0.37574,-1.09401 -2.90463,-1.46928 -7.33333,-1.08823 -2.95857,0.25456 -2.96548,0.26849 -0.5,1.009 2.44566,0.73455 2.42392,0.7739 -1,1.81013 -3.35341,1.01489 -3.2487,1.05849 2.5,1.04091 3.3,-0.0101 8.7,-0.35335 12,-0.76279 z m -33.25,-2.70077 c -0.6875,-0.27741 -1.8125,-0.27741 -2.5,0 -0.6875,0.27741 -0.125,0.50439 1.25,0.50439 1.375,0 1.9375,-0.22698 1.25,-0.50439 z m 15.5,-0.027 c -0.9625,-0.25152 -2.5375,-0.25152 -3.5,0 -0.9625,0.25153 -0.175,0.45733 1.75,0.45733 1.925,0 2.7125,-0.2058 1.75,-0.45733 z m -53.10622,-5.10478 c -1.02092,-0.2164 -2.29254,0.0429 -2.82582,0.57615 -0.62614,0.62614 0.0314,0.76551 1.85622,0.39346 2.09296,-0.42673 2.34442,-0.67819 0.9696,-0.96961 z m 90.32839,-84.75203 c 0.53894,-14.27462 1.45244,-36.30386 2.03001,-48.95386 1.86837,-40.92179 2.90131,-86.02002 2.99868,-130.92325 0.0524,-24.157781 0.28569,-44.231389 0.51846,-44.608008 0.23276,-0.37662 0.51444,-14.586159 0.62594,-31.576753 0.17165,-26.155086 -0.0156,-30.89204 -1.22126,-30.89204 -1.18755,0 -1.62487,6.558854 -2.63374,39.5 -0.66536,21.725 -1.21848,52.775 -1.22916,69.000001 -0.0107,16.225 -0.25131,35.575 -0.53474,43 -0.28342,7.425 -1.01001,33.975 -1.61462,59 -0.60462,25.025 -1.35892,47.525 -1.67622,50 -0.75822,5.91428 -1.2781,48.81097 -0.62893,51.89464 1.37253,6.51974 2.47297,-1.79862 3.36558,-25.44078 z m -41.41286,19.45018 c 0.98699,-1.59699 -1.91435,-4.08876 -3.88177,-3.3338 -2.69995,1.03602 -2.11506,4.42971 0.76344,4.42971 1.34254,0 2.74579,-0.49318 3.11833,-1.09596 z"
         id="path10007"
         inkscape:connector-curvature="0" />
      <path
         style="fill:#e5e5e5"
         d="m -321.35714,404.51078 c -9.45998,-1.41329 -14.11016,-3.57326 -16.69965,-7.75684 -2.1255,-3.43395 -2.32919,-5.2012 -3.01774,-26.18251 -0.40612,-12.375 -1.22768,-48.375 -1.82569,-80 -0.59801,-31.625 -1.48377,-76.175 -1.96835,-99 -2.14193,-100.889981 -3.06445,-149.266436 -3.30582,-173.355294 l -0.25907,-25.8552921 2.53141,-0.9624397 c 4.02879,-1.5317432 134.93996,-0.5300796 137.85824,1.054819 2.08359,1.1315904 2.26011,1.7708582 1.77749,6.4372808 -0.2947,2.849509 -0.78868,30.605925 -1.09773,61.680925 -1.78111,179.093951 -4.75051,322.687401 -6.8703,332.233241 -1.40863,6.34332 -3.82927,8.00352 -15.18124,10.41211 -6.52666,1.38478 -14.88993,1.73 -46.94155,1.93768 -21.45,0.13899 -41.7,-0.15067 -45,-0.64368 z m 17.68195,-7.43935 c 0.6265,-1.375 1.57195,-2.5 2.10101,-2.5 0.52906,0 0.40648,-0.66927 -0.27239,-1.48727 -0.67888,-0.81799 -0.9731,-2.16799 -0.65383,-3 0.48618,-1.26695 3.30703,-1.51331 17.36187,-1.51627 17.48973,-0.004 47.83755,-1.60412 49.46262,-2.60846 0.51615,-0.319 0.12971,-1.17137 -0.85876,-1.89416 -1.6295,-1.19151 -1.45253,-1.37881 1.89624,-2.00705 2.03141,-0.38109 4.83791,-0.75902 6.23667,-0.83984 2.09616,-0.12112 2.54333,-0.649 2.54391,-3.00303 4.6e-4,-1.85599 -0.8747,-3.54468 -2.49929,-4.82258 -1.95464,-1.53752 -2.4996,-2.87778 -2.49816,-6.14392 0.002,-4.50582 2.49464,-27.40639 4.04665,-37.17742 0.52416,-3.3 1.25571,-8.25 1.62566,-11 l 0.67263,-5 1.20782,5 1.20781,5 0.14513,-6.5 c 0.0798,-3.575 0.35113,-9.875 0.60291,-14 2.0054,-32.85614 4.18821,-99.94079 3.22126,-99 -0.28265,0.275 -1.01474,15.125 -1.62688,33 -1.49355,43.61273 -2.40259,60.24179 -3.06131,56 -0.29894,-1.925 -0.22297,-10.25 0.16881,-18.5 0.39178,-8.25 0.8902,-24.675 1.10761,-36.5 2.12572,-115.62108 2.8384,-162.419407 2.99566,-196.711801 0.18031,-39.320754 0.22872,-40.221661 2.1844,-40.65678 1.1,-0.244739 -1.48707,-0.374429 -5.74905,-0.2882 -4.26198,0.08623 -7.74948,0.49428 -7.75,0.90678 -5.2e-4,0.4125 1.32918,0.75 2.95488,0.75 l 2.95584,0 -0.20584,18.950861 c -0.14762,13.591301 -0.55935,19.304135 -1.45583,20.2 -0.99974,0.99905 -1.25,0.80868 -1.25,-0.950861 0,-1.847619 -0.56061,-2.2 -3.5,-2.2 l -3.5,0 0,-5.031385 c 0,-3.549851 -0.44169,-5.200876 -1.5,-5.606989 -1.22168,-0.468802 -1.5,-2.875096 -1.5,-12.968615 l 0,-12.393011 2.5,0 c 3.71926,0 3.02843,-1.976325 -0.75,-2.145605 -1.7875,-0.08008 -5.5465,-0.237737 -8.35334,-0.350343 -2.80684,-0.112606 -5.60104,-0.512329 -6.20932,-0.888272 -1.33655,-0.826033 -5.18734,1.407078 -5.18734,3.00819 0,1.386052 -4.82979,2.460447 -5.58288,1.241921 -0.29434,-0.47624 0.1664,-0.865891 1.02386,-0.865891 0.85746,0 1.55902,-0.45 1.55902,-1 0,-0.55 -1.30122,-1 -2.89159,-1 -2.21469,0 -3.03198,0.559347 -3.4913,2.389407 -0.94953,3.783226 -8.04127,4.427311 -14.45613,1.312931 -1.88743,-0.916339 -2.50381,-0.841124 -3.19255,0.389582 -0.63265,1.130496 -2.88867,1.585511 -8.7182,1.758372 -6.74548,0.200022 -8.11952,-0.04838 -9.65542,-1.745528 -0.9849,-1.088306 -1.51512,-2.424695 -1.17825,-2.969754 0.33686,-0.54506 -0.31286,-1.284709 -1.44383,-1.643665 -1.4735,-0.467671 -1.88365,-1.19664 -1.44713,-2.5719963 0.56071,-1.7666513 0.0569,-1.9193487 -6.33321,-1.9193487 -6.83623,0 -6.95113,0.043681 -7.51368,2.8564306 -0.41623,2.0811554 -1.46796,3.1833874 -3.875,4.0610724 -1.81704,0.662553 -4.57768,1.852159 -6.13475,2.643569 -1.55707,0.79141 -3.69457,1.438928 -4.75,1.438928 -1.67873,0 -1.91896,0.751129 -1.91896,6 0,4.666667 0.33333,6 1.5,6 1.16667,0 1.5,1.333333 1.5,6 0,4.441841 -0.35925,6 -1.38337,6 -0.76085,0 -1.61872,0.9 -1.90638,2 -0.40631,1.553722 -0.0307,2 1.68337,2 1.21351,0 2.74638,0.54 3.40638,1.2 1.69838,1.698383 1.496,8.309449 -0.3,9.8 -1.03081,0.855494 -1.5,3.136931 -1.5,7.293704 0,3.947662 -0.51611,6.619108 -1.48578,7.690578 -1.48541,1.641363 -1.55361,5.05829 -1.08991,54.603549 0.0484,5.17327 0.55724,8.67112 1.41198,9.70644 2.05697,2.49154 1.17284,52.86147 -1.011,57.59766 -1.02531,2.22364 -1.75403,2.9125 -2.1157,2 -0.86042,-2.17084 -0.63088,9.02937 0.29938,14.60807 0.62271,3.73435 0.69716,2.78512 0.29412,-3.75 -0.34139,-5.53542 -0.17166,-8.75 0.462,-8.75 1.50325,0 2.20606,3.69186 2.22126,11.66821 0.0159,8.3321 -0.98413,12.40087 -2.04775,8.33179 -0.74037,-2.83244 -0.25073,29.60876 0.52826,35 0.7133,4.93658 2.4195,32.80212 3.0615,50 0.2977,7.975 0.96045,16.75 1.47276,19.5 1.06565,5.72017 0.61541,-10.54061 -0.99679,-36 -0.52243,-8.25 -0.91162,-18.825 -0.86488,-23.5 l 0.085,-8.5 1.13778,5 c 0.62578,2.75 1.50433,5.56653 1.95233,6.25895 0.448,0.69242 0.53911,2.12677 0.20246,3.18745 -0.33664,1.06068 -0.0692,2.79787 0.59443,3.86044 0.90726,1.45275 0.9473,3.51452 0.16142,8.31255 -0.58599,3.57769 -0.66831,6.84987 -0.18739,7.44883 0.47173,0.58752 0.83999,7.49339 0.81835,15.34638 -0.032,11.60204 0.25449,14.60285 1.52842,16.01052 0.86227,0.9528 1.56776,2.70943 1.56776,3.90362 0,1.19419 0.39203,2.17126 0.87117,2.17126 0.47914,0 1.16964,2.25 1.53444,5 0.3648,2.75 1.09778,5 1.62883,5 0.53349,0 0.96556,3.3013 0.96556,7.37756 0,5.33787 0.41471,7.72173 1.5,8.62244 0.825,0.68469 1.5,2.28823 1.5,3.56343 0,1.27519 0.45,2.59665 1,2.93657 0.57271,0.35396 1,5.52376 1,12.09914 l 0,11.48111 -4.25,3.94741 c -2.3375,2.17107 -4.8125,3.95302 -5.5,3.95987 -0.6875,0.007 -1.25,0.92104 -1.25,2.03152 0,1.71375 0.41583,1.90814 2.75,1.28558 4.99073,-1.33113 8.67174,-0.94653 9.04831,0.94537 0.21353,1.07274 -0.26055,1.75 -1.22499,1.75 -2.29318,0 -1.92372,1.37202 0.67668,2.51287 1.74118,0.7639 2.25,1.8113 2.25,4.63159 0,3.78437 2.6827,7.85554 5.17643,7.85554 0.75155,0 1.87903,-1.125 2.50552,-2.5 z m 3.16748,-14.74363 c -0.32234,-0.52156 0.13245,-1.66682 1.01064,-2.54502 1.36814,-1.36813 4.55625,-1.57844 22.26916,-1.469 15.82695,0.0978 20.86171,0.43397 21.47996,1.43432 0.44414,0.71864 0.48877,1.61942 0.0992,2.00174 -1.12609,1.10504 -44.19026,1.65989 -44.85893,0.57796 z m 47.19328,-0.68727 c -0.31644,-0.512 -0.11799,-1.21356 0.44098,-1.55902 1.19337,-0.73755 3.01631,0.19857 3.01631,1.54894 0,1.2168 -2.70662,1.22469 -3.45729,0.0101 z m 18.91099,-26.32916 c -0.85839,-2.23692 -0.15511,-6.28403 1.0463,-6.02103 0.55,0.1204 1.14768,1.41272 1.32818,2.87182 0.3912,3.16241 -1.43831,5.58884 -2.37448,3.14921 z m 10.87444,-49.23994 c 0.004,-3.85 0.18518,-5.30246 0.40166,-3.2277 0.21647,2.07477 0.21284,5.22477 -0.008,7 -0.22091,1.77524 -0.39803,0.0777 -0.39359,-3.7723 z m -109.32814,-70.5 c 0,-1.82405 0.415,-2.86155 1,-2.5 0.55,0.33992 1,1.46492 1,2.5 0,1.03508 -0.45,2.16008 -1,2.5 -0.585,0.36155 -1,-0.67595 -1,-2.5 z m -0.72764,-20 c 0,-2.475 0.19502,-3.4875 0.43337,-2.25 0.23836,1.2375 0.23836,3.2625 0,4.5 -0.23835,1.2375 -0.43337,0.225 -0.43337,-2.25 z m 106.07045,-107.5 c 0.004,-4.4 0.17944,-6.07561 0.39069,-3.72357 0.21124,2.35204 0.20827,5.95204 -0.007,8 -0.21487,2.04796 -0.38771,0.12357 -0.38408,-4.27643 z m -0.0906,-19.000001 c 0.0111,-2.2 0.21589,-2.982253 0.45508,-1.738341 0.23919,1.243911 0.23011,3.043911 -0.0202,4.000001 -0.25029,0.95609 -0.446,-0.0617 -0.4349,-2.26166 z m 1.05769,-20 c 0.006,-3.3 0.1923,-4.529441 0.41486,-2.732091 0.22256,1.79735 0.21797,4.49735 -0.0102,6 -0.22821,1.50265 -0.4103,0.03209 -0.40469,-3.267909 z m -0.23961,-11.75 c -0.0387,-2.6125 0.37971,-4.75 0.92971,-4.75 1.20123,0 1.20123,4.704596 0,7.5 -0.64665,1.504827 -0.87683,0.823964 -0.92971,-2.75 z m 3.6227,270.519031 c -0.25354,-0.97297 -0.47766,-0.41903 -0.49804,1.23097 -0.0204,1.65 0.18706,2.44606 0.46099,1.76903 0.27392,-0.67703 0.29059,-2.02703 0.0371,-3 z m 6.54487,-154.26903 c 0.32085,-18.386 0.23275,-23.53172 -0.24825,-14.5 -0.8075,15.16257 -1.2202,44.09283 -0.61935,43.41667 0.20364,-0.22917 0.59407,-13.24167 0.8676,-28.91667 z m -120.57558,-7.25 c -0.27741,-0.6875 -0.50439,-0.125 -0.50439,1.25 0,1.375 0.22698,1.9375 0.50439,1.25 0.27741,-0.6875 0.27741,-1.8125 0,-2.5 z m 122.06112,-34 c -0.22183,-1.7875 -0.40333,-0.325 -0.40333,3.25 0,3.575 0.1815,5.0375 0.40333,3.25 0.22182,-1.7875 0.22182,-4.7125 0,-6.5 z m -0.0611,-11 c -0.27741,-0.6875 -0.50439,-0.125 -0.50439,1.25 0,1.375 0.22698,1.9375 0.50439,1.25 0.27741,-0.6875 0.27741,-1.8125 0,-2.5 z m 0.0271,-8.5 c -0.25153,-0.9625 -0.45733,-0.175 -0.45733,1.75 0,1.925 0.2058,2.7125 0.45733,1.75 0.25152,-0.9625 0.25152,-2.5375 0,-3.5 z M -338.97931,97.321429 c -0.0609,-10.5875 -0.51634,-20.15 -1.01214,-21.25 -0.5597,-1.241765 -0.70512,3.272806 -0.38357,11.908112 0.28483,7.649458 0.51788,17.211959 0.51788,21.249999 0,4.03804 0.22242,7.34189 0.49426,7.34189 0.27184,0 0.44445,-8.6625 0.38357,-19.250001 z m 125.02327,-14.666667 c 0.0544,-7.929166 -0.0671,-14.229166 -0.26999,-14 -0.20289,0.229167 -0.60693,9.191667 -0.89785,19.916667 -0.30812,11.35873 -0.1954,17.203741 0.26999,14.000001 0.43943,-3.025001 0.84346,-11.987501 0.89785,-19.916668 z m 0.84289,-46.333333 c -0.1853,-4.5375 -0.3369,-0.825 -0.3369,8.25 0,9.075 0.1516,12.7875 0.3369,8.25 0.18529,-4.5375 0.18529,-11.9625 0,-16.5 z m -127.06088,19.0625 c -0.31922,-0.797733 -0.55618,-0.560776 -0.60416,0.604167 -0.0434,1.054166 0.19293,1.644791 0.52522,1.3125 0.33229,-0.332292 0.36782,-1.194792 0.079,-1.916667 z m 127.00988,-33.543468 c -0.25354,-0.972968 -0.47766,-0.419032 -0.49804,1.230968 -0.0204,1.65 0.18706,2.446064 0.46099,1.769032 0.27392,-0.677033 0.29059,-2.027033 0.0371,-3 z m -20.22534,-9.519032 c 0.59179,-5.776363 0.46369,-6.75 -0.88806,-6.75 -1.30269,0 -1.57959,1.34978 -1.57959,7.7 0,9.252102 1.48085,8.682001 2.46765,-0.95 z m -107.74425,-5 c -0.22183,-1.7875 -0.40333,-0.325 -0.40333,3.25 0,3.575 0.1815,5.0375 0.40333,3.25 0.22182,-1.7875 0.22182,-4.7125 0,-6.5 z m 115.2766,2.831787 c 0,-1.807514 -1.53908,-3.581787 -3.10699,-3.581787 -1.22634,0 -1.89301,0.704345 -1.89301,2 0,1.466667 0.66667,2 2.5,2 1.375,0 2.5,-0.188196 2.5,-0.418213 z m -103.25,-9.310255 c -2.0625,-0.215745 -5.4375,-0.215745 -7.5,0 -2.0625,0.215744 -0.375,0.392262 3.75,0.392262 4.125,0 5.8125,-0.176518 3.75,-0.392262 z m 34,0.03914 c -0.9625,-0.251527 -2.5375,-0.251527 -3.5,0 -0.9625,0.251528 -0.175,0.457323 1.75,0.457323 1.925,0 2.7125,-0.205795 1.75,-0.457323 z m 20.5,-0.03407 c -1.7875,-0.221826 -4.7125,-0.221826 -6.5,0 -1.7875,0.221827 -0.325,0.403322 3.25,0.403322 3.575,0 5.0375,-0.181495 3.25,-0.403322 z m 24.75,-4.276602 c 0,-0.55 -0.70156,-1 -1.55902,-1 -0.85746,0 -1.2809,0.45 -0.94098,1 0.33992,0.55 1.04148,1 1.55902,1 0.51754,0 0.94098,-0.45 0.94098,-1 z"
         id="path10005"
         inkscape:connector-curvature="0" />
      <path
         style="fill:#dbdbdb"
         d="m -321.54077,404.14853 c -9.53788,-1.53316 -13.95335,-3.7993 -16.78098,-8.61248 -1.74528,-2.9708 -2.06986,-5.46006 -2.27724,-17.46462 -0.13301,-7.7 -0.70543,-33.575 -1.27205,-57.5 -0.56661,-23.925 -1.69369,-74.1 -2.50461,-111.5 -4.04717,-186.656262 -4.3949,-214.9865915 -2.66009,-216.7213979 1.25635,-1.2563513 129.4763,-1.1794529 136.6786,0.081971 3.66347,0.6416274 3.98642,0.9503924 3.83861,3.6699966 -0.0888,1.6331859 -0.65045,43.7194813 -1.24819,93.5250993 -0.59774,49.805621 -1.53482,115.055621 -2.0824,145.000001 -2.73565,149.59991 -3.09211,158.8185 -6.29357,162.76027 -1.90923,2.35072 -6.70956,4.28222 -14.53984,5.85034 -10.70282,2.14339 -78.93508,2.82739 -90.85824,0.91082 z m 18.88712,-6.58342 c 0.93692,-1.64653 2.51192,-3.0222 3.5,-3.05707 1.39391,-0.0492 1.27565,-0.27221 -0.52773,-0.99524 -1.44976,-0.58124 -2.19771,-1.59207 -1.98794,-2.68661 0.30789,-1.60653 2.74283,-1.80709 28.82424,-2.37428 25.78881,-0.56083 34.62329,-1.13172 38.95991,-2.51765 1.27714,-0.40815 1.28097,-0.58847 0.029,-1.36225 -2.02197,-1.24965 -0.70907,-2.19832 3.71668,-2.6856 2.08031,-0.22904 4.07967,-0.73111 4.44302,-1.11571 0.36335,-0.3846 1.38287,-14.87427 2.26561,-32.19927 0.88274,-17.325 1.82685,-32.87457 2.09802,-34.5546 0.27117,-1.68003 0.93075,-14.95503 1.46574,-29.5 0.53498,-14.54497 1.42027,-37.9204 1.96732,-51.9454 0.54704,-14.025 1.23684,-34.5 1.53288,-45.5 0.58517,-21.74352 1.00151,-35.69287 2.47726,-83 0.53188,-17.050001 0.98614,-44.275001 1.00946,-60.500001 0.0233,-16.225 0.31895,-32.251405 0.65693,-35.614232 0.38846,-3.865079 0.22637,-6.354118 -0.44064,-6.766351 -0.58033,-0.358665 -7.49871,-0.848944 -15.37418,-1.08951 -7.8755,-0.240566 -15.44407,-0.625778 -16.81907,-0.856027 -1.375,-0.230248 -2.86406,-0.476064 -3.30902,-0.546257 -0.44496,-0.07019 -0.52988,-0.5792747 -0.18871,-1.1312934 0.34116,-0.5520187 1.71772,-0.7282351 3.05902,-0.3915919 1.48629,0.3730371 2.43871,0.1792004 2.43871,-0.4963297 0,-0.7047416 -2.45825,-1.0973336 -6.75,-1.0779993 -5.12432,0.023085 -6.32346,0.2787292 -4.97897,1.0614604 4.30554,2.5065759 0.01,3.0534549 -22.12663,2.8167369 -25.04053,-0.267777 -26.77561,-0.443117 -25.04303,-2.5307487 0.95875,-1.1552274 -0.51182,-1.3778573 -9.10137,-1.3778573 -8.60876,0 -10.06156,0.2209027 -9.09692,1.383217 1.75022,2.108882 -0.67098,2.616783 -12.47434,2.616783 l -10.40769,0 0.52542,25.75 c 2.98703,146.391841 7.42292,244.207911 14.34172,316.250001 1.13565,11.825 2.34232,25.8865 2.68148,31.24779 l 0.61665,9.74778 5.40684,-0.63546 c 3.95908,-0.46532 5.40684,-0.30577 5.40684,0.59583 0,0.67721 -0.9,1.46665 -2,1.75431 -2.77015,0.72441 -2.51204,2.28975 0.37755,2.28975 3.25013,0 5.06099,2.31206 3.74166,4.77725 -0.79503,1.48553 -0.47202,2.7109 1.46666,5.56393 3.01498,4.43695 5.35033,4.63699 7.61762,0.6525 z m 2.79651,-16.09596 c 0,-2.11626 4.93035,-2.72563 22.65299,-2.79983 15.79149,-0.0661 19.3322,0.17934 20.35442,1.41104 0.68061,0.82009 1.06988,1.54863 0.86503,1.61897 -1.80405,0.61955 -43.87244,0.39884 -43.87244,-0.23018 z m 19.25,13.39655 c -1.2375,-0.23836 -3.2625,-0.23836 -4.5,0 -1.2375,0.23835 -0.225,0.43337 2.25,0.43337 2.475,0 3.4875,-0.19502 2.25,-0.43337 z"
         id="path10003"
         inkscape:connector-curvature="0" />
      <path
         style="fill:#d3d3d3"
         d="m -313.35714,404.9539 c -9.84217,-1.01145 -17.41906,-2.65504 -20.29093,-4.40152 -6.24463,-3.79759 -6.40191,-4.75706 -7.28593,-44.44646 -2.03294,-91.27258 -3.03404,-135.0746 -3.95469,-173.03449 -0.54691,-22.55 -1.42808,-70.475 -1.95816,-106.500001 -0.53008,-36.025 -1.0614,-69.469577 -1.18071,-74.321281 -0.16641,-6.7665839 0.11933,-9.0408706 1.22674,-9.7640268 0.87844,-0.573635 28.15167,-0.8393717 69.65863,-0.6787187 59.12588,0.2288472 68.39855,0.4638887 69.59294,1.7640265 1.13155,1.2317365 1.23634,5.076847 0.58597,21.5 -0.43562,11 -1.26707,66.35 -1.84768,123.000001 -1.70114,165.98038 -3.69942,248.83782 -6.17272,255.94887 -3.0653,8.81311 -12.84274,10.61531 -59.87346,11.03604 -18.975,0.16974 -36.3,0.12365 -38.5,-0.10244 z m 10.5,-5.81104 c 0,-3.7101 2.58367,-4.42452 14.23971,-3.93746 6.19316,0.25879 16.43529,0.0613 22.76029,-0.43891 11.18097,-0.88421 10.87581,-0.91383 -11,-1.06756 -12.375,-0.087 -23.11735,-0.54919 -23.87189,-1.02716 -3.89921,-2.46999 0.052,-3.09867 22.37189,-3.55961 24.7572,-0.51127 44.40312,-2.04385 45.9433,-3.58403 0.60893,-0.60893 0.52049,-0.9567 -0.2433,-0.9567 -0.66,0 -1.2,-0.45 -1.2,-1 0,-0.55 1.77344,-1 3.94098,-1 2.16754,0 4.22374,-0.45751 4.56934,-1.01669 0.34559,-0.55918 1.03597,-9.22168 1.53417,-19.25 0.4982,-10.02832 1.56338,-29.03331 2.36707,-42.23331 2.50664,-41.16985 4.89365,-103.46782 6.62866,-173 0.54896,-22 1.43506,-53.275001 1.96911,-69.500001 0.53405,-16.225 0.97542,-40.12787 0.98083,-53.117489 l 0.01,-23.61749 -4.91238,-0.971298 c -3.0855,-0.610079 -5.5384,-0.620957 -6.59573,-0.02925 -1.53797,0.860695 -7.96157,0.493873 -16.23314,-0.926999 -4.41934,-0.7591158 -3.09119,-2.337474 1.96677,-2.337474 2.25921,0 3.86205,-0.2456083 3.56186,-0.5457963 -0.76956,-0.7695529 -90.72224,-0.8528345 -91.49037,-0.084705 -0.34678,0.3467758 0.3445,0.6305015 1.53616,0.6305015 1.19167,0 2.16667,0.3858946 2.16667,0.8575436 0,0.9247238 -9.5171,2.1424564 -16.74421,2.1424564 l -4.45084,0 0.62387,37.2499998 c 1.18315,70.643291 4.13382,155.139841 7.09762,203.250001 0.81318,13.2 1.94642,33.225 2.5183,44.5 0.57189,11.275 1.89657,29.95 2.94373,41.5 1.04717,11.55 2.41621,28.65 3.04232,38 0.62611,9.35 1.29045,17.50845 1.47632,18.12989 0.23208,0.77596 1.6935,0.88146 4.66542,0.33678 4.90769,-0.89945 6.13252,-0.39412 3.5759,1.47533 -2.27578,1.66409 -2.21644,2.558 0.16978,2.558 3.21431,0 5.08179,1.12008 5.08179,3.04797 0,1.0087 -0.4188,2.09283 -0.93066,2.40918 -0.51186,0.31635 0.24307,2.3679 1.67763,4.55901 2.02177,3.088 3.24295,3.98384 5.43066,3.98384 1.77939,0 2.82237,-0.52792 2.82237,-1.42857 z m 4.62398,-17.37083 c -0.96222,-1.5569 0.51112,-2.14086 7.15281,-2.83506 4.12432,-0.43108 6.1732,-0.25547 6.68521,0.57297 1.09992,1.77971 0.4262,2.0538 -6.67938,2.71733 -4.15232,0.38775 -6.73932,0.22323 -7.15864,-0.45524 z m 27.88355,0.0513 c -4.94586,-0.18526 -9.42336,-0.76773 -9.95,-1.29437 -0.61004,-0.61004 -0.43132,-0.99936 0.49247,-1.07278 3.52574,-0.28025 22.4964,0.35421 22.92104,0.76657 0.63617,0.61779 -2.21655,2.36649 -3.47104,2.12773 -0.55,-0.10468 -5.04661,-0.3419 -9.99247,-0.52715 z M -285.30714,-2.3040142 c 0.52776,-0.4863458 7.61686,-0.5581923 15.95,-0.1616498 l 15,0.7137935 -15.95,0.1616497 c -9.16725,0.092908 -15.54601,-0.2106334 -15,-0.7137934 z m 46.95,394.8754442 c 0.78687,-1.27319 -1.52988,-1.27319 -3.5,0 -1.21948,0.78809 -1.09025,0.97224 0.69098,0.98469 1.20504,0.008 2.4691,-0.43469 2.80902,-0.98469 z m 18,-396.000001 c 0.33992,-0.55 -0.11008,-1 -1,-1 -0.88992,0 -1.33992,0.45 -1,1 0.33992,0.55 0.78992,1 1,1 0.21008,0 0.66008,-0.45 1,-1 z"
         id="path10001"
         inkscape:connector-curvature="0" />
      <path
         style="fill:#cbcbcb"
         d="m -315.35714,404.54856 c -15.03839,-1.49725 -20.15184,-3.61631 -22.94865,-9.51016 -1.70683,-3.59688 -2.68912,-30.18803 -4.0807,-110.46697 -0.31938,-18.425 -0.99885,-48.125 -1.50994,-66 -0.51109,-17.875 -1.41628,-63.55 -2.01153,-101.5 -0.59526,-37.950001 -1.38984,-81.070261 -1.76573,-95.8228 -0.60843,-23.8783979 -0.50779,-26.9816029 0.91679,-28.2694575 1.36244,-1.2316798 10.87304,-1.4336175 64,-1.3589061 34.31987,0.048263 65.2499,0.4288665 68.73341,0.8457847 6.05564,0.724761 8.75281,2.3474502 7.43798,4.474893 -0.32803,0.5307537 -0.95195,30.4772389 -1.38649,66.5477459 -1.87213,155.40013 -2.95647,227.4804 -3.84488,255.58274 -0.52162,16.5 -1.05171,38.1 -1.17798,48 -0.20547,16.10875 -0.54479,20.12388 -2.38637,28.23784 -0.72126,3.17787 -6.80577,5.9515 -17.15014,7.81791 -10.44814,1.88514 -68.21131,2.87642 -82.82577,1.42138 z m 12.92311,-5.31692 c -1.1887,-3.09769 2.27905,-3.84476 17.79043,-3.83265 8.40756,0.007 19.11146,-0.33228 23.78646,-0.75298 6.75028,-0.60746 3.83376,-0.79679 -14.16821,-0.91975 -12.46752,-0.0852 -23.38002,-0.42797 -24.25,-0.76182 -0.86999,-0.33384 -1.58179,-1.23384 -1.58179,-2 0,-1.12172 2.62261,-1.39301 13.46636,-1.39301 15.23407,0 47.24574,-1.77957 52.53364,-2.92042 1.925,-0.41531 3.3875,-1.27812 3.25,-1.91734 -0.1375,-0.63923 0.0875,-1.08957 0.5,-1.00076 0.4125,0.0888 1.94892,-0.33538 3.41426,-0.94265 3.16874,-1.3132 3.06948,-0.55537 5.33319,-40.71883 4.10026,-72.74848 4.84458,-92.02918 8.51223,-220.5 0.52601,-18.425 1.26175,-53.170553 1.63498,-77.212338 l 0.6786,-43.712337 -4.18379,-0.669015 c -4.33931,-0.693884 -5.92167,-1.804852 -4.13947,-2.906311 1.49939,-0.926675 0.20359,-2.5 -2.05902,-2.5 -2.06028,0 -2.61244,1.4669791 -0.94098,2.5 0.55,0.3399187 1,1.0414763 1,1.559017 0,1.030653 -13.14462,1.276947 -16.73875,0.313638 -4.07278,-1.0915956 -1.24424,-2.372655 5.23875,-2.372655 3.51008,0 6.66008,-0.45 7,-1 0.40897,-0.6617278 -16.82295,-1 -50.94098,-1 -30.98624,0 -51.55902,0.3697568 -51.55902,0.9266758 0,0.5096717 0.7875,1.1048945 1.75,1.3227174 2.82879,0.6401812 -5.66873,2.7387868 -11.11497,2.7450298 l -4.86497,0.005577 0.5783,42.25 c 0.61309,44.792071 2.02599,95.945041 3.65288,132.250001 0.54223,12.1 1.2317,27.85 1.53217,35 0.30047,7.15 1.21307,23.575 2.02801,36.5 0.81494,12.925 2.14058,34.975 2.94588,49 0.8053,14.025 2.59287,38.775 3.97238,55 1.37951,16.225 2.51093,30.51782 2.51426,31.76182 0.006,2.08856 0.32117,2.21143 4.11978,1.604 3.87456,-0.61956 4.07413,-0.53304 3.43262,1.48819 -0.53136,1.67416 -0.26859,2.14599 1.19514,2.14599 1.03195,0 2.74977,0.64759 3.81739,1.4391 1.57048,1.1643 1.72571,1.79277 0.81296,3.29134 -0.89695,1.47263 -0.74324,2.32762 0.75,4.17169 1.033,1.27569 1.87817,2.94459 1.87817,3.70865 0,0.95226 1.24828,1.38922 3.96861,1.38922 2.9059,0 3.83095,-0.35877 3.4545,-1.33979 z m 5.07689,-18.66021 c 0.33992,-0.55 3.29148,-1 6.55902,-1 3.29399,0 5.94098,0.44555 5.94098,1 0,0.56503 -2.85301,1 -6.55902,1 -4.11803,0 -6.32901,-0.37216 -5.94098,-1 z m 30.5,0 c -1.07384,-0.69397 -0.008,-0.97372 3.75,-0.98469 2.8875,-0.008 5.25,0.43469 5.25,0.98469 0,1.27893 -7.021,1.27893 -9,0 z m -11.23834,-0.70726 c 1.24391,-0.23919 3.04391,-0.23011 4,0.0202 0.95609,0.25029 -0.0617,0.446 -2.26166,0.4349 -2.2,-0.0111 -2.98225,-0.21589 -1.73834,-0.45508 z m 41.23834,12.6576 c 0,-0.69368 -2.11961,-0.8183 -6.25,-0.36746 -8.36448,0.91299 -8.51271,1.41712 -0.41667,1.41712 3.98804,0 6.66667,-0.42175 6.66667,-1.04966 z"
         id="path9999"
         inkscape:connector-curvature="0" />
      <path
         style="fill:#bbbbbb"
         d="m -313.35714,404.45617 c -17.04203,-1.6 -23.25722,-4.33751 -25.35436,-11.16747 -1.37445,-4.4763 -2.11553,-26.58251 -2.68917,-80.21727 -0.27059,-25.3 -0.91708,-56.575 -1.43666,-69.5 -1.02279,-25.44318 -1.5458,-48.77301 -3.06006,-136.5 -0.54113,-31.350001 -1.22967,-69.669738 -1.53008,-85.154972 -0.43777,-22.56563 -0.28649,-28.3198518 0.76206,-28.9855166 1.81535,-1.1524609 135.39283,-0.691382 137.47622,0.4745364 1.50495,0.8422155 1.63994,4.4368091 1.45693,38.7970832 -0.20936,39.308956 -2.58893,191.127249 -3.83019,244.368869 -0.39109,16.775 -0.67075,32.525 -0.62147,35 0.28621,14.37342 -1.87663,75.43593 -2.84702,80.37876 -1.08623,5.53285 -1.39456,5.98431 -5.24017,7.6725 -5.3266,2.33835 -13.13682,3.66538 -28.98125,4.92422 -14.95479,1.18815 -51.02674,1.13709 -64.10478,-0.0907 z m 11.68358,-5.63474 0.31642,-2.75 14.5,-0.19656 c 21.05848,-0.28547 49.33884,-2.23199 50.5,-3.47589 0.70708,-0.75746 -0.4646,-0.87942 -4,-0.41635 -10.3623,1.35725 -56.0699,1.88935 -58.33135,0.67906 -4.65919,-2.49352 -1.94294,-3.09031 14.08135,-3.0938 19.03527,-0.004 46.62585,-1.61667 51.883,-3.03227 7.02041,-1.8904 7.79231,-3.23877 8.85277,-15.46419 2.46572,-28.42595 7.46245,-139.56798 8.54204,-190 0.28257,-13.2 0.72752,-28.5 0.98877,-34 0.81125,-17.07868 2.43546,-98.783024 2.46004,-123.750001 l 0.0234,-23.75 -3.44098,0 c -4.05926,0 -5.62709,-1.7976168 -2.94942,-3.3816772 1.41595,-0.8376497 -12.03881,-1.2438112 -53.6096,-1.6183228 -30.525,-0.275 -56.29698,-0.3325358 -57.27107,-0.1278573 -1.37425,0.2887587 -1.51706,0.6782202 -0.63738,1.7381669 1.48585,1.7903389 0.1356,2.2586889 -7.53675,2.6142054 l -5.94521,0.275485 0.1644,28.5 c 0.18578,32.206066 1.75014,94.631111 3.27031,130.500001 1.79846,42.43536 3.92597,85.60691 4.95268,100.5 0.54978,7.975 1.44161,23.5 1.98185,34.5 0.54024,11 1.64312,27.425 2.45086,36.5 0.80773,9.075 1.95694,23.25 2.55379,31.5 1.62546,22.46782 1.63276,22.5 5.10442,22.5 1.88155,0 2.9121,0.51479 2.9121,1.45469 0,0.87163 1.40726,1.71869 3.51105,2.11336 4.42607,0.83034 5.36948,2.30052 2.80749,4.37509 -1.98776,1.60959 -1.98572,1.62977 0.34089,3.38474 1.28732,0.97102 2.34057,2.61732 2.34057,3.65844 0,1.45101 0.8755,1.98453 3.75,2.28521 2.0625,0.21575 4.05761,0.46791 4.43358,0.56037 0.37597,0.0924 0.82597,-1.0694 1,-2.5819 z m 8.31642,-18.25 c 1.1,-0.47269 3.125,-0.85943 4.5,-0.85943 2.27881,0 2.32305,0.076 0.5,0.85943 -1.1,0.47269 -3.125,0.85943 -4.5,0.85943 -2.27881,0 -2.32305,-0.076 -0.5,-0.85943 z m 58,-381.912582 -3,-0.6759505 4,-0.6947286 c 6.9114,-1.2003869 11.5,-0.8878594 11.5,0.7832601 0,1.139413 -1.14186,1.471558 -4.75,1.381685 -2.6125,-0.06507 -6.1,-0.422493 -7.75,-0.794266 z M -336.19486,362.32143 c -0.27741,-0.6875 -0.50439,-0.125 -0.50439,1.25 0,1.375 0.22698,1.9375 0.50439,1.25 0.27741,-0.6875 0.27741,-1.8125 0,-2.5 z"
         id="path9997"
         inkscape:connector-curvature="0" />
      <path
         style="fill:#b3b3b3"
         d="m -311.84925,404.45455 c -18.98419,-1.68369 -24.83547,-4.21578 -27.03095,-11.6974 -0.66636,-2.27077 -1.24428,-19.80949 -1.50539,-45.68572 -0.24671,-24.44817 -0.0643,-40.62062 0.43639,-38.69925 1.382,5.3029 2.09206,4.93802 2.09206,-1.07507 0,-5.255 -1.2672,-8.30035 -2.28109,-5.48191 -1.30338,3.6232 -1.75034,-11.18581 -4.74592,-157.24377 -1.43938,-70.181515 -2.64464,-139.797133 -2.51047,-145.004555 0.0638,-2.4775051 0.46244,-5.0650051 0.88579,-5.7500002 1.00169,-1.6207779 7.33503,-1.6171676 7.98941,0.00455 0.40351,1 0.52017,1 0.58333,0 0.0539,-0.8531332 1.74579,-1.1991893 5.32895,-1.0899629 3.59846,0.1096928 4.22762,0.2869134 2,0.5633585 -3.46602,0.4301291 -4.25568,1.6767118 -1.68662,2.6625528 3.06477,1.1760636 0.22968,2.6140516 -5.15378,2.6140516 -4.01263,0 -5.63051,0.412116 -6.06523,1.544969 -0.32607,0.849733 -0.0725,24.5872332 0.56344,52.7500002 2.027,89.762086 3.7353,137.112366 6.62771,183.705036 0.80237,12.925 1.90276,32.725 2.44531,44 0.87746,18.23496 1.93278,32.95786 6.34353,88.5 l 1.19119,15 2.74223,-0.32157 c 1.88776,-0.22136 2.74222,0.13479 2.74222,1.14302 0,1.57039 2.05175,2.67855 4.95934,2.67855 0.98768,0 2.34978,0.66754 3.02691,1.48343 1.02241,1.23193 0.76535,1.66051 -1.51625,2.52798 -2.93111,1.1144 -2.81667,1.63278 0.75343,3.41266 1.24237,0.61939 2.4274,2.01486 2.63339,3.10105 0.52973,2.79315 1.95243,3.44211 7.58431,3.45957 4.46476,0.0138 4.75763,-0.11887 3.03775,-1.37648 -1.61262,-1.17917 -1.70058,-1.63615 -0.57584,-2.99138 1.10463,-1.331 3.4491,-1.56883 13.96225,-1.41634 16.67344,0.24185 48.50868,-1.19555 50.24492,-2.2686 1.05954,-0.65484 1.10205,-1.11963 0.18615,-2.03553 -0.90962,-0.90962 -2.19264,-0.91563 -5.49164,-0.0257 -5.02962,1.35674 -55.62531,2.06883 -57.57103,0.81026 -3.21138,-2.07724 1.19363,-2.68106 19.57533,-2.68333 25.93415,-0.003 45.26037,-1.49233 50.72196,-3.90825 5.27608,-2.33386 5.07902,-1.32422 6.95394,-35.62791 0.81049,-14.82878 1.92534,-34.83641 2.47745,-44.46141 0.55211,-9.625 1.47546,-29.875 2.0519,-45 0.57644,-15.125 1.47051,-36.95 1.98683,-48.5 0.51631,-11.55 1.17159,-33.6 1.45616,-49 0.28457,-15.4 0.93956,-41.95 1.45553,-59 0.51598,-17.050005 1.08418,-47.406859 1.26267,-67.459681 l 0.32454,-36.4596962 -3.75,-0.889663 c -4.17786,-0.991171 -4.82769,-2.1758993 -1.64938,-3.0070456 1.23522,-0.3230189 1.81301,-1.0146715 1.4025,-1.6788932 -0.48676,-0.7875938 0.57594,-1.0350329 3.51016,-0.817308 l 4.20827,0.3122618 -0.12135,32.5000002 c -0.16644,44.571848 -2.94296,213.318885 -4.15457,252.500005 -0.54425,17.6 -0.86779,34.025 -0.71898,36.5 0.72708,12.09231 0.251,21.08698 -1.16235,21.96037 -1.19448,0.73814 -1.21435,1.15391 -0.11825,2.47462 1.04815,1.26295 1.17914,6.03085 0.64084,23.32621 -0.66931,21.50436 -1.80528,31.5094 -3.86566,34.04658 -2.70994,3.33704 -13.42587,5.55559 -34.72123,7.1884 -14.79344,1.13429 -46.60375,1.07434 -59.99211,-0.11306 z m 35.24211,-2.60652 c -1.7875,-0.22182 -4.7125,-0.22182 -6.5,0 -1.7875,0.22183 -0.325,0.40333 3.25,0.40333 3.575,0 5.0375,-0.1815 3.25,-0.40333 z m 22.75,-0.2766 c 0,-0.55 -1.6875,-0.96837 -3.75,-0.92971 -3.0082,0.0564 -3.35437,0.24029 -1.75,0.92971 2.77889,1.19413 5.5,1.19413 5.5,0 z m -81.31689,-18.1875 c -0.31922,-0.79773 -0.55618,-0.56078 -0.60416,0.60417 -0.0434,1.05416 0.19293,1.64479 0.52522,1.3125 0.33229,-0.33229 0.36782,-1.19479 0.079,-1.91667 z m -0.53104,-21.8125 c -0.877,-5.25286 -0.92352,-5.04691 -1.03517,4.58333 -0.0643,5.54584 0.2206,10.42441 0.6331,10.84127 1.1575,1.16974 1.42963,-9.27001 0.40207,-15.4246 z m -0.44634,-13.25 c -0.23835,-1.2375 -0.43337,-0.225 -0.43337,2.25 0,2.475 0.19502,3.4875 0.43337,2.25 0.23836,-1.2375 0.23836,-3.2625 0,-4.5 z m -1.01274,-18.48097 c -0.25354,-0.97297 -0.47766,-0.41903 -0.49804,1.23097 -0.0204,1.65 0.18706,2.44606 0.46099,1.76903 0.27392,-0.67703 0.29059,-2.02703 0.037,-3 z m 107.30701,-331.183775 -3.5,-0.6514621 4.31067,-0.7384164 c 4.46711,-0.7652139 6.64161,-0.2361979 5.64662,1.3737205 -0.62098,1.004768 -1.13898,1.006064 -6.45729,0.01616 z m -83.75,-5.832024 c 6.4625,-0.1741864 17.0375,-0.1741864 23.5,0 6.4625,0.1741864 1.175,0.3167026 -11.75,0.3167026 -12.925,0 -18.2125,-0.1425162 -11.75,-0.3167026 z m 45.03651,0.00669 c 3.18258,-0.1990498 8.13259,-0.1972039 11,0.0041 2.86742,0.2013084 0.26349,0.3641674 -5.78651,0.3619112 -6.05,-0.00226 -8.39607,-0.1669611 -5.21349,-0.366011 z m 36.96349,0.00504 c 2.6125,-0.2059987 6.8875,-0.2059987 9.5,0 2.6125,0.2059986 0.475,0.3745429 -4.75,0.3745429 -5.225,0 -7.3625,-0.1685443 -4.75,-0.3745429 z"
         id="path9995"
         inkscape:connector-curvature="0" />
      <path
         style="fill:#a3a3a3"
         d="m -299.85714,404.51281 c -27.18588,-0.98832 -34.212,-2.70446 -37.70007,-9.20831 -1.52034,-2.83483 -1.82338,-8.03374 -2.46016,-42.2065 -0.39943,-21.43539 -0.50231,-39.19736 -0.22863,-39.47104 0.27368,-0.27369 0.91625,0.16436 1.42792,0.97343 0.61501,0.97247 0.9355,-1.53079 0.94563,-7.38595 0.0124,-7.15398 -0.25191,-8.75445 -1.37443,-8.32369 -1.56617,0.60099 -2.61026,-3.15308 -2.61026,-9.3853 0,-3.83485 1.39119,-6.03288 2.33564,-3.69025 0.27856,0.69093 0.54199,-0.23283 0.58541,-2.05279 0.0434,-1.81996 -0.33865,-3.05092 -0.84905,-2.73548 -1.60491,0.99189 -2.23777,-3.19428 -2.07816,-13.74617 0.0849,-5.61513 -0.30834,-25.28433 -0.87394,-43.70933 -1.68993,-55.05019 -3.0868,-120.23142 -3.78492,-176.612822 l -0.65765,-53.1128219 3.13693,-0.4604033 c 1.72531,-0.2532219 3.27893,-0.03439 3.45249,0.4862934 0.17356,0.5206831 2.00405,1.2286343 4.06775,1.5732247 5.58202,0.9320688 4.4801,2.5839081 -1.9548,2.9303644 l -5.64329,0.3038367 0.65512,34.196163 c 2.04099,106.535215 3.47429,148.167085 7.15055,207.696165 0.79819,12.925 1.90929,32.5 2.46909,43.5 0.95695,18.80367 1.95618,33.12948 5.51337,79.04483 0.8115,10.47466 1.47546,19.63962 1.47546,20.36658 0,0.87556 0.85589,1.15813 2.53541,0.83707 1.76489,-0.33738 2.82896,0.0638 3.50133,1.32016 0.55355,1.03432 2.34934,1.93858 4.2064,2.1181 4.59858,0.44455 5.22381,3.81326 0.70774,3.81326 -2.7273,0 -3.01328,0.21989 -1.95088,1.5 0.68469,0.825 1.83265,1.5 2.55102,1.5 1.93914,0 4.44028,2.8591 3.84902,4.3999 -0.28324,0.73811 0.29838,1.68314 1.29249,2.10007 3.12158,1.3092 55.78016,1.90078 57.91646,0.65065 1.41711,-0.82927 -4.34872,-1.09922 -23.00754,-1.07716 -15.45522,0.0183 -25.28127,-0.35328 -25.90762,-0.97963 -0.67875,-0.67875 -0.56425,-1.54504 0.34979,-2.64639 1.12164,-1.35149 2.48281,-1.51697 7.7969,-0.94788 9.73302,1.04232 55.91204,-1.49649 57.28377,-3.14932 1.80009,-2.16897 -1.38853,-2.68368 -8.71812,-1.40728 -8.50363,1.48084 -53.29228,1.57093 -54.75307,0.11014 -0.58876,-0.58876 -0.63422,-1.04181 -0.1031,-1.0275 6.56485,0.17692 44.87248,-1.239 54.21081,-2.00373 13.23133,-1.08354 18.42077,-2.62412 20.2306,-6.00582 0.63382,-1.1843 1.5634,-10.33489 2.06574,-20.33466 0.50235,-9.99976 1.36485,-25.83139 1.91667,-35.18139 2.6269,-44.50953 4.56951,-93.64249 6.50398,-164.5 0.81834,-29.975 1.94561,-68.180951 2.50505,-84.90212 0.55943,-16.721165 1.01715,-41.069728 1.01715,-54.107918 l 0,-23.705799 -4.25,-0.980165 -4.25,-0.9801647 2.75,-1.1371663 c 1.5125,-0.6254415 2.75,-1.5983042 2.75,-2.1619172 0,-1.2885693 4.27491,-1.3487013 5.55,-0.078068 0.57809,0.5760756 0.70329,8.3078062 0.31981,19.7500002 -0.34661,10.341824 -0.6768,37.478317 -0.73376,60.303317 -0.16093,64.490231 -2.16756,173.861461 -3.49822,190.670041 -0.79139,9.99654 -0.89672,18.01084 -0.30886,23.5 0.65431,6.10962 0.52158,10.47993 -0.49795,16.39592 -0.76453,4.43628 -1.08412,9.16128 -0.71021,10.5 0.3739,1.33872 0.72469,6.34918 0.77951,11.13435 0.0822,7.17268 -0.195,8.86522 -1.57864,9.63954 -1.56657,0.8767 -1.55873,1.38105 0.11776,7.5745 1.45045,5.3584 1.66725,8.60293 1.12661,16.86045 -0.3682,5.62386 -0.87088,14.5002 -1.11706,19.7252 -0.62971,13.36499 -1.39689,16.06545 -5.19414,18.28317 -4.64531,2.713 -18.38593,4.6202 -37.73316,5.23736 -9.36193,0.29864 -18.37169,0.675 -20.02169,0.83636 -1.65,0.16137 -11.775,-0.0256 -22.5,-0.41551 z m -34.54067,-21.19138 c -0.22821,-1.7875 -0.69829,-11.2375 -1.04462,-21 -0.34633,-9.7625 -1.02368,-17.75 -1.50522,-17.75 -0.48587,0 -0.64173,7.00946 -0.3502,15.75 0.63702,19.09879 1.30441,26.25 2.4498,26.25 0.47584,0 0.67845,-1.4625 0.45024,-3.25 z m 118.20295,-6 c -0.27741,-0.6875 -0.50439,-0.125 -0.50439,1.25 0,1.375 0.22698,1.9375 0.50439,1.25 0.27741,-0.6875 0.27741,-1.8125 0,-2.5 z m -120.69269,-46 c -0.0244,-4.20368 -0.24274,-4.8848 -1.09582,-3.41756 -0.96492,1.65959 -0.42196,8.66756 0.67154,8.66756 0.25008,0 0.44101,-2.3625 0.42428,-5.25 z M -227.58811,-2.1215617 c 0.97297,-0.2535434 2.32297,-0.2368691 3,0.037054 0.67703,0.2739231 -0.11903,0.4813677 -1.76903,0.460988 -1.65,-0.02038 -2.20394,-0.2444986 -1.23097,-0.498042 z"
         id="path9993"
         inkscape:connector-curvature="0" />
      <path
         style="fill:#939393"
         d="m -311.35714,403.87723 c -9.48842,-0.63328 -18.80996,-2.37582 -21.63446,-4.0443 -5.63583,-3.32916 -5.87616,-4.92372 -6.85922,-45.50888 -0.49628,-20.48894 -0.54507,-37.61079 -0.1084,-38.04854 0.43666,-0.43776 1.09206,7.43724 1.45645,17.5 1.52118,42.00795 1.98049,50.7197 2.73882,51.9467 0.43893,0.71021 0.97005,1.07933 1.18026,0.82026 0.2102,-0.25907 0.0354,-7.89604 -0.38843,-16.97104 -0.42384,-9.075 -1.00773,-23.925 -1.29754,-33 -1.74408,-54.61359 -1.83387,-56.15732 -3.29934,-56.71967 -1.13338,-0.43492 -1.39495,-2.75947 -1.25633,-11.16481 0.0963,-5.83853 -0.2942,-18.04052 -0.86775,-27.11552 -2.03083,-32.13272 -6.07405,-244.7185923 -4.69675,-246.94711 0.48005,-0.7767298 7.14186,0.4335266 11.03269,2.0043167 1.53174,0.618386 1.06347,0.8268631 -2,0.8904248 -7.03961,0.1460597 -6.72824,-1.2987057 -6.6117,30.6784205 0.0579,15.880671 0.31077,34.273947 0.56199,40.873947 0.25123,6.6 0.92573,28.875 1.4989,49.500001 0.57317,20.625 1.47198,46.275 1.99736,57 0.52537,10.725 1.22924,26.25 1.56415,34.5 0.33491,8.25 1.24731,24.45 2.02757,36 0.78025,11.55 1.88167,31.125 2.4476,43.5 0.56593,12.375 1.47304,27.225 2.0158,33 0.54276,5.775 1.66878,20.175 2.50227,32 2.06076,29.23685 2.18763,30 4.98716,30 1.24521,0 2.82421,0.675 3.5089,1.5 0.68469,0.825 2.20229,1.50689 3.37245,1.51531 1.17015,0.008 2.79879,0.43969 3.61919,0.95836 2.10307,1.32961 0.28389,2.80526 -3.99164,3.23789 l -3.5,0.35415 3,1.32397 c 5.3973,2.38195 5.99613,2.80503 6.32332,4.4675 0.22205,1.12821 -0.40445,1.66974 -2,1.72877 -6.55357,0.24246 5.05739,1.93339 20.09574,2.92659 9.11951,0.6023 17.25594,1.24367 18.08094,1.42527 1.92539,0.42382 -28.88873,0.30923 -35.5,-0.13201 z m 39.5,-0.3058 c 3.64194,-1.16635 12.77915,-1.16635 13.5,0 0.39484,0.63887 -2.38261,0.964 -7.69098,0.90032 -5.69376,-0.0683 -7.52215,-0.35168 -5.80902,-0.90032 z m 21,-0.93608 c 0.825,-0.56831 3.2625,-1.04019 5.41667,-1.04861 2.15416,-0.008 3.66738,-0.2646 3.36269,-0.56928 -0.30468,-0.30469 -13.43991,-0.51955 -29.1894,-0.47747 -25.11097,0.0671 -28.70938,-0.11619 -29.23624,-1.48915 -0.33044,-0.86112 -0.29389,-1.87258 0.0812,-2.24769 0.37512,-0.37511 5.4153,-0.54385 11.2004,-0.37497 13.50486,0.39422 51.48007,-1.83653 53.11466,-3.12008 1.80078,-1.41406 1.55082,-2.29681 -0.96874,-3.42107 -1.98725,-0.88674 -1.756,-1.06402 2.21649,-1.69925 2.43938,-0.39007 5.87377,-1.80645 7.63199,-3.14751 2.94802,-2.24856 3.24098,-3.0036 3.76515,-9.70356 2.7517,-35.17292 7.51616,-134.46159 8.6262,-179.76528 0.53231,-21.725 1.41792,-55.025 1.96803,-74 0.55011,-18.975 1.29937,-54.412501 1.66503,-78.750001 l 0.66482,-44.25 -2.81447,0 c -2.75113,0 -2.77374,-0.045011 -1.0045,-2 1.93294,-2.1358743 4.98374,-2.6443412 6,-1 0.33992,0.55 -0.16953,1 -1.13211,1 -1.55693,0 -1.57968,0.1380052 -0.20614,1.25 1.37925,1.116611 1.46295,9.093265 0.78433,74.75 -1.32347,128.046921 -2.03659,168.143121 -3.22803,181.500001 -0.63778,7.15 -1.30449,22.225 -1.48157,33.5 -0.42235,26.89187 -0.39653,30.08198 0.31774,39.25 0.38033,4.88181 0.2353,7.75 -0.39188,7.75 -0.54762,0 -1.22265,-0.5625 -1.50006,-1.25 -0.27741,-0.6875 -0.53991,1.76094 -0.58333,5.44098 -0.0434,3.68004 0.37105,6.9691 0.92105,7.30902 1.14974,0.71058 1.17639,16.29317 0.0419,24.5 -0.72327,5.23208 -0.77202,5.30515 -1.00078,1.5 -0.21354,-3.55185 -0.33018,-3.71991 -1.04112,-1.5 -0.44035,1.375 -0.8455,5.35463 -0.90032,8.84362 -0.0858,5.45706 -0.37919,6.41671 -2.09968,6.86663 -1.1,0.28766 -2,0.90603 -2,1.37416 0,1.67535 4.52423,-0.84008 5.73526,-3.18875 1.17431,-2.27747 1.23571,-2.19832 1.24442,1.60434 0.005,2.2 -0.44637,5.64005 -1.00314,7.64455 -1.61142,5.80147 -8.10572,8.00806 -27.47654,9.33578 -6.32807,0.43374 -8.55468,0.31011 -7.5,-0.41641 z m -47.44156,-10.96936 c -0.47731,-0.7723 3.38918,-1.09893 13.13254,-1.10939 7.59496,-0.008 20.26823,-0.45585 28.16281,-0.99487 14.491,-0.98941 17.99862,-0.65311 14.52463,1.39259 -2.62966,1.54849 -54.891,2.21479 -55.81998,0.71167 z m -42.4091,-100.59456 c 0.0195,-4.32034 0.13815,-4.61461 0.8729,-2.16487 0.47402,1.58048 0.46404,3.79317 -0.0226,5 -0.66691,1.65399 -0.86758,0.98494 -0.85033,-2.83513 z"
         id="path9991"
         inkscape:connector-curvature="0" />
      <path
         style="fill:#777777"
         d="m -320.89156,402.5435 c -3.59393,-0.42079 -8.17143,-1.44907 -10.17222,-2.28505 -6.14595,-2.56794 -7.0435,-5.01674 -7.88925,-21.52451 -0.44707,-8.72614 -0.3773,-15.04713 0.17234,-15.61251 0.56668,-0.58291 0.96207,2.89481 1.02323,9 0.11275,11.25492 0.84075,14.95 2.9454,14.95 0.80021,0 1.35051,-0.53822 1.2229,-1.19605 -0.12761,-0.65783 -0.44472,-6.95783 -0.70469,-14 -1.82936,-49.55406 -5.21512,-114.82758 -6.5255,-125.80395 -2.30069,-19.2718 -5.16406,-178.756264 -3.0342,-169.000001 0.48027,2.2 1.3441,23.350001 1.91963,47.000001 1.15906,47.62973 2.38705,77.47654 4.60803,112 0.8138,12.65 1.92775,32.675 2.47543,44.5 0.54769,11.825 1.66654,30.05 2.48632,40.5 1.63301,20.81628 4.50944,61.22057 4.50794,63.32157 -5.6e-4,0.79317 0.90276,1.20314 2.25932,1.02537 1.24314,-0.16291 3.36827,0.47989 4.7225,1.42843 1.35424,0.94855 3.48712,1.72463 4.73975,1.72463 1.25262,0 2.27749,0.45 2.27749,1 0,0.55 -1.8,1 -4,1 -2.2,0 -4,0.45728 -4,1.01618 0,0.93518 4.02499,3.07181 8.25,4.37943 2.71321,0.83973 2.06976,2.29044 -1.31628,2.96765 -3.72181,0.74436 -2.95655,2.63674 1.06628,2.63674 1.58508,0 3.16008,0.45 3.5,1 0.68586,1.10975 -0.85253,1.10567 -10.53442,-0.0279 z m 15.78442,0.36565 c 0.6875,-0.27741 1.8125,-0.27741 2.5,0 0.6875,0.27741 0.125,0.50439 -1.25,0.50439 -1.375,0 -1.9375,-0.22698 -1.25,-0.50439 z m 69.25,-2.46456 c 0,-0.82457 -7.71223,-0.95442 -28.75,-0.48409 -15.8125,0.35352 -30.2348,0.2981 -32.04956,-0.12315 -5.96973,-1.38574 -2.91636,-2.76405 6.29956,-2.84367 4.95,-0.0428 17.55,-0.4609 28,-0.9292 10.45,-0.46829 19.62296,-0.73719 20.38435,-0.59755 3.00067,0.5503 6.15265,-1.06638 7.62314,-3.90999 0.84913,-1.64203 2.11181,-2.98551 2.80596,-2.98551 0.69416,0 2.70553,-1.2375 4.46972,-2.75 3.118,-2.67316 3.23604,-3.07133 4.2245,-14.25 1.30987,-14.81367 3.84506,-60.80792 5.04345,-91.5 0.5154,-13.2 1.41621,-32.1 2.00181,-42 0.58559,-9.9 1.23364,-29.475 1.44011,-43.5 0.20647,-14.025 0.63138,-33.375 0.94425,-43 2.02626,-62.335511 2.53398,-79.166604 2.54749,-84.450001 0.0107,-4.175083 0.33007,-5.635152 1.07068,-4.894544 1.89359,1.893595 -1.49069,170.426205 -4.01306,199.844545 -0.51874,6.05 -1.22775,24.05 -1.57558,40 -0.34784,15.95 -0.80028,33.05 -1.00542,38 -0.20515,4.95 -0.64419,16.875 -0.97564,26.5 -0.44786,13.00512 -0.95066,17.75685 -1.95758,18.5 -0.74522,0.55 -2.18142,1.5792 -3.19156,2.28711 -1.57911,1.10664 -1.22206,1.20715 2.54648,0.71689 l 4.3831,-0.5702 -0.67696,4.23348 c -0.37233,2.32842 -1.16115,4.8169 -1.75293,5.52995 -2.48216,2.99083 -17.83631,5.72478 -17.83631,3.17593 z m -25,-9.92874 c 12.67768,-1.11253 18.21107,-1.09496 17.5,0.0556 -0.36796,0.59537 -5.75322,0.93735 -13.30902,0.84517 l -12.69098,-0.15485 8.5,-0.74592 z M -344.77819,69.988096 c 0.048,-1.164943 0.28494,-1.4019 0.60416,-0.604167 0.28887,0.721875 0.25335,1.584375 -0.0789,1.916667 -0.33229,0.332291 -0.56864,-0.258334 -0.52522,-1.3125 z m -1.06364,-22.166667 c 0.0103,-9.892764 0.33453,-14.256044 0.98469,-13.25 1.30842,2.024633 1.30842,28 0,28 -0.62216,0 -0.99421,-5.573125 -0.98469,-14.75 z m -0.28432,-26.125 c -1.0241,-4.728294 -0.88456,-18.333919 0.20569,-20.056793 1.06133,-1.677161 1.85853,13.156608 1.04431,19.431793 l -0.51901,4 -0.73099,-3.375 z m 136.4269,-20.125 c 0,-1.375 0.22698,-1.9375 0.50439,-1.25 0.27741,0.6875 0.27741,1.8125 0,2.5 -0.27741,0.6875 -0.50439,0.125 -0.50439,-1.25 z m -136.15789,-4.0313848 c 0,-1.2889371 2.84907,-2.4528737 3.76417,-1.5377808 0.37285,0.3728514 0.0159,1.096553 -0.79313,1.6082258 -1.93575,1.2242078 -2.97104,1.1996598 -2.97104,-0.070445 z"
         id="path9987"
         inkscape:connector-curvature="0" />
      <path
         style="fill:#676767"
         d="m -324.35714,401.91085 c -9.79446,-2.09883 -12.97106,-5.20124 -14.15269,-13.82219 -0.62464,-4.55724 0.89423,-6.52557 1.94244,-2.51723 0.28765,1.1 1.18006,2 1.98311,2 1.1714,0 1.38908,-1.33463 1.10089,-6.75 -1.57908,-29.6724 -2.40858,-48.6089 -2.88015,-65.75 -0.9853,-35.81449 -2.67215,-70.97759 -3.45401,-72 -1.84715,-2.41547 -2.01252,-7.00281 -4.50597,-125 -0.31477,-14.89584 -0.18123,-25.145831 0.31267,-24.000001 0.47414,1.1 1.16279,14.375001 1.53033,29.500001 0.36753,15.125 1.10442,36.95 1.63752,48.5 0.5331,11.55 1.41657,32.475 1.96326,46.5 0.5467,14.025 1.44719,29.775 2.0011,35 0.5539,5.225 1.4746,18.95 2.04599,30.5 1.06964,21.62154 5.50568,86.65716 6.58835,96.59009 0.55423,5.08477 0.80816,5.55209 2.80905,5.16959 1.23232,-0.23557 2.77659,0.27455 3.51137,1.15991 0.7214,0.86922 2.60653,1.58041 4.18919,1.58041 1.58265,0 2.87755,0.34074 2.87755,0.75721 0,0.41646 -2.08563,0.59132 -4.63474,0.38859 l -4.63474,-0.36862 1.63879,2.36141 c 0.90133,1.29878 3.29802,2.8446 5.32599,3.43517 4.61346,1.34351 5.55853,3.42624 1.5547,3.42624 -3.56211,0 -4.59457,0.87989 -3.11888,2.65799 0.88106,1.06161 0.61807,1.31777 -1.25867,1.22601 -1.30485,-0.0638 -3.27245,-0.30886 -4.37245,-0.54458 z m 89.30582,-1.42196 c -0.33512,-1.00535 -7.23309,-1.22034 -32.61541,-1.01652 -29.83447,0.23958 -32.19041,0.13305 -32.19041,-1.45559 0,-1.51344 0.84864,-1.64753 7.25,-1.14554 6.98414,0.54771 50.96213,-0.92023 55.43335,-1.85029 1.20084,-0.24979 2.46099,-1.32895 2.80034,-2.39812 0.4565,-1.43833 1.83936,-2.09031 5.31665,-2.50665 2.58481,-0.30948 6.49571,-0.97511 8.69087,-1.47918 2.19517,-0.50406 4.15235,-0.75535 4.34929,-0.55841 0.19693,0.19694 0.041,2.23465 -0.34648,4.52825 -0.62147,3.67843 -1.1933,4.38415 -4.84928,5.98474 -5.75118,2.51786 -13.28765,3.55111 -13.83892,1.89731 z m -24.05582,-9.64086 c 1.7875,-0.22182 4.7125,-0.22182 6.5,0 1.7875,0.22183 0.325,0.40333 -3.25,0.40333 -3.575,0 -5.0375,-0.1815 -3.25,-0.40333 z m 11.51903,-0.96959 c 0.97297,-0.25354 2.32297,-0.23687 3,0.0371 0.67703,0.27393 -0.11903,0.48137 -1.76903,0.46099 -1.65,-0.0204 -2.20394,-0.2445 -1.23097,-0.49804 z m 20.17797,-2.39277 c -0.31557,-0.5106 0.0983,-1.18627 0.91974,-1.50148 2.67602,-1.02688 3.72815,-6.61362 4.69173,-24.91276 0.5213,-9.9 1.39579,-25.875 1.94331,-35.5 2.83575,-49.85059 3.93943,-70.74082 3.85676,-73 -0.0503,-1.375 0.38762,-9.925 0.97318,-19 0.58556,-9.075 1.29071,-34.275 1.567,-56 0.42884,-33.72046 1.90249,-88.879101 2.92546,-109.500001 0.87221,-17.581864 0.4414,73.122341 -0.51533,108.500001 -0.61726,22.825 -1.20292,47.35 -1.30145,54.5 -0.0985,7.15 -0.75745,16.825 -1.46426,21.5 -0.72682,4.80737 -1.2583,16.75412 -1.22342,27.5 0.0339,10.45 -0.81157,37.675 -1.87889,60.5 -1.06731,22.825 -1.94521,42.175 -1.95087,43 -0.0121,1.76787 -7.69416,5.28764 -8.54296,3.91424 z m -111.28911,-19.91424 c 0,-1.375 0.22698,-1.9375 0.50439,-1.25 0.27741,0.6875 0.27741,1.8125 0,2.5 -0.27741,0.6875 -0.50439,0.125 -0.50439,-1.25 z m -5.87188,-286.500001 c 0.008,-2.75 0.20172,-3.756313 0.43157,-2.23625 0.22986,1.520062 0.22371,3.770062 -0.0136,5 -0.23736,1.229937 -0.42542,-0.01375 -0.41792,-2.76375 z m -0.92551,-69.5 c 0,-5.225 0.16854,-7.3625 0.37454,-4.75 0.206,2.6125 0.206,6.8875 0,9.5 -0.206,2.6125 -0.37454,0.475 -0.37454,-4.75 z"
         id="path9985"
         inkscape:connector-curvature="0" />
      <path
         style="fill:#585858"
         d="m -330.35714,400.16892 c -4.3755,-1.9314 -6.5952,-4.88837 -7.23168,-9.6337 -0.54352,-4.05221 -0.49019,-4.1529 1.60541,-3.03137 2.99514,1.60295 4.18283,0.58271 3.14839,-2.70452 -0.80994,-2.57379 -1.30501,-13.28115 -2.57668,-55.7279 -0.2966,-9.9 -0.96816,-27.20426 -1.49235,-38.45392 -1.19098,-25.55915 -1.19602,-28.69997 -0.0441,-27.49608 0.49993,0.5225 1.42029,11.93 2.04524,25.35001 0.62495,13.42001 1.76332,32.32001 2.52971,42 0.7664,9.67999 1.94338,26.28236 2.61551,36.89414 l 1.22206,19.29415 2.74405,-0.6027 c 3.21999,-0.70722 4.86238,1.09218 2.58392,2.83093 -1.39016,1.06086 -1.36475,1.40826 0.24522,3.35329 0.98783,1.1934 3.66563,2.67324 5.95068,3.28854 5.16666,1.39124 5.34587,2.82232 0.40464,3.23127 -2.34509,0.19409 -3.65634,0.77868 -3.5,1.56037 0.33615,1.68077 -6.32116,1.58172 -10.25,-0.15251 z m 95.95012,0.13313 c -0.46031,-1.19955 -5.63172,-1.41277 -32.24917,-1.32963 -20.40167,0.0637 -31.77937,-0.25742 -31.92095,-0.90099 -0.13651,-0.62052 2.5189,-0.86086 6.9975,-0.63335 3.96963,0.20166 18.1724,-0.21466 31.56171,-0.92515 23.23184,-1.23278 24.40979,-1.39189 25.77937,-3.48213 1.05944,-1.61691 2.81635,-2.35266 6.71107,-2.8104 2.90175,-0.34105 6.78089,-0.92108 8.6203,-1.28896 3.28467,-0.65693 3.33162,-0.61701 2.6295,2.23556 -1.58034,6.42052 -3.39758,7.67619 -14.33028,9.90189 -2.35819,0.48009 -3.40136,0.26952 -3.79905,-0.76684 z m 9.53934,-15.50249 c 2.19809,-2.97308 2.54614,-6.78764 5.03914,-55.22813 1.71233,-33.27163 2.76579,-48.12773 3.46217,-48.8241 1.02847,-1.02847 0.4298,36.51036 -1.08167,67.8241 -0.7566,15.675 -1.38317,30.18146 -1.39237,32.23658 -0.015,3.34301 -0.39824,3.89599 -3.63885,5.25 -4.74989,1.98463 -4.77598,1.97089 -2.38842,-1.25845 z m 8.3102,-113.22813 c 0,-3.025 0.18747,-4.2625 0.41659,-2.75 0.22913,1.5125 0.22913,3.9875 0,5.5 -0.22912,1.5125 -0.41659,0.275 -0.41659,-2.75 z m -121.57891,-15.25 c -0.27843,-1.7875 -0.1045,-3.6775 0.38651,-4.2 0.53274,-0.56691 0.89274,0.74364 0.89274,3.25 0,5.01472 -0.57911,5.44478 -1.27925,0.95 z m 122.94707,-9.75 c 0.66754,-9.76062 2.26511,-14.31015 2.28248,-6.5 0.006,2.75 -0.63574,7.25 -1.42634,10 l -1.43747,5 0.58133,-8.5 z m -125.02993,-6.18391 c -1.58125,-5.81381 -4.27011,-99.9167 -2.80838,-98.28614 0.78315,0.87362 1.86747,21.68037 4.1415,79.47005 0.70707,17.96869 0.23781,24.59194 -1.33312,18.81609 z m 125.69794,-8.38331 c -0.33077,-0.86197 -0.0916,-2.07697 0.53139,-2.7 0.84371,-0.84371 1.13278,-0.44377 1.13278,1.56722 0,3.0087 -0.74874,3.51836 -1.66417,1.13278 z m 1.02909,-56.18278 c 0.36716,-21.8625 0.98901,-44.025 1.38188,-49.25 l 0.71433,-9.5 0.59582,6.5 c 0.3277,3.575 0.2444,24.5 -0.18512,46.5 -0.42951,22 -0.80138,41.2375 -0.82638,42.75 -0.025,1.5125 -0.56355,2.75 -1.19677,2.75 -0.86032,0 -0.9826,-10.0471 -0.48376,-39.75 z m -130.58637,-59 c -0.22361,-3.1625 -0.0539,-6.425 0.37704,-7.25 0.44601,-0.85378 0.79669,1.62338 0.814,5.75 0.0167,3.9875 -0.15294,7.25 -0.37704,7.25 -0.2241,0 -0.5904,-2.5875 -0.814,-5.75 z m 132.49381,-6.25 c 0,-2.475 0.19502,-3.4875 0.43337,-2.25 0.23836,1.2375 0.23836,3.2625 0,4.5 -0.23835,1.2375 -0.43337,0.225 -0.43337,-2.25 z m 1.0826,-16.500001 c -0.003,-4.95 0.16605,-7.101078 0.37577,-4.78017 0.20972,2.3209 0.21222,6.3709 0.006,9 -0.20667,2.629091 -0.37827,0.73017 -0.38131,-4.21983 z"
         id="path9983"
         inkscape:connector-curvature="0" />
      <path
         style="fill:#303030"
         d="m -329.64751,399.89569 c -4.57669,-1.61913 -6.63371,-3.99618 -7.63625,-8.82426 l -0.62294,-3 5.57119,0.0794 c 3.06416,0.0437 5.80186,-0.29382 6.0838,-0.75 0.28193,-0.45617 1.27355,-0.8151 2.20359,-0.79761 1.51638,0.0285 1.50016,0.17638 -0.15705,1.43193 -1.79738,1.36174 -1.79738,1.47057 0,3.97037 1.13397,1.57713 3.58679,3.03059 6.34803,3.76164 l 4.5,1.19139 -3.97801,0.83818 c -2.18791,0.461 -4.34777,1.4989 -4.7997,2.30644 -0.99521,1.77835 -1.976,1.75127 -7.51266,-0.20749 z m 94.94487,-0.85387 c -1.03346,-1.22159 -2.5409,-1.46698 -6.5,-1.05809 -9.60005,0.99149 -42.22068,1.55124 -39.52811,0.67828 2.20426,-0.71464 20.29532,-1.85106 40.21847,-2.5264 3.60014,-0.12203 5.27008,-0.70351 6.5,-2.26329 1.14837,-1.45638 3.95148,-2.55432 9.15514,-3.58592 4.125,-0.81777 7.64152,-1.35916 7.81448,-1.2031 0.17297,0.15607 0.001,1.95236 -0.38114,3.99177 -0.55877,2.97851 -1.3624,3.9866 -4.08482,5.1241 -5.50878,2.30171 -11.62898,2.69259 -13.19402,0.84265 z m -62.6545,-0.47039 c -1.39451,-0.59924 0.0257,-0.88071 4.69098,-0.92971 3.68004,-0.0387 6.9691,0.37971 7.30902,0.92971 0.76279,1.23422 -9.12782,1.23422 -12,0 z m -35.12669,-13.20498 c -0.40959,-0.66274 -0.89504,-7.75024 -1.07876,-15.75 -0.18373,-7.99976 -0.77516,-22.32266 -1.3143,-31.82866 -1.21471,-21.41752 -1.22973,-31.24844 -0.0446,-29.21636 0.48112,0.825 1.6152,13.65 2.52017,28.5 0.90497,14.85 2.0365,31.13958 2.51451,36.19907 0.86477,9.15305 0.54422,13.30093 -1.02789,13.30093 -0.4534,0 -1.15948,-0.54224 -1.56908,-1.20498 z m 108.99022,-1.29998 c 1.03309,-2.69219 2.59415,-22.37038 4.24025,-53.45095 0.88715,-16.75074 2.01785,-31.37574 2.51267,-32.5 0.90521,-2.05672 0.82916,0.85464 -1.13522,43.45591 -0.5199,11.275 -0.95336,25.2475 -0.96325,31.05 -0.018,10.56524 -0.72238,12.95 -3.82497,12.95 -0.84187,0 -1.17503,-0.60446 -0.82948,-1.50496 z m -112.13153,-87.49504 c 0,-1.925 0.2058,-2.7125 0.45733,-1.75 0.25152,0.9625 0.25152,2.5375 0,3.5 -0.25153,0.9625 -0.45733,0.175 -0.45733,-1.75 z m -5.65797,-76.25 c -1.04874,-14.28895 -1.41018,-43.70443 -0.47614,-38.75 1.00333,5.3219 2.46129,47 1.64414,47 -0.30937,0 -0.83497,-3.7125 -1.168,-8.25 z m 128.36476,-26.5 c -0.0337,-1.5125 -0.18746,-5.675 -0.34178,-9.25 -0.15431,-3.575 0.029,-11 0.40737,-16.5 0.60414,-8.78173 0.70669,-7.65483 0.84178,9.25 0.0846,10.5875 -0.0712,19.25 -0.34616,19.25 -0.275,0 -0.52754,-1.2375 -0.56121,-2.75 z m 0.68512,-41 c -0.28098,-0.9625 -0.15352,-7.15 0.28325,-13.75 l 0.79413,-12 0.14936,13.75 c 0.14343,13.20484 -0.12072,15.78873 -1.22674,12 z"
         id="path9981"
         inkscape:connector-curvature="0" />
    </g>
  </g>
</svg>
